M48
; DRILL file {KiCad 5.1.10-88a1d61d58~90~ubuntu20.04.1} date Thu Aug 26 08:22:00 2021
; FORMAT={-:-/ absolute / metric / decimal}
; #@! TF.CreationDate,2021-08-26T08:22:00+02:00
; #@! TF.GenerationSoftware,Kicad,Pcbnew,5.1.10-88a1d61d58~90~ubuntu20.04.1
FMAT,2
METRIC
T1C0.400
T2C0.800
T3C0.900
T4C1.000
T5C1.100
T6C1.200
T7C2.500
T8C0.900
T9C2.500
%
G90
G05
T1
X9.398Y17.526
X15.875Y15.875
X20.32Y26.035
X27.94Y20.955
X33.655Y28.575
X34.571Y31.741
X40.005Y3.81
X40.259Y9.779
X44.409Y30.451
X45.235Y22.116
X46.99Y29.21
X48.935Y8.318
X50.178Y39.414
X50.802Y9.231
X51.198Y46.27
X51.435Y20.32
X52.103Y30.857
X53.2Y62.087
X56.211Y33.789
X57.318Y32.674
X65.405Y47.625
X66.04Y36.83
X67.945Y43.815
X69.85Y36.195
X72.39Y34.29
X74.54Y48.248
X78.956Y53.004
X79.502Y49.276
X80.645Y43.815
X81.28Y48.26
X81.915Y38.1
X85.09Y46.99
X85.725Y16.51
X88.646Y10.795
X104.775Y39.37
X148.366Y52.705
T2
X21.59Y52.705
X21.59Y50.165
X21.59Y47.625
X21.59Y45.085
X21.59Y42.545
X21.59Y40.005
X21.59Y37.465
X21.59Y34.925
X29.21Y52.705
X29.21Y50.165
X29.21Y47.625
X29.21Y45.085
X29.21Y42.545
X29.21Y40.005
X29.21Y37.465
X29.21Y34.925
X40.64Y52.705
X40.64Y50.165
X40.64Y47.625
X40.64Y45.085
X40.64Y42.545
X40.64Y40.005
X40.64Y37.465
X40.64Y34.925
X48.26Y52.705
X48.26Y50.165
X48.26Y47.625
X48.26Y45.085
X48.26Y42.545
X48.26Y40.005
X48.26Y37.465
X48.26Y34.925
T3
X29.464Y15.621
X29.464Y13.081
X33.909Y15.621
X33.909Y13.081
X34.29Y63.5
X36.83Y63.5
T4
X66.04Y22.86
X66.04Y20.32
X66.04Y17.78
X66.04Y15.24
X86.995Y70.485
X86.995Y67.945
X89.535Y70.485
X89.535Y67.945
X92.075Y70.485
X92.075Y67.945
X121.92Y41.91
X124.46Y41.91
X127.0Y41.91
X129.54Y41.91
X134.62Y22.86
X134.62Y20.32
X134.62Y17.78
X134.62Y15.24
X144.78Y71.12
X144.78Y2.54
X147.32Y71.12
X147.32Y2.54
X149.86Y71.12
X149.86Y2.54
X152.4Y71.12
X152.4Y2.54
T5
X145.415Y66.095
X145.415Y61.595
X145.415Y55.3
X145.415Y50.8
X145.415Y44.505
X145.415Y40.005
X145.415Y33.71
X145.415Y29.21
X145.415Y22.915
X145.415Y18.415
X145.415Y12.12
X145.415Y7.62
X151.915Y66.095
X151.915Y61.595
X151.915Y55.3
X151.915Y50.8
X151.915Y44.505
X151.915Y40.005
X151.915Y33.71
X151.915Y29.21
X151.915Y22.915
X151.915Y18.415
X151.915Y12.12
X151.915Y7.62
T6
X68.58Y60.96
X71.12Y60.96
X73.66Y60.96
X76.2Y60.96
X78.74Y60.96
X81.28Y60.96
X83.82Y60.96
X86.36Y60.96
X88.9Y60.96
X91.44Y60.96
X93.98Y60.96
X96.52Y60.96
X99.06Y60.96
X101.6Y60.96
X104.14Y60.96
X106.68Y60.96
T7
X63.081Y60.96
X63.081Y29.959
X138.079Y29.959
X138.08Y60.96
T8
X4.695Y21.25
X4.695Y16.85
T9
X6.0Y66.1
X6.0Y6.9
X137.0Y66.1
X137.0Y6.9
T4
G00X132.08Y49.8
M15
G01X132.08Y51.8
M16
G05
G00X136.08Y55.5
M15
G01X134.08Y55.5
M16
G05
G00X138.08Y49.8
M15
G01X138.08Y51.8
M16
G05
T0
M30
