%TF.GenerationSoftware,KiCad,Pcbnew,5.1.10-88a1d61d58~90~ubuntu20.04.1*%
%TF.CreationDate,2021-08-26T08:22:14+02:00*%
%TF.ProjectId,promprog2,70726f6d-7072-46f6-9732-2e6b69636164,rev?*%
%TF.SameCoordinates,PX42c1d80PY8677d40*%
%TF.FileFunction,Soldermask,Bot*%
%TF.FilePolarity,Negative*%
%FSLAX46Y46*%
G04 Gerber Fmt 4.6, Leading zero omitted, Abs format (unit mm)*
G04 Created by KiCad (PCBNEW 5.1.10-88a1d61d58~90~ubuntu20.04.1) date 2021-08-26 08:22:14*
%MOMM*%
%LPD*%
G01*
G04 APERTURE LIST*
%ADD10C,1.800000*%
%ADD11R,1.800000X1.800000*%
%ADD12C,2.000000*%
%ADD13O,1.700000X1.700000*%
%ADD14R,1.700000X1.700000*%
%ADD15C,0.900000*%
%ADD16R,3.500000X3.500000*%
%ADD17R,1.800000X2.600000*%
%ADD18O,1.800000X2.600000*%
%ADD19C,3.000000*%
%ADD20R,2.400000X1.600000*%
%ADD21O,2.400000X1.600000*%
%ADD22C,2.500000*%
%ADD23C,0.100000*%
G04 APERTURE END LIST*
D10*
%TO.C,D7*%
X29464000Y15621000D03*
D11*
X29464000Y13081000D03*
%TD*%
%TO.C,D6*%
X33909000Y13081000D03*
D10*
X33909000Y15621000D03*
%TD*%
D12*
%TO.C,U1*%
X129540000Y41910000D03*
X127000000Y41910000D03*
X124460000Y41910000D03*
X121920000Y41910000D03*
%TD*%
D13*
%TO.C,J6*%
X152400000Y71120000D03*
X149860000Y71120000D03*
X147320000Y71120000D03*
D14*
X144780000Y71120000D03*
%TD*%
%TO.C,J7*%
X144780000Y2540000D03*
D13*
X147320000Y2540000D03*
X149860000Y2540000D03*
X152400000Y2540000D03*
%TD*%
%TO.C,J5*%
X66040000Y15240000D03*
X66040000Y17780000D03*
X66040000Y20320000D03*
D14*
X66040000Y22860000D03*
%TD*%
%TO.C,J8*%
X134620000Y22860000D03*
D13*
X134620000Y20320000D03*
X134620000Y17780000D03*
X134620000Y15240000D03*
%TD*%
D12*
%TO.C,SW5*%
X151915000Y18415000D03*
X151915000Y22915000D03*
X145415000Y18415000D03*
X145415000Y22915000D03*
%TD*%
%TO.C,SW6*%
X145415000Y12120000D03*
X145415000Y7620000D03*
X151915000Y12120000D03*
X151915000Y7620000D03*
%TD*%
D15*
%TO.C,J3*%
X4695000Y21250000D03*
X4695000Y16850000D03*
%TD*%
D14*
%TO.C,J2*%
X92075000Y70485000D03*
D13*
X92075000Y67945000D03*
X89535000Y70485000D03*
X89535000Y67945000D03*
X86995000Y70485000D03*
X86995000Y67945000D03*
%TD*%
D12*
%TO.C,SW4*%
X151915000Y29210000D03*
X151915000Y33710000D03*
X145415000Y29210000D03*
X145415000Y33710000D03*
%TD*%
%TO.C,SW3*%
X145415000Y44505000D03*
X145415000Y40005000D03*
X151915000Y44505000D03*
X151915000Y40005000D03*
%TD*%
%TO.C,SW2*%
X151915000Y50800000D03*
X151915000Y55300000D03*
X145415000Y50800000D03*
X145415000Y55300000D03*
%TD*%
%TO.C,SW1*%
X145415000Y66095000D03*
X145415000Y61595000D03*
X151915000Y66095000D03*
X151915000Y61595000D03*
%TD*%
D16*
%TO.C,J1*%
X132080000Y50800000D03*
G36*
G01*
X139580000Y51800000D02*
X139580000Y49800000D01*
G75*
G02*
X138830000Y49050000I-750000J0D01*
G01*
X137330000Y49050000D01*
G75*
G02*
X136580000Y49800000I0J750000D01*
G01*
X136580000Y51800000D01*
G75*
G02*
X137330000Y52550000I750000J0D01*
G01*
X138830000Y52550000D01*
G75*
G02*
X139580000Y51800000I0J-750000D01*
G01*
G37*
G36*
G01*
X136830000Y56375000D02*
X136830000Y54625000D01*
G75*
G02*
X135955000Y53750000I-875000J0D01*
G01*
X134205000Y53750000D01*
G75*
G02*
X133330000Y54625000I0J875000D01*
G01*
X133330000Y56375000D01*
G75*
G02*
X134205000Y57250000I875000J0D01*
G01*
X135955000Y57250000D01*
G75*
G02*
X136830000Y56375000I0J-875000D01*
G01*
G37*
%TD*%
D17*
%TO.C,DS1*%
X68580000Y60960000D03*
D18*
X71120000Y60960000D03*
X73660000Y60960000D03*
X76200000Y60960000D03*
X78740000Y60960000D03*
X81280000Y60960000D03*
X83820000Y60960000D03*
X86360000Y60960000D03*
X88900000Y60960000D03*
X91440000Y60960000D03*
X93980000Y60960000D03*
X96520000Y60960000D03*
X99060000Y60960000D03*
X101600000Y60960000D03*
X104140000Y60960000D03*
X106680000Y60960000D03*
D19*
X63080900Y60960000D03*
X63080900Y29959300D03*
X138079480Y29959300D03*
X138080000Y60960000D03*
%TD*%
D11*
%TO.C,D5*%
X34290000Y63500000D03*
D10*
X36830000Y63500000D03*
%TD*%
D20*
%TO.C,U6*%
X40640000Y52705000D03*
D21*
X48260000Y34925000D03*
X40640000Y50165000D03*
X48260000Y37465000D03*
X40640000Y47625000D03*
X48260000Y40005000D03*
X40640000Y45085000D03*
X48260000Y42545000D03*
X40640000Y42545000D03*
X48260000Y45085000D03*
X40640000Y40005000D03*
X48260000Y47625000D03*
X40640000Y37465000D03*
X48260000Y50165000D03*
X40640000Y34925000D03*
X48260000Y52705000D03*
%TD*%
D20*
%TO.C,U3*%
X21590000Y52705000D03*
D21*
X29210000Y34925000D03*
X21590000Y50165000D03*
X29210000Y37465000D03*
X21590000Y47625000D03*
X29210000Y40005000D03*
X21590000Y45085000D03*
X29210000Y42545000D03*
X21590000Y42545000D03*
X29210000Y45085000D03*
X21590000Y40005000D03*
X29210000Y47625000D03*
X21590000Y37465000D03*
X29210000Y50165000D03*
X21590000Y34925000D03*
X29210000Y52705000D03*
%TD*%
D22*
%TO.C,H4*%
X6000000Y66100000D03*
%TD*%
%TO.C,H3*%
X137000000Y66100000D03*
%TD*%
%TO.C,H2*%
X137000000Y6900000D03*
%TD*%
%TO.C,H1*%
X6000000Y6900000D03*
%TD*%
D23*
G36*
X136581990Y49800196D02*
G01*
X136596381Y49654077D01*
X136638947Y49513756D01*
X136708069Y49384438D01*
X136801091Y49271091D01*
X136914438Y49178069D01*
X137043756Y49108947D01*
X137184077Y49066381D01*
X137330196Y49051990D01*
X137331822Y49050825D01*
X137331626Y49048835D01*
X137330000Y49048000D01*
X137273640Y49048000D01*
X137273444Y49048010D01*
X137133299Y49061813D01*
X137132914Y49061889D01*
X137004053Y49100979D01*
X137003691Y49101129D01*
X136884940Y49164603D01*
X136884614Y49164821D01*
X136780522Y49250245D01*
X136780245Y49250522D01*
X136694821Y49354614D01*
X136694603Y49354940D01*
X136631129Y49473691D01*
X136630979Y49474053D01*
X136591889Y49602914D01*
X136591813Y49603299D01*
X136578010Y49743444D01*
X136578000Y49743640D01*
X136578000Y49800000D01*
X136579000Y49801732D01*
X136581000Y49801732D01*
X136581990Y49800196D01*
G37*
G36*
X139581165Y49801626D02*
G01*
X139582000Y49800000D01*
X139582000Y49743640D01*
X139581990Y49743444D01*
X139568187Y49603299D01*
X139568111Y49602914D01*
X139529021Y49474053D01*
X139528871Y49473691D01*
X139465397Y49354940D01*
X139465179Y49354614D01*
X139379755Y49250522D01*
X139379478Y49250245D01*
X139275386Y49164821D01*
X139275060Y49164603D01*
X139156309Y49101129D01*
X139155947Y49100979D01*
X139027086Y49061889D01*
X139026701Y49061813D01*
X138886556Y49048010D01*
X138886360Y49048000D01*
X138830000Y49048000D01*
X138828268Y49049000D01*
X138828268Y49051000D01*
X138829804Y49051990D01*
X138975923Y49066381D01*
X139116244Y49108947D01*
X139245562Y49178069D01*
X139358909Y49271091D01*
X139451931Y49384438D01*
X139521053Y49513756D01*
X139563619Y49654077D01*
X139578010Y49800196D01*
X139579175Y49801822D01*
X139581165Y49801626D01*
G37*
G36*
X137331732Y52551000D02*
G01*
X137331732Y52549000D01*
X137330196Y52548010D01*
X137184077Y52533619D01*
X137043756Y52491053D01*
X136914438Y52421931D01*
X136801091Y52328909D01*
X136708069Y52215562D01*
X136638947Y52086244D01*
X136596381Y51945923D01*
X136581990Y51799804D01*
X136580825Y51798178D01*
X136578835Y51798374D01*
X136578000Y51800000D01*
X136578000Y51856360D01*
X136578010Y51856556D01*
X136591813Y51996701D01*
X136591889Y51997086D01*
X136630979Y52125947D01*
X136631129Y52126309D01*
X136694603Y52245060D01*
X136694821Y52245386D01*
X136780245Y52349478D01*
X136780522Y52349755D01*
X136884614Y52435179D01*
X136884940Y52435397D01*
X137003691Y52498871D01*
X137004053Y52499021D01*
X137132914Y52538111D01*
X137133299Y52538187D01*
X137273444Y52551990D01*
X137273640Y52552000D01*
X137330000Y52552000D01*
X137331732Y52551000D01*
G37*
G36*
X138886556Y52551990D02*
G01*
X139026701Y52538187D01*
X139027086Y52538111D01*
X139155947Y52499021D01*
X139156309Y52498871D01*
X139275060Y52435397D01*
X139275386Y52435179D01*
X139379478Y52349755D01*
X139379755Y52349478D01*
X139465179Y52245386D01*
X139465397Y52245060D01*
X139528871Y52126309D01*
X139529021Y52125947D01*
X139568111Y51997086D01*
X139568187Y51996701D01*
X139581990Y51856556D01*
X139582000Y51856360D01*
X139582000Y51800000D01*
X139581000Y51798268D01*
X139579000Y51798268D01*
X139578010Y51799804D01*
X139563619Y51945923D01*
X139521053Y52086244D01*
X139451931Y52215562D01*
X139358909Y52328909D01*
X139245562Y52421931D01*
X139116244Y52491053D01*
X138975923Y52533619D01*
X138829804Y52548010D01*
X138828178Y52549175D01*
X138828374Y52551165D01*
X138830000Y52552000D01*
X138886360Y52552000D01*
X138886556Y52551990D01*
G37*
G36*
X133331990Y54625196D02*
G01*
X133348783Y54454691D01*
X133398462Y54290921D01*
X133479135Y54139992D01*
X133587703Y54007703D01*
X133719992Y53899135D01*
X133870921Y53818462D01*
X134034691Y53768783D01*
X134205196Y53751990D01*
X134206822Y53750825D01*
X134206626Y53748835D01*
X134205000Y53748000D01*
X134148640Y53748000D01*
X134148444Y53748010D01*
X133983913Y53764215D01*
X133983528Y53764291D01*
X133831217Y53810494D01*
X133830855Y53810644D01*
X133690492Y53885669D01*
X133690166Y53885887D01*
X133567134Y53986857D01*
X133566857Y53987134D01*
X133465887Y54110166D01*
X133465669Y54110492D01*
X133390644Y54250855D01*
X133390494Y54251217D01*
X133344291Y54403528D01*
X133344215Y54403913D01*
X133328010Y54568444D01*
X133328000Y54568640D01*
X133328000Y54625000D01*
X133329000Y54626732D01*
X133331000Y54626732D01*
X133331990Y54625196D01*
G37*
G36*
X136831165Y54626626D02*
G01*
X136832000Y54625000D01*
X136832000Y54568640D01*
X136831990Y54568444D01*
X136815785Y54403913D01*
X136815709Y54403528D01*
X136769506Y54251217D01*
X136769356Y54250855D01*
X136694331Y54110492D01*
X136694113Y54110166D01*
X136593143Y53987134D01*
X136592866Y53986857D01*
X136469834Y53885887D01*
X136469508Y53885669D01*
X136329145Y53810644D01*
X136328783Y53810494D01*
X136176472Y53764291D01*
X136176087Y53764215D01*
X136011556Y53748010D01*
X136011360Y53748000D01*
X135955000Y53748000D01*
X135953268Y53749000D01*
X135953268Y53751000D01*
X135954804Y53751990D01*
X136125309Y53768783D01*
X136289079Y53818462D01*
X136440008Y53899135D01*
X136572297Y54007703D01*
X136680865Y54139992D01*
X136761538Y54290921D01*
X136811217Y54454691D01*
X136828010Y54625196D01*
X136829175Y54626822D01*
X136831165Y54626626D01*
G37*
G36*
X134206732Y57251000D02*
G01*
X134206732Y57249000D01*
X134205196Y57248010D01*
X134034691Y57231217D01*
X133870921Y57181538D01*
X133719992Y57100865D01*
X133587703Y56992297D01*
X133479135Y56860008D01*
X133398462Y56709079D01*
X133348783Y56545309D01*
X133331990Y56374804D01*
X133330825Y56373178D01*
X133328835Y56373374D01*
X133328000Y56375000D01*
X133328000Y56431360D01*
X133328010Y56431556D01*
X133344215Y56596087D01*
X133344291Y56596472D01*
X133390494Y56748783D01*
X133390644Y56749145D01*
X133465669Y56889508D01*
X133465887Y56889834D01*
X133566857Y57012866D01*
X133567134Y57013143D01*
X133690166Y57114113D01*
X133690492Y57114331D01*
X133830855Y57189356D01*
X133831217Y57189506D01*
X133983528Y57235709D01*
X133983913Y57235785D01*
X134148444Y57251990D01*
X134148640Y57252000D01*
X134205000Y57252000D01*
X134206732Y57251000D01*
G37*
G36*
X136011556Y57251990D02*
G01*
X136176087Y57235785D01*
X136176472Y57235709D01*
X136328783Y57189506D01*
X136329145Y57189356D01*
X136469508Y57114331D01*
X136469834Y57114113D01*
X136592866Y57013143D01*
X136593143Y57012866D01*
X136694113Y56889834D01*
X136694331Y56889508D01*
X136769356Y56749145D01*
X136769506Y56748783D01*
X136815709Y56596472D01*
X136815785Y56596087D01*
X136831990Y56431556D01*
X136832000Y56431360D01*
X136832000Y56375000D01*
X136831000Y56373268D01*
X136829000Y56373268D01*
X136828010Y56374804D01*
X136811217Y56545309D01*
X136761538Y56709079D01*
X136680865Y56860008D01*
X136572297Y56992297D01*
X136440008Y57100865D01*
X136289079Y57181538D01*
X136125309Y57231217D01*
X135954804Y57248010D01*
X135953178Y57249175D01*
X135953374Y57251165D01*
X135955000Y57252000D01*
X136011360Y57252000D01*
X136011556Y57251990D01*
G37*
M02*
