%TF.GenerationSoftware,KiCad,Pcbnew,5.1.10-88a1d61d58~90~ubuntu20.04.1*%
%TF.CreationDate,2021-08-26T08:22:14+02:00*%
%TF.ProjectId,promprog2,70726f6d-7072-46f6-9732-2e6b69636164,rev?*%
%TF.SameCoordinates,PX42c1d80PY8677d40*%
%TF.FileFunction,Copper,L2,Bot*%
%TF.FilePolarity,Positive*%
%FSLAX46Y46*%
G04 Gerber Fmt 4.6, Leading zero omitted, Abs format (unit mm)*
G04 Created by KiCad (PCBNEW 5.1.10-88a1d61d58~90~ubuntu20.04.1) date 2021-08-26 08:22:14*
%MOMM*%
%LPD*%
G01*
G04 APERTURE LIST*
%TA.AperFunction,ComponentPad*%
%ADD10C,1.800000*%
%TD*%
%TA.AperFunction,ComponentPad*%
%ADD11R,1.800000X1.800000*%
%TD*%
%TA.AperFunction,ComponentPad*%
%ADD12C,2.000000*%
%TD*%
%TA.AperFunction,ComponentPad*%
%ADD13O,1.700000X1.700000*%
%TD*%
%TA.AperFunction,ComponentPad*%
%ADD14R,1.700000X1.700000*%
%TD*%
%TA.AperFunction,ComponentPad*%
%ADD15R,3.500000X3.500000*%
%TD*%
%TA.AperFunction,ComponentPad*%
%ADD16R,1.800000X2.600000*%
%TD*%
%TA.AperFunction,ComponentPad*%
%ADD17O,1.800000X2.600000*%
%TD*%
%TA.AperFunction,ComponentPad*%
%ADD18C,3.000000*%
%TD*%
%TA.AperFunction,ComponentPad*%
%ADD19R,2.400000X1.600000*%
%TD*%
%TA.AperFunction,ComponentPad*%
%ADD20O,2.400000X1.600000*%
%TD*%
%TA.AperFunction,ViaPad*%
%ADD21C,0.800000*%
%TD*%
%TA.AperFunction,Conductor*%
%ADD22C,0.254000*%
%TD*%
%TA.AperFunction,Conductor*%
%ADD23C,0.304800*%
%TD*%
%TA.AperFunction,Conductor*%
%ADD24C,0.100000*%
%TD*%
G04 APERTURE END LIST*
D10*
%TO.P,D7,2*%
%TO.N,Net-(C8-Pad2)*%
X29464000Y15621000D03*
D11*
%TO.P,D7,1*%
%TO.N,Net-(D7-Pad1)*%
X29464000Y13081000D03*
%TD*%
%TO.P,D6,1*%
%TO.N,Net-(D6-Pad1)*%
X33909000Y13081000D03*
D10*
%TO.P,D6,2*%
%TO.N,Net-(C8-Pad2)*%
X33909000Y15621000D03*
%TD*%
D12*
%TO.P,U1,1*%
%TO.N,Net-(U1-Pad1)*%
X129540000Y41910000D03*
%TO.P,U1,2*%
%TO.N,Net-(C5-Pad1)*%
X127000000Y41910000D03*
%TO.P,U1,3*%
%TO.N,GND*%
X124460000Y41910000D03*
%TO.P,U1,4*%
%TO.N,Net-(C1-Pad1)*%
X121920000Y41910000D03*
%TD*%
D13*
%TO.P,J6,4*%
%TO.N,Net-(J6-Pad4)*%
X152400000Y71120000D03*
%TO.P,J6,3*%
%TO.N,Net-(J6-Pad3)*%
X149860000Y71120000D03*
%TO.P,J6,2*%
%TO.N,Net-(J6-Pad2)*%
X147320000Y71120000D03*
D14*
%TO.P,J6,1*%
%TO.N,Net-(J6-Pad1)*%
X144780000Y71120000D03*
%TD*%
%TO.P,J7,1*%
%TO.N,Net-(J7-Pad1)*%
X144780000Y2540000D03*
D13*
%TO.P,J7,2*%
%TO.N,Net-(J7-Pad2)*%
X147320000Y2540000D03*
%TO.P,J7,3*%
%TO.N,Net-(J7-Pad3)*%
X149860000Y2540000D03*
%TO.P,J7,4*%
%TO.N,Net-(J7-Pad4)*%
X152400000Y2540000D03*
%TD*%
%TO.P,J5,4*%
%TO.N,GND*%
X66040000Y15240000D03*
%TO.P,J5,3*%
%TO.N,/SW3*%
X66040000Y17780000D03*
%TO.P,J5,2*%
%TO.N,/SW2*%
X66040000Y20320000D03*
D14*
%TO.P,J5,1*%
%TO.N,/SW1*%
X66040000Y22860000D03*
%TD*%
%TO.P,J8,1*%
%TO.N,+5V*%
X134620000Y22860000D03*
D13*
%TO.P,J8,2*%
%TO.N,/SW6*%
X134620000Y20320000D03*
%TO.P,J8,3*%
%TO.N,/SW5*%
X134620000Y17780000D03*
%TO.P,J8,4*%
%TO.N,/SW4*%
X134620000Y15240000D03*
%TD*%
D12*
%TO.P,SW5,1*%
%TO.N,Net-(J7-Pad3)*%
X151915000Y18415000D03*
%TO.P,SW5,2*%
%TO.N,Net-(J6-Pad4)*%
X151915000Y22915000D03*
%TO.P,SW5,1*%
%TO.N,Net-(J7-Pad3)*%
X145415000Y18415000D03*
%TO.P,SW5,2*%
%TO.N,Net-(J6-Pad4)*%
X145415000Y22915000D03*
%TD*%
%TO.P,SW6,2*%
%TO.N,Net-(J6-Pad4)*%
X145415000Y12120000D03*
%TO.P,SW6,1*%
%TO.N,Net-(J7-Pad2)*%
X145415000Y7620000D03*
%TO.P,SW6,2*%
%TO.N,Net-(J6-Pad4)*%
X151915000Y12120000D03*
%TO.P,SW6,1*%
%TO.N,Net-(J7-Pad2)*%
X151915000Y7620000D03*
%TD*%
D14*
%TO.P,J2,1*%
%TO.N,Net-(J2-Pad1)*%
X92075000Y70485000D03*
D13*
%TO.P,J2,2*%
%TO.N,+5V*%
X92075000Y67945000D03*
%TO.P,J2,3*%
%TO.N,Net-(J2-Pad3)*%
X89535000Y70485000D03*
%TO.P,J2,4*%
%TO.N,Net-(J2-Pad4)*%
X89535000Y67945000D03*
%TO.P,J2,5*%
%TO.N,/RST*%
X86995000Y70485000D03*
%TO.P,J2,6*%
%TO.N,GND*%
X86995000Y67945000D03*
%TD*%
D12*
%TO.P,SW4,1*%
%TO.N,Net-(J7-Pad4)*%
X151915000Y29210000D03*
%TO.P,SW4,2*%
%TO.N,Net-(J6-Pad4)*%
X151915000Y33710000D03*
%TO.P,SW4,1*%
%TO.N,Net-(J7-Pad4)*%
X145415000Y29210000D03*
%TO.P,SW4,2*%
%TO.N,Net-(J6-Pad4)*%
X145415000Y33710000D03*
%TD*%
%TO.P,SW3,2*%
%TO.N,Net-(J6-Pad4)*%
X145415000Y44505000D03*
%TO.P,SW3,1*%
%TO.N,Net-(J6-Pad3)*%
X145415000Y40005000D03*
%TO.P,SW3,2*%
%TO.N,Net-(J6-Pad4)*%
X151915000Y44505000D03*
%TO.P,SW3,1*%
%TO.N,Net-(J6-Pad3)*%
X151915000Y40005000D03*
%TD*%
%TO.P,SW2,1*%
%TO.N,Net-(J6-Pad2)*%
X151915000Y50800000D03*
%TO.P,SW2,2*%
%TO.N,Net-(J6-Pad4)*%
X151915000Y55300000D03*
%TO.P,SW2,1*%
%TO.N,Net-(J6-Pad2)*%
X145415000Y50800000D03*
%TO.P,SW2,2*%
%TO.N,Net-(J6-Pad4)*%
X145415000Y55300000D03*
%TD*%
%TO.P,SW1,2*%
%TO.N,Net-(J6-Pad4)*%
X145415000Y66095000D03*
%TO.P,SW1,1*%
%TO.N,Net-(J6-Pad1)*%
X145415000Y61595000D03*
%TO.P,SW1,2*%
%TO.N,Net-(J6-Pad4)*%
X151915000Y66095000D03*
%TO.P,SW1,1*%
%TO.N,Net-(J6-Pad1)*%
X151915000Y61595000D03*
%TD*%
D15*
%TO.P,J1,1*%
%TO.N,Net-(D1-Pad2)*%
X132080000Y50800000D03*
%TO.P,J1,2*%
%TO.N,GND*%
%TA.AperFunction,ComponentPad*%
G36*
G01*
X139580000Y51800000D02*
X139580000Y49800000D01*
G75*
G02*
X138830000Y49050000I-750000J0D01*
G01*
X137330000Y49050000D01*
G75*
G02*
X136580000Y49800000I0J750000D01*
G01*
X136580000Y51800000D01*
G75*
G02*
X137330000Y52550000I750000J0D01*
G01*
X138830000Y52550000D01*
G75*
G02*
X139580000Y51800000I0J-750000D01*
G01*
G37*
%TD.AperFunction*%
%TO.P,J1,3*%
%TA.AperFunction,ComponentPad*%
G36*
G01*
X136830000Y56375000D02*
X136830000Y54625000D01*
G75*
G02*
X135955000Y53750000I-875000J0D01*
G01*
X134205000Y53750000D01*
G75*
G02*
X133330000Y54625000I0J875000D01*
G01*
X133330000Y56375000D01*
G75*
G02*
X134205000Y57250000I875000J0D01*
G01*
X135955000Y57250000D01*
G75*
G02*
X136830000Y56375000I0J-875000D01*
G01*
G37*
%TD.AperFunction*%
%TD*%
D16*
%TO.P,DS1,1*%
%TO.N,GND*%
X68580000Y60960000D03*
D17*
%TO.P,DS1,2*%
%TO.N,+5V*%
X71120000Y60960000D03*
%TO.P,DS1,3*%
%TO.N,Net-(DS1-Pad3)*%
X73660000Y60960000D03*
%TO.P,DS1,4*%
%TO.N,/RS*%
X76200000Y60960000D03*
%TO.P,DS1,5*%
%TO.N,GND*%
X78740000Y60960000D03*
%TO.P,DS1,6*%
%TO.N,/E*%
X81280000Y60960000D03*
%TO.P,DS1,7*%
%TO.N,GND*%
X83820000Y60960000D03*
%TO.P,DS1,8*%
X86360000Y60960000D03*
%TO.P,DS1,9*%
X88900000Y60960000D03*
%TO.P,DS1,10*%
X91440000Y60960000D03*
%TO.P,DS1,11*%
%TO.N,/DB1*%
X93980000Y60960000D03*
%TO.P,DS1,12*%
%TO.N,/DB2*%
X96520000Y60960000D03*
%TO.P,DS1,13*%
%TO.N,/DB3*%
X99060000Y60960000D03*
%TO.P,DS1,14*%
%TO.N,/DB4*%
X101600000Y60960000D03*
%TO.P,DS1,15*%
%TO.N,Net-(DS1-Pad15)*%
X104140000Y60960000D03*
%TO.P,DS1,16*%
%TO.N,GND*%
X106680000Y60960000D03*
D18*
%TO.P,DS1,*%
%TO.N,*%
X63080900Y60960000D03*
X63080900Y29959300D03*
X138079480Y29959300D03*
X138080000Y60960000D03*
%TD*%
D11*
%TO.P,D5,1*%
%TO.N,Net-(D5-Pad1)*%
X34290000Y63500000D03*
D10*
%TO.P,D5,2*%
%TO.N,Net-(D4-Pad2)*%
X36830000Y63500000D03*
%TD*%
D19*
%TO.P,U6,1*%
%TO.N,/A6*%
X40640000Y52705000D03*
D20*
%TO.P,U6,9*%
%TO.N,/D3*%
X48260000Y34925000D03*
%TO.P,U6,2*%
%TO.N,/A5*%
X40640000Y50165000D03*
%TO.P,U6,10*%
%TO.N,/D2*%
X48260000Y37465000D03*
%TO.P,U6,3*%
%TO.N,/A4*%
X40640000Y47625000D03*
%TO.P,U6,11*%
%TO.N,/D1*%
X48260000Y40005000D03*
%TO.P,U6,4*%
%TO.N,/A3*%
X40640000Y45085000D03*
%TO.P,U6,12*%
%TO.N,/D0*%
X48260000Y42545000D03*
%TO.P,U6,5*%
%TO.N,/A0*%
X40640000Y42545000D03*
%TO.P,U6,13*%
%TO.N,/~CS*%
X48260000Y45085000D03*
%TO.P,U6,6*%
%TO.N,/A1*%
X40640000Y40005000D03*
%TO.P,U6,14*%
%TO.N,/A8*%
X48260000Y47625000D03*
%TO.P,U6,7*%
%TO.N,/A2*%
X40640000Y37465000D03*
%TO.P,U6,15*%
%TO.N,/A7*%
X48260000Y50165000D03*
%TO.P,U6,8*%
%TO.N,GND*%
X40640000Y34925000D03*
%TO.P,U6,16*%
%TO.N,/VPP*%
X48260000Y52705000D03*
%TD*%
D19*
%TO.P,U3,1*%
%TO.N,/D0*%
X21590000Y52705000D03*
D20*
%TO.P,U3,9*%
%TO.N,/D7*%
X29210000Y34925000D03*
%TO.P,U3,2*%
%TO.N,/D1*%
X21590000Y50165000D03*
%TO.P,U3,10*%
%TO.N,/A0*%
X29210000Y37465000D03*
%TO.P,U3,3*%
%TO.N,/D2*%
X21590000Y47625000D03*
%TO.P,U3,11*%
%TO.N,/A1*%
X29210000Y40005000D03*
%TO.P,U3,4*%
%TO.N,/D3*%
X21590000Y45085000D03*
%TO.P,U3,12*%
%TO.N,/A2*%
X29210000Y42545000D03*
%TO.P,U3,5*%
%TO.N,/D4*%
X21590000Y42545000D03*
%TO.P,U3,13*%
%TO.N,/A3*%
X29210000Y45085000D03*
%TO.P,U3,6*%
%TO.N,/D5*%
X21590000Y40005000D03*
%TO.P,U3,14*%
%TO.N,/A4*%
X29210000Y47625000D03*
%TO.P,U3,7*%
%TO.N,/D6*%
X21590000Y37465000D03*
%TO.P,U3,15*%
%TO.N,/~CS*%
X29210000Y50165000D03*
%TO.P,U3,8*%
%TO.N,GND*%
X21590000Y34925000D03*
%TO.P,U3,16*%
%TO.N,/VPP*%
X29210000Y52705000D03*
%TD*%
D21*
%TO.N,+5V*%
X88646000Y10795000D03*
%TO.N,GND*%
X33655000Y28575000D03*
X27940000Y20955000D03*
X20320000Y26035000D03*
X15875000Y15875000D03*
X40005000Y3810000D03*
X51435000Y20320000D03*
X46990000Y29210000D03*
X85090000Y46990000D03*
X81280000Y48260000D03*
X80645000Y43815000D03*
X81915000Y38100000D03*
X67945000Y43815000D03*
X65405000Y47625000D03*
X66040000Y36830000D03*
X69850000Y36195000D03*
X72390000Y34290000D03*
X85725000Y16510000D03*
X104775000Y39370000D03*
X9398000Y17526000D03*
%TO.N,/D0*%
X48935200Y8317700D03*
X56211100Y33788800D03*
%TO.N,/D1*%
X45235200Y22115900D03*
%TO.N,/D3*%
X52102800Y30857000D03*
%TO.N,/D4*%
X44409100Y30450900D03*
%TO.N,/D6*%
X34571400Y31740800D03*
X57317900Y32673700D03*
%TO.N,/A8*%
X74539600Y48248300D03*
%TO.N,/A2*%
X51198500Y46270000D03*
X50178100Y39414300D03*
%TO.N,Net-(C1-Pad1)*%
X53200000Y62086600D03*
%TO.N,Net-(J6-Pad2)*%
X148366000Y52705000D03*
%TO.N,Net-(R31-Pad2)*%
X79502000Y49276000D03*
X40259000Y9779000D03*
%TO.N,Net-(R32-Pad2)*%
X78955500Y53003900D03*
X50802300Y9230900D03*
%TD*%
D22*
%TO.N,+5V*%
X100711000Y22860000D02*
X134620000Y22860000D01*
X88646000Y10795000D02*
X100711000Y22860000D01*
%TO.N,GND*%
X69215000Y36830000D02*
X69850000Y36195000D01*
X66040000Y36830000D02*
X69215000Y36830000D01*
%TO.N,/D0*%
X56211100Y33788800D02*
X57255400Y33788800D01*
X57255400Y33788800D02*
X58067500Y32976700D01*
X58067500Y32976700D02*
X58067500Y24967600D01*
X58067500Y24967600D02*
X48935200Y15835300D01*
X48935200Y15835300D02*
X48935200Y8317700D01*
X50087000Y46191500D02*
X50940200Y47044700D01*
X50940200Y47044700D02*
X51500100Y47044700D01*
X51500100Y47044700D02*
X56211100Y42333700D01*
X56211100Y42333700D02*
X56211100Y33788800D01*
X50087000Y46191500D02*
X50087000Y42545000D01*
X48260000Y42545000D02*
X50087000Y42545000D01*
X49923500Y46355000D02*
X50087000Y46191500D01*
X41653000Y51435000D02*
X46733000Y46355000D01*
X46733000Y46355000D02*
X49923500Y46355000D01*
X24687000Y51435000D02*
X41653000Y51435000D01*
X23417000Y52705000D02*
X24687000Y51435000D01*
X21590000Y52705000D02*
X23417000Y52705000D01*
%TO.N,/D1*%
X48227100Y40005000D02*
X52839600Y35392500D01*
X52839600Y35392500D02*
X52839600Y29720300D01*
X52839600Y29720300D02*
X45235200Y22115900D01*
X48260000Y40005000D02*
X48227100Y40005000D01*
X23417000Y50165000D02*
X21590000Y50165000D01*
X27227000Y46355000D02*
X23417000Y50165000D01*
X47719400Y40005000D02*
X41369400Y46355000D01*
X41369400Y46355000D02*
X27227000Y46355000D01*
X48227100Y40005000D02*
X47719400Y40005000D01*
%TO.N,/D2*%
X47719400Y37465000D02*
X48260000Y37465000D01*
X23417000Y47625000D02*
X27227000Y43815000D01*
X41369400Y43815000D02*
X47719400Y37465000D01*
X27227000Y43815000D02*
X41369400Y43815000D01*
X21590000Y47625000D02*
X23417000Y47625000D01*
%TO.N,/D3*%
X51414500Y30857000D02*
X52102800Y30857000D01*
X35820600Y36195000D02*
X46990000Y36195000D01*
X30740600Y41275000D02*
X35820600Y36195000D01*
X48260000Y34011500D02*
X51414500Y30857000D01*
X27227000Y41275000D02*
X30740600Y41275000D01*
X48260000Y34925000D02*
X48260000Y34011500D01*
X23417000Y45085000D02*
X27227000Y41275000D01*
X46990000Y36195000D02*
X48260000Y34925000D01*
X21590000Y45085000D02*
X23417000Y45085000D01*
%TO.N,/D4*%
X21590000Y42545000D02*
X23417000Y42545000D01*
X23417000Y42545000D02*
X27227000Y38735000D01*
X27227000Y38735000D02*
X30000300Y38735000D01*
X30000300Y38735000D02*
X38284400Y30450900D01*
X38284400Y30450900D02*
X44409100Y30450900D01*
%TO.N,/D6*%
X34571400Y31740800D02*
X44961100Y21351100D01*
X44961100Y21351100D02*
X45995300Y21351100D01*
X45995300Y21351100D02*
X57317900Y32673700D01*
X23417000Y37465000D02*
X29141200Y31740800D01*
X29141200Y31740800D02*
X34571400Y31740800D01*
X21590000Y37465000D02*
X23417000Y37465000D01*
%TO.N,/A8*%
X48260000Y47625000D02*
X54597400Y47625000D01*
X54597400Y47625000D02*
X61248500Y40973900D01*
X61248500Y40973900D02*
X67811700Y40973900D01*
X67811700Y40973900D02*
X74539600Y47701800D01*
X74539600Y47701800D02*
X74539600Y48248300D01*
%TO.N,/~CS*%
X32307000Y48895000D02*
X31037000Y50165000D01*
X31037000Y50165000D02*
X29210000Y50165000D01*
X42623000Y48895000D02*
X32307000Y48895000D01*
X46433000Y45085000D02*
X42623000Y48895000D01*
X48260000Y45085000D02*
X46433000Y45085000D01*
%TO.N,/A2*%
X50178100Y39414300D02*
X51198500Y40434700D01*
X51198500Y40434700D02*
X51198500Y46270000D01*
X40640000Y37465000D02*
X36117000Y37465000D01*
X36117000Y37465000D02*
X31037000Y42545000D01*
X29210000Y42545000D02*
X31037000Y42545000D01*
%TO.N,/A4*%
X29210000Y47625000D02*
X40640000Y47625000D01*
%TO.N,Net-(C1-Pad1)*%
X56358600Y58928000D02*
X53200000Y62086600D01*
X76485200Y58928000D02*
X56358600Y58928000D01*
X93503200Y41910000D02*
X76485200Y58928000D01*
X121920000Y41910000D02*
X93503200Y41910000D01*
D23*
%TO.N,Net-(J7-Pad2)*%
X147320000Y2540000D02*
X147320000Y5715000D01*
X147320000Y5715000D02*
X145415000Y7620000D01*
%TO.N,Net-(J7-Pad3)*%
X149860000Y2540000D02*
X149860000Y3742100D01*
X149860000Y3742100D02*
X148336000Y5266100D01*
X148336000Y5266100D02*
X148336000Y17018000D01*
X148336000Y17018000D02*
X146939000Y18415000D01*
X146939000Y18415000D02*
X145415000Y18415000D01*
D22*
%TO.N,Net-(J7-Pad4)*%
X147637500Y26987500D02*
X149692500Y26987500D01*
X149692500Y26987500D02*
X151915000Y29210000D01*
D23*
X147637500Y26987500D02*
X145415000Y29210000D01*
X152400000Y2540000D02*
X151550000Y3390000D01*
X151550000Y3390000D02*
X151550000Y4152000D01*
X151550000Y4152000D02*
X149860000Y5842000D01*
X149860000Y5842000D02*
X149860000Y24765000D01*
X149860000Y24765000D02*
X147637500Y26987500D01*
%TO.N,Net-(J6-Pad3)*%
X149165200Y41469200D02*
X147701000Y40005000D01*
X147701000Y40005000D02*
X145415000Y40005000D01*
X149860000Y71120000D02*
X149860000Y42164000D01*
X149860000Y42164000D02*
X149165200Y41469200D01*
D22*
X151915000Y40005000D02*
X150450800Y41469200D01*
X150450800Y41469200D02*
X149165200Y41469200D01*
D23*
%TO.N,Net-(J6-Pad2)*%
X147320000Y52705000D02*
X145415000Y50800000D01*
X147320000Y71120000D02*
X147320000Y52705000D01*
D22*
X148366000Y52705000D02*
X147320000Y52705000D01*
D23*
%TO.N,Net-(J6-Pad1)*%
X144780000Y71120000D02*
X144780000Y69965000D01*
X144780000Y69965000D02*
X143958000Y69143000D01*
X143958000Y69143000D02*
X143958000Y63052000D01*
X143958000Y63052000D02*
X145415000Y61595000D01*
D22*
%TO.N,Net-(J6-Pad4)*%
X145415000Y55300000D02*
X146748100Y56633100D01*
X146748100Y56633100D02*
X146748100Y64761900D01*
X146748100Y64761900D02*
X145415000Y66095000D01*
X151915000Y33710000D02*
X145415000Y33710000D01*
D23*
X151915000Y33710000D02*
X153635000Y33710000D01*
X153635000Y33710000D02*
X153707000Y33782000D01*
X153707000Y55372000D02*
X153707000Y44450000D01*
X152400000Y71120000D02*
X153707000Y69813000D01*
X153707000Y69813000D02*
X153707000Y66040000D01*
X153707000Y66040000D02*
X153707000Y55372000D01*
X151915000Y66095000D02*
X153652000Y66095000D01*
X153652000Y66095000D02*
X153707000Y66040000D01*
X151915000Y55300000D02*
X153329000Y55300000D01*
X153329000Y55300000D02*
X153401000Y55372000D01*
X153401000Y55372000D02*
X153707000Y55372000D01*
X153707000Y44450000D02*
X153707000Y33782000D01*
X151915000Y44505000D02*
X153652000Y44505000D01*
X153652000Y44505000D02*
X153707000Y44450000D01*
X153707000Y33782000D02*
X153707000Y22860000D01*
X151915000Y22915000D02*
X153329000Y22915000D01*
X153329000Y22915000D02*
X153384000Y22860000D01*
X153384000Y22860000D02*
X153707000Y22860000D01*
X153707000Y22860000D02*
X153707000Y13912200D01*
X153707000Y13912200D02*
X152915000Y13120000D01*
X152915000Y13120000D02*
X151915000Y12120000D01*
D22*
%TO.N,Net-(R31-Pad2)*%
X52070000Y14605000D02*
X52070000Y7493000D01*
X71247000Y41021000D02*
X71247000Y33782000D01*
X51435000Y6858000D02*
X43180000Y6858000D01*
X79502000Y49276000D02*
X71247000Y41021000D01*
X40658999Y9379001D02*
X40259000Y9779000D01*
X43180000Y6858000D02*
X40658999Y9379001D01*
X71247000Y33782000D02*
X52070000Y14605000D01*
X52070000Y7493000D02*
X51435000Y6858000D01*
%TO.N,Net-(R32-Pad2)*%
X50802300Y9230900D02*
X50802300Y13983892D01*
X78955500Y52438215D02*
X78955500Y53003900D01*
X58881400Y31049800D02*
X78955500Y51123900D01*
X58881400Y22062992D02*
X58881400Y31049800D01*
X50802300Y13983892D02*
X58881400Y22062992D01*
X78955500Y51123900D02*
X78955500Y52438215D01*
%TD*%
%TO.N,GND*%
X142113000Y481800D02*
X481800Y481800D01*
X481800Y7065643D01*
X4318200Y7065643D01*
X4318200Y6734357D01*
X4382830Y6409437D01*
X4509608Y6103369D01*
X4693660Y5827915D01*
X4927915Y5593660D01*
X5203369Y5409608D01*
X5509437Y5282830D01*
X5834357Y5218200D01*
X6165643Y5218200D01*
X6490563Y5282830D01*
X6796631Y5409608D01*
X7072085Y5593660D01*
X7306340Y5827915D01*
X7490392Y6103369D01*
X7617170Y6409437D01*
X7681800Y6734357D01*
X7681800Y7065643D01*
X7617170Y7390563D01*
X7490392Y7696631D01*
X7306340Y7972085D01*
X7072085Y8206340D01*
X6796631Y8390392D01*
X6490563Y8517170D01*
X6165643Y8581800D01*
X5834357Y8581800D01*
X5509437Y8517170D01*
X5203369Y8390392D01*
X4927915Y8206340D01*
X4693660Y7972085D01*
X4509608Y7696631D01*
X4382830Y7390563D01*
X4318200Y7065643D01*
X481800Y7065643D01*
X481800Y13981000D01*
X28130111Y13981000D01*
X28130111Y12181000D01*
X28138448Y12096352D01*
X28163139Y12014958D01*
X28203234Y11939944D01*
X28257194Y11874194D01*
X28322944Y11820234D01*
X28397958Y11780139D01*
X28479352Y11755448D01*
X28564000Y11747111D01*
X30364000Y11747111D01*
X30448648Y11755448D01*
X30530042Y11780139D01*
X30605056Y11820234D01*
X30670806Y11874194D01*
X30724766Y11939944D01*
X30764861Y12014958D01*
X30789552Y12096352D01*
X30797889Y12181000D01*
X30797889Y13981000D01*
X32575111Y13981000D01*
X32575111Y12181000D01*
X32583448Y12096352D01*
X32608139Y12014958D01*
X32648234Y11939944D01*
X32702194Y11874194D01*
X32767944Y11820234D01*
X32842958Y11780139D01*
X32924352Y11755448D01*
X33009000Y11747111D01*
X34809000Y11747111D01*
X34893648Y11755448D01*
X34975042Y11780139D01*
X35050056Y11820234D01*
X35115806Y11874194D01*
X35169766Y11939944D01*
X35209861Y12014958D01*
X35234552Y12096352D01*
X35242889Y12181000D01*
X35242889Y13981000D01*
X35234552Y14065648D01*
X35209861Y14147042D01*
X35169766Y14222056D01*
X35115806Y14287806D01*
X35050056Y14341766D01*
X34975042Y14381861D01*
X34893648Y14406552D01*
X34809000Y14414889D01*
X34477352Y14414889D01*
X34539844Y14440774D01*
X34757973Y14586523D01*
X34943477Y14772027D01*
X35089226Y14990156D01*
X35189620Y15232528D01*
X35240800Y15489829D01*
X35240800Y15752171D01*
X35189620Y16009472D01*
X35089226Y16251844D01*
X34943477Y16469973D01*
X34757973Y16655477D01*
X34539844Y16801226D01*
X34297472Y16901620D01*
X34040171Y16952800D01*
X33777829Y16952800D01*
X33520528Y16901620D01*
X33278156Y16801226D01*
X33060027Y16655477D01*
X32874523Y16469973D01*
X32728774Y16251844D01*
X32628380Y16009472D01*
X32577200Y15752171D01*
X32577200Y15489829D01*
X32628380Y15232528D01*
X32728774Y14990156D01*
X32874523Y14772027D01*
X33060027Y14586523D01*
X33278156Y14440774D01*
X33340648Y14414889D01*
X33009000Y14414889D01*
X32924352Y14406552D01*
X32842958Y14381861D01*
X32767944Y14341766D01*
X32702194Y14287806D01*
X32648234Y14222056D01*
X32608139Y14147042D01*
X32583448Y14065648D01*
X32575111Y13981000D01*
X30797889Y13981000D01*
X30789552Y14065648D01*
X30764861Y14147042D01*
X30724766Y14222056D01*
X30670806Y14287806D01*
X30605056Y14341766D01*
X30530042Y14381861D01*
X30448648Y14406552D01*
X30364000Y14414889D01*
X30032352Y14414889D01*
X30094844Y14440774D01*
X30312973Y14586523D01*
X30498477Y14772027D01*
X30644226Y14990156D01*
X30744620Y15232528D01*
X30795800Y15489829D01*
X30795800Y15752171D01*
X30744620Y16009472D01*
X30644226Y16251844D01*
X30498477Y16469973D01*
X30312973Y16655477D01*
X30094844Y16801226D01*
X29852472Y16901620D01*
X29595171Y16952800D01*
X29332829Y16952800D01*
X29075528Y16901620D01*
X28833156Y16801226D01*
X28615027Y16655477D01*
X28429523Y16469973D01*
X28283774Y16251844D01*
X28183380Y16009472D01*
X28132200Y15752171D01*
X28132200Y15489829D01*
X28183380Y15232528D01*
X28283774Y14990156D01*
X28429523Y14772027D01*
X28615027Y14586523D01*
X28833156Y14440774D01*
X28895648Y14414889D01*
X28564000Y14414889D01*
X28479352Y14406552D01*
X28397958Y14381861D01*
X28322944Y14341766D01*
X28257194Y14287806D01*
X28203234Y14222056D01*
X28163139Y14147042D01*
X28138448Y14065648D01*
X28130111Y13981000D01*
X481800Y13981000D01*
X481800Y16936850D01*
X3813200Y16936850D01*
X3813200Y16763150D01*
X3847087Y16592788D01*
X3913559Y16432311D01*
X4010061Y16287885D01*
X4132885Y16165061D01*
X4277311Y16068559D01*
X4437788Y16002087D01*
X4608150Y15968200D01*
X4781850Y15968200D01*
X4952212Y16002087D01*
X5112689Y16068559D01*
X5257115Y16165061D01*
X5379939Y16287885D01*
X5476441Y16432311D01*
X5542913Y16592788D01*
X5576800Y16763150D01*
X5576800Y16936850D01*
X5542913Y17107212D01*
X5476441Y17267689D01*
X5379939Y17412115D01*
X5257115Y17534939D01*
X5112689Y17631441D01*
X4952212Y17697913D01*
X4781850Y17731800D01*
X4608150Y17731800D01*
X4437788Y17697913D01*
X4277311Y17631441D01*
X4132885Y17534939D01*
X4010061Y17412115D01*
X3913559Y17267689D01*
X3847087Y17107212D01*
X3813200Y16936850D01*
X481800Y16936850D01*
X481800Y21336850D01*
X3813200Y21336850D01*
X3813200Y21163150D01*
X3847087Y20992788D01*
X3913559Y20832311D01*
X4010061Y20687885D01*
X4132885Y20565061D01*
X4277311Y20468559D01*
X4437788Y20402087D01*
X4608150Y20368200D01*
X4781850Y20368200D01*
X4952212Y20402087D01*
X5112689Y20468559D01*
X5257115Y20565061D01*
X5379939Y20687885D01*
X5476441Y20832311D01*
X5542913Y20992788D01*
X5576800Y21163150D01*
X5576800Y21336850D01*
X5542913Y21507212D01*
X5476441Y21667689D01*
X5379939Y21812115D01*
X5257115Y21934939D01*
X5112689Y22031441D01*
X4952212Y22097913D01*
X4781850Y22131800D01*
X4608150Y22131800D01*
X4437788Y22097913D01*
X4277311Y22031441D01*
X4132885Y21934939D01*
X4010061Y21812115D01*
X3913559Y21667689D01*
X3847087Y21507212D01*
X3813200Y21336850D01*
X481800Y21336850D01*
X481800Y34707258D01*
X19977598Y34707258D01*
X20042245Y34477077D01*
X20151684Y34261768D01*
X20301025Y34071946D01*
X20484529Y33914907D01*
X20695144Y33796685D01*
X20924776Y33721824D01*
X21164600Y33693200D01*
X21564600Y33693200D01*
X21564600Y34899600D01*
X21615400Y34899600D01*
X21615400Y33693200D01*
X22015400Y33693200D01*
X22255224Y33721824D01*
X22484856Y33796685D01*
X22695471Y33914907D01*
X22878975Y34071946D01*
X23028316Y34261768D01*
X23137755Y34477077D01*
X23202402Y34707258D01*
X23113563Y34899600D01*
X21615400Y34899600D01*
X21564600Y34899600D01*
X20066437Y34899600D01*
X19977598Y34707258D01*
X481800Y34707258D01*
X481800Y35142742D01*
X19977598Y35142742D01*
X20066437Y34950400D01*
X21564600Y34950400D01*
X21564600Y36156800D01*
X21615400Y36156800D01*
X21615400Y34950400D01*
X23113563Y34950400D01*
X23202402Y35142742D01*
X23137755Y35372923D01*
X23028316Y35588232D01*
X22878975Y35778054D01*
X22695471Y35935093D01*
X22484856Y36053315D01*
X22255224Y36128176D01*
X22015400Y36156800D01*
X21615400Y36156800D01*
X21564600Y36156800D01*
X21164600Y36156800D01*
X20924776Y36128176D01*
X20695144Y36053315D01*
X20484529Y35935093D01*
X20301025Y35778054D01*
X20151684Y35588232D01*
X20042245Y35372923D01*
X19977598Y35142742D01*
X481800Y35142742D01*
X481800Y40005000D01*
X19952240Y40005000D01*
X19976023Y39763525D01*
X20046459Y39531330D01*
X20160840Y39317337D01*
X20314772Y39129772D01*
X20502337Y38975840D01*
X20716330Y38861459D01*
X20948525Y38791023D01*
X21129487Y38773200D01*
X22050513Y38773200D01*
X22231475Y38791023D01*
X22463670Y38861459D01*
X22677663Y38975840D01*
X22865228Y39129772D01*
X23019160Y39317337D01*
X23133541Y39531330D01*
X23203977Y39763525D01*
X23227760Y40005000D01*
X23203977Y40246475D01*
X23133541Y40478670D01*
X23019160Y40692663D01*
X22865228Y40880228D01*
X22677663Y41034160D01*
X22463670Y41148541D01*
X22231475Y41218977D01*
X22050513Y41236800D01*
X21129487Y41236800D01*
X20948525Y41218977D01*
X20716330Y41148541D01*
X20502337Y41034160D01*
X20314772Y40880228D01*
X20160840Y40692663D01*
X20046459Y40478670D01*
X19976023Y40246475D01*
X19952240Y40005000D01*
X481800Y40005000D01*
X481800Y50165000D01*
X19952240Y50165000D01*
X19976023Y49923525D01*
X20046459Y49691330D01*
X20160840Y49477337D01*
X20314772Y49289772D01*
X20502337Y49135840D01*
X20716330Y49021459D01*
X20948525Y48951023D01*
X21129487Y48933200D01*
X22050513Y48933200D01*
X22231475Y48951023D01*
X22463670Y49021459D01*
X22677663Y49135840D01*
X22865228Y49289772D01*
X23019160Y49477337D01*
X23088038Y49606200D01*
X23185538Y49606200D01*
X26812462Y45979275D01*
X26829957Y45957957D01*
X26851274Y45940463D01*
X26915045Y45888127D01*
X27012122Y45836239D01*
X27117455Y45804286D01*
X27227000Y45793497D01*
X27254444Y45796200D01*
X27800156Y45796200D01*
X27780840Y45772663D01*
X27666459Y45558670D01*
X27596023Y45326475D01*
X27572240Y45085000D01*
X27596023Y44843525D01*
X27666459Y44611330D01*
X27780840Y44397337D01*
X27800156Y44373800D01*
X27458463Y44373800D01*
X23831543Y48000719D01*
X23814043Y48022043D01*
X23728954Y48091873D01*
X23631878Y48143761D01*
X23526544Y48175714D01*
X23444444Y48183800D01*
X23444442Y48183800D01*
X23417000Y48186503D01*
X23389558Y48183800D01*
X23088038Y48183800D01*
X23019160Y48312663D01*
X22865228Y48500228D01*
X22677663Y48654160D01*
X22463670Y48768541D01*
X22231475Y48838977D01*
X22050513Y48856800D01*
X21129487Y48856800D01*
X20948525Y48838977D01*
X20716330Y48768541D01*
X20502337Y48654160D01*
X20314772Y48500228D01*
X20160840Y48312663D01*
X20046459Y48098670D01*
X19976023Y47866475D01*
X19952240Y47625000D01*
X19976023Y47383525D01*
X20046459Y47151330D01*
X20160840Y46937337D01*
X20314772Y46749772D01*
X20502337Y46595840D01*
X20716330Y46481459D01*
X20948525Y46411023D01*
X21129487Y46393200D01*
X22050513Y46393200D01*
X22231475Y46411023D01*
X22463670Y46481459D01*
X22677663Y46595840D01*
X22865228Y46749772D01*
X23019160Y46937337D01*
X23088038Y47066200D01*
X23185538Y47066200D01*
X26812462Y43439275D01*
X26829957Y43417957D01*
X26851274Y43400463D01*
X26915045Y43348127D01*
X27012122Y43296239D01*
X27117455Y43264286D01*
X27227000Y43253497D01*
X27254444Y43256200D01*
X27800156Y43256200D01*
X27780840Y43232663D01*
X27666459Y43018670D01*
X27596023Y42786475D01*
X27572240Y42545000D01*
X27596023Y42303525D01*
X27666459Y42071330D01*
X27780840Y41857337D01*
X27800156Y41833800D01*
X27458463Y41833800D01*
X23831543Y45460719D01*
X23814043Y45482043D01*
X23728954Y45551873D01*
X23631878Y45603761D01*
X23526544Y45635714D01*
X23444444Y45643800D01*
X23444442Y45643800D01*
X23417000Y45646503D01*
X23389558Y45643800D01*
X23088038Y45643800D01*
X23019160Y45772663D01*
X22865228Y45960228D01*
X22677663Y46114160D01*
X22463670Y46228541D01*
X22231475Y46298977D01*
X22050513Y46316800D01*
X21129487Y46316800D01*
X20948525Y46298977D01*
X20716330Y46228541D01*
X20502337Y46114160D01*
X20314772Y45960228D01*
X20160840Y45772663D01*
X20046459Y45558670D01*
X19976023Y45326475D01*
X19952240Y45085000D01*
X19976023Y44843525D01*
X20046459Y44611330D01*
X20160840Y44397337D01*
X20314772Y44209772D01*
X20502337Y44055840D01*
X20716330Y43941459D01*
X20948525Y43871023D01*
X21129487Y43853200D01*
X22050513Y43853200D01*
X22231475Y43871023D01*
X22463670Y43941459D01*
X22677663Y44055840D01*
X22865228Y44209772D01*
X23019160Y44397337D01*
X23088038Y44526200D01*
X23185538Y44526200D01*
X26812462Y40899275D01*
X26829957Y40877957D01*
X26851274Y40860463D01*
X26915045Y40808127D01*
X27012122Y40756239D01*
X27117455Y40724286D01*
X27227000Y40713497D01*
X27254444Y40716200D01*
X27800156Y40716200D01*
X27780840Y40692663D01*
X27666459Y40478670D01*
X27596023Y40246475D01*
X27572240Y40005000D01*
X27596023Y39763525D01*
X27666459Y39531330D01*
X27780840Y39317337D01*
X27800156Y39293800D01*
X27458463Y39293800D01*
X23831543Y42920719D01*
X23814043Y42942043D01*
X23728954Y43011873D01*
X23631878Y43063761D01*
X23526544Y43095714D01*
X23444444Y43103800D01*
X23444442Y43103800D01*
X23417000Y43106503D01*
X23389558Y43103800D01*
X23088038Y43103800D01*
X23019160Y43232663D01*
X22865228Y43420228D01*
X22677663Y43574160D01*
X22463670Y43688541D01*
X22231475Y43758977D01*
X22050513Y43776800D01*
X21129487Y43776800D01*
X20948525Y43758977D01*
X20716330Y43688541D01*
X20502337Y43574160D01*
X20314772Y43420228D01*
X20160840Y43232663D01*
X20046459Y43018670D01*
X19976023Y42786475D01*
X19952240Y42545000D01*
X19976023Y42303525D01*
X20046459Y42071330D01*
X20160840Y41857337D01*
X20314772Y41669772D01*
X20502337Y41515840D01*
X20716330Y41401459D01*
X20948525Y41331023D01*
X21129487Y41313200D01*
X22050513Y41313200D01*
X22231475Y41331023D01*
X22463670Y41401459D01*
X22677663Y41515840D01*
X22865228Y41669772D01*
X23019160Y41857337D01*
X23088038Y41986200D01*
X23185538Y41986200D01*
X26812462Y38359275D01*
X26829957Y38337957D01*
X26851274Y38320463D01*
X26915045Y38268127D01*
X27012122Y38216239D01*
X27117455Y38184286D01*
X27227000Y38173497D01*
X27254444Y38176200D01*
X27800156Y38176200D01*
X27780840Y38152663D01*
X27666459Y37938670D01*
X27596023Y37706475D01*
X27572240Y37465000D01*
X27596023Y37223525D01*
X27666459Y36991330D01*
X27780840Y36777337D01*
X27934772Y36589772D01*
X28122337Y36435840D01*
X28336330Y36321459D01*
X28568525Y36251023D01*
X28749487Y36233200D01*
X29670513Y36233200D01*
X29851475Y36251023D01*
X30083670Y36321459D01*
X30297663Y36435840D01*
X30485228Y36589772D01*
X30639160Y36777337D01*
X30753541Y36991330D01*
X30800129Y37144909D01*
X37869862Y30075175D01*
X37887357Y30053857D01*
X37908674Y30036363D01*
X37972446Y29984027D01*
X38069522Y29932139D01*
X38174856Y29900186D01*
X38284400Y29889397D01*
X38311844Y29892100D01*
X43791557Y29892100D01*
X43878858Y29804799D01*
X44015095Y29713768D01*
X44166473Y29651065D01*
X44327175Y29619100D01*
X44491025Y29619100D01*
X44651727Y29651065D01*
X44803105Y29713768D01*
X44939342Y29804799D01*
X45055201Y29920658D01*
X45146232Y30056895D01*
X45208935Y30208273D01*
X45240900Y30368975D01*
X45240900Y30532825D01*
X45208935Y30693527D01*
X45146232Y30844905D01*
X45055201Y30981142D01*
X44939342Y31097001D01*
X44803105Y31188032D01*
X44651727Y31250735D01*
X44491025Y31282700D01*
X44327175Y31282700D01*
X44166473Y31250735D01*
X44015095Y31188032D01*
X43878858Y31097001D01*
X43791557Y31009700D01*
X38515863Y31009700D01*
X34818305Y34707258D01*
X39027598Y34707258D01*
X39092245Y34477077D01*
X39201684Y34261768D01*
X39351025Y34071946D01*
X39534529Y33914907D01*
X39745144Y33796685D01*
X39974776Y33721824D01*
X40214600Y33693200D01*
X40614600Y33693200D01*
X40614600Y34899600D01*
X40665400Y34899600D01*
X40665400Y33693200D01*
X41065400Y33693200D01*
X41305224Y33721824D01*
X41534856Y33796685D01*
X41745471Y33914907D01*
X41928975Y34071946D01*
X42078316Y34261768D01*
X42187755Y34477077D01*
X42252402Y34707258D01*
X42163563Y34899600D01*
X40665400Y34899600D01*
X40614600Y34899600D01*
X39116437Y34899600D01*
X39027598Y34707258D01*
X34818305Y34707258D01*
X30436105Y39089457D01*
X30485228Y39129772D01*
X30639160Y39317337D01*
X30753541Y39531330D01*
X30823977Y39763525D01*
X30847760Y40005000D01*
X30823977Y40246475D01*
X30756534Y40468804D01*
X35406062Y35819275D01*
X35423557Y35797957D01*
X35508646Y35728127D01*
X35605722Y35676239D01*
X35711056Y35644286D01*
X35793156Y35636200D01*
X35793158Y35636200D01*
X35820600Y35633497D01*
X35848042Y35636200D01*
X39239422Y35636200D01*
X39201684Y35588232D01*
X39092245Y35372923D01*
X39027598Y35142742D01*
X39116437Y34950400D01*
X40614600Y34950400D01*
X40614600Y34970400D01*
X40665400Y34970400D01*
X40665400Y34950400D01*
X42163563Y34950400D01*
X42252402Y35142742D01*
X42187755Y35372923D01*
X42078316Y35588232D01*
X42040578Y35636200D01*
X46758538Y35636200D01*
X46813854Y35580884D01*
X46716459Y35398670D01*
X46646023Y35166475D01*
X46622240Y34925000D01*
X46646023Y34683525D01*
X46716459Y34451330D01*
X46830840Y34237337D01*
X46984772Y34049772D01*
X47172337Y33895840D01*
X47386330Y33781459D01*
X47618525Y33711023D01*
X47798235Y33693323D01*
X47862958Y33614457D01*
X47884276Y33596962D01*
X50999962Y30481275D01*
X51017457Y30459957D01*
X51038774Y30442463D01*
X51102545Y30390127D01*
X51199622Y30338239D01*
X51304955Y30306286D01*
X51414500Y30295497D01*
X51441944Y30298200D01*
X51485257Y30298200D01*
X51572558Y30210899D01*
X51708795Y30119868D01*
X51860173Y30057165D01*
X52020875Y30025200D01*
X52184725Y30025200D01*
X52280801Y30044310D01*
X52280801Y29951764D01*
X45276738Y22947700D01*
X45153275Y22947700D01*
X44992573Y22915735D01*
X44841195Y22853032D01*
X44704958Y22762001D01*
X44589099Y22646142D01*
X44535915Y22566547D01*
X35403200Y31699262D01*
X35403200Y31822725D01*
X35371235Y31983427D01*
X35308532Y32134805D01*
X35217501Y32271042D01*
X35101642Y32386901D01*
X34965405Y32477932D01*
X34814027Y32540635D01*
X34653325Y32572600D01*
X34489475Y32572600D01*
X34328773Y32540635D01*
X34177395Y32477932D01*
X34041158Y32386901D01*
X33953857Y32299600D01*
X29372662Y32299600D01*
X26747262Y34925000D01*
X27572240Y34925000D01*
X27596023Y34683525D01*
X27666459Y34451330D01*
X27780840Y34237337D01*
X27934772Y34049772D01*
X28122337Y33895840D01*
X28336330Y33781459D01*
X28568525Y33711023D01*
X28749487Y33693200D01*
X29670513Y33693200D01*
X29851475Y33711023D01*
X30083670Y33781459D01*
X30297663Y33895840D01*
X30485228Y34049772D01*
X30639160Y34237337D01*
X30753541Y34451330D01*
X30823977Y34683525D01*
X30847760Y34925000D01*
X30823977Y35166475D01*
X30753541Y35398670D01*
X30639160Y35612663D01*
X30485228Y35800228D01*
X30297663Y35954160D01*
X30083670Y36068541D01*
X29851475Y36138977D01*
X29670513Y36156800D01*
X28749487Y36156800D01*
X28568525Y36138977D01*
X28336330Y36068541D01*
X28122337Y35954160D01*
X27934772Y35800228D01*
X27780840Y35612663D01*
X27666459Y35398670D01*
X27596023Y35166475D01*
X27572240Y34925000D01*
X26747262Y34925000D01*
X23831543Y37840719D01*
X23814043Y37862043D01*
X23728954Y37931873D01*
X23631878Y37983761D01*
X23526544Y38015714D01*
X23444444Y38023800D01*
X23444442Y38023800D01*
X23417000Y38026503D01*
X23389558Y38023800D01*
X23088038Y38023800D01*
X23019160Y38152663D01*
X22865228Y38340228D01*
X22677663Y38494160D01*
X22463670Y38608541D01*
X22231475Y38678977D01*
X22050513Y38696800D01*
X21129487Y38696800D01*
X20948525Y38678977D01*
X20716330Y38608541D01*
X20502337Y38494160D01*
X20314772Y38340228D01*
X20160840Y38152663D01*
X20046459Y37938670D01*
X19976023Y37706475D01*
X19952240Y37465000D01*
X19976023Y37223525D01*
X20046459Y36991330D01*
X20160840Y36777337D01*
X20314772Y36589772D01*
X20502337Y36435840D01*
X20716330Y36321459D01*
X20948525Y36251023D01*
X21129487Y36233200D01*
X22050513Y36233200D01*
X22231475Y36251023D01*
X22463670Y36321459D01*
X22677663Y36435840D01*
X22865228Y36589772D01*
X23019160Y36777337D01*
X23088038Y36906200D01*
X23185538Y36906200D01*
X28726657Y31365081D01*
X28744157Y31343757D01*
X28829246Y31273927D01*
X28926322Y31222039D01*
X29031656Y31190086D01*
X29113756Y31182000D01*
X29113757Y31182000D01*
X29141199Y31179297D01*
X29168641Y31182000D01*
X33953857Y31182000D01*
X34041158Y31094699D01*
X34177395Y31003668D01*
X34328773Y30940965D01*
X34489475Y30909000D01*
X34612938Y30909000D01*
X44546562Y20975375D01*
X44564057Y20954057D01*
X44585374Y20936563D01*
X44649145Y20884227D01*
X44746222Y20832339D01*
X44851555Y20800386D01*
X44961100Y20789597D01*
X44988544Y20792300D01*
X45967858Y20792300D01*
X45995300Y20789597D01*
X46022742Y20792300D01*
X46022744Y20792300D01*
X46104844Y20800386D01*
X46210178Y20832339D01*
X46307254Y20884227D01*
X46392343Y20954057D01*
X46409843Y20975381D01*
X57276362Y31841900D01*
X57399825Y31841900D01*
X57508700Y31863556D01*
X57508701Y25199064D01*
X48559481Y16249843D01*
X48538157Y16232343D01*
X48468327Y16147254D01*
X48416439Y16050177D01*
X48384486Y15944843D01*
X48376400Y15862744D01*
X48373697Y15835300D01*
X48376400Y15807858D01*
X48376401Y8935244D01*
X48289099Y8847942D01*
X48198068Y8711705D01*
X48135365Y8560327D01*
X48103400Y8399625D01*
X48103400Y8235775D01*
X48135365Y8075073D01*
X48198068Y7923695D01*
X48289099Y7787458D01*
X48404958Y7671599D01*
X48541195Y7580568D01*
X48692573Y7517865D01*
X48853275Y7485900D01*
X49017125Y7485900D01*
X49177827Y7517865D01*
X49329205Y7580568D01*
X49465442Y7671599D01*
X49581301Y7787458D01*
X49672332Y7923695D01*
X49735035Y8075073D01*
X49767000Y8235775D01*
X49767000Y8399625D01*
X49735035Y8560327D01*
X49672332Y8711705D01*
X49581301Y8847942D01*
X49494000Y8935243D01*
X49494000Y15603838D01*
X58322600Y24432437D01*
X58322600Y22294455D01*
X50426576Y14398430D01*
X50405258Y14380935D01*
X50387763Y14359617D01*
X50335428Y14295846D01*
X50283539Y14198769D01*
X50251587Y14093436D01*
X50240797Y13983892D01*
X50243501Y13956440D01*
X50243500Y9848443D01*
X50156199Y9761142D01*
X50065168Y9624905D01*
X50002465Y9473527D01*
X49970500Y9312825D01*
X49970500Y9148975D01*
X50002465Y8988273D01*
X50065168Y8836895D01*
X50156199Y8700658D01*
X50272058Y8584799D01*
X50408295Y8493768D01*
X50559673Y8431065D01*
X50720375Y8399100D01*
X50884225Y8399100D01*
X51044927Y8431065D01*
X51196305Y8493768D01*
X51332542Y8584799D01*
X51448401Y8700658D01*
X51511201Y8794644D01*
X51511201Y7724464D01*
X51203538Y7416800D01*
X43411463Y7416800D01*
X41090800Y9737462D01*
X41090800Y9860925D01*
X41058835Y10021627D01*
X40996132Y10173005D01*
X40905101Y10309242D01*
X40789242Y10425101D01*
X40653005Y10516132D01*
X40501627Y10578835D01*
X40340925Y10610800D01*
X40177075Y10610800D01*
X40016373Y10578835D01*
X39864995Y10516132D01*
X39728758Y10425101D01*
X39612899Y10309242D01*
X39521868Y10173005D01*
X39459165Y10021627D01*
X39427200Y9860925D01*
X39427200Y9697075D01*
X39459165Y9536373D01*
X39521868Y9384995D01*
X39612899Y9248758D01*
X39728758Y9132899D01*
X39864995Y9041868D01*
X40016373Y8979165D01*
X40177075Y8947200D01*
X40300538Y8947200D01*
X42765462Y6482275D01*
X42782957Y6460957D01*
X42804274Y6443463D01*
X42868045Y6391127D01*
X42965122Y6339239D01*
X43070456Y6307286D01*
X43152556Y6299200D01*
X43152558Y6299200D01*
X43180000Y6296497D01*
X43207442Y6299200D01*
X51407558Y6299200D01*
X51435000Y6296497D01*
X51462442Y6299200D01*
X51462444Y6299200D01*
X51544544Y6307286D01*
X51649878Y6339239D01*
X51746954Y6391127D01*
X51832043Y6460957D01*
X51849543Y6482281D01*
X52432905Y7065643D01*
X135318200Y7065643D01*
X135318200Y6734357D01*
X135382830Y6409437D01*
X135509608Y6103369D01*
X135693660Y5827915D01*
X135927915Y5593660D01*
X136203369Y5409608D01*
X136509437Y5282830D01*
X136834357Y5218200D01*
X137165643Y5218200D01*
X137490563Y5282830D01*
X137796631Y5409608D01*
X138072085Y5593660D01*
X138306340Y5827915D01*
X138490392Y6103369D01*
X138617170Y6409437D01*
X138681800Y6734357D01*
X138681800Y7065643D01*
X138617170Y7390563D01*
X138490392Y7696631D01*
X138306340Y7972085D01*
X138072085Y8206340D01*
X137796631Y8390392D01*
X137490563Y8517170D01*
X137165643Y8581800D01*
X136834357Y8581800D01*
X136509437Y8517170D01*
X136203369Y8390392D01*
X135927915Y8206340D01*
X135693660Y7972085D01*
X135509608Y7696631D01*
X135382830Y7390563D01*
X135318200Y7065643D01*
X52432905Y7065643D01*
X52445724Y7078461D01*
X52467043Y7095957D01*
X52495798Y7130995D01*
X52536873Y7181045D01*
X52588761Y7278122D01*
X52620714Y7383455D01*
X52631503Y7493000D01*
X52628800Y7520444D01*
X52628800Y10876925D01*
X87814200Y10876925D01*
X87814200Y10713075D01*
X87846165Y10552373D01*
X87908868Y10400995D01*
X87999899Y10264758D01*
X88115758Y10148899D01*
X88251995Y10057868D01*
X88403373Y9995165D01*
X88564075Y9963200D01*
X88727925Y9963200D01*
X88888627Y9995165D01*
X89040005Y10057868D01*
X89176242Y10148899D01*
X89292101Y10264758D01*
X89383132Y10400995D01*
X89445835Y10552373D01*
X89477800Y10713075D01*
X89477800Y10836538D01*
X100942463Y22301200D01*
X133336111Y22301200D01*
X133336111Y22010000D01*
X133344448Y21925352D01*
X133369139Y21843958D01*
X133409234Y21768944D01*
X133463194Y21703194D01*
X133528944Y21649234D01*
X133603958Y21609139D01*
X133685352Y21584448D01*
X133770000Y21576111D01*
X134364607Y21576111D01*
X134246113Y21552541D01*
X134012840Y21455916D01*
X133802900Y21315639D01*
X133624361Y21137100D01*
X133484084Y20927160D01*
X133387459Y20693887D01*
X133338200Y20446246D01*
X133338200Y20193754D01*
X133387459Y19946113D01*
X133484084Y19712840D01*
X133624361Y19502900D01*
X133802900Y19324361D01*
X134012840Y19184084D01*
X134246113Y19087459D01*
X134434432Y19050000D01*
X134246113Y19012541D01*
X134012840Y18915916D01*
X133802900Y18775639D01*
X133624361Y18597100D01*
X133484084Y18387160D01*
X133387459Y18153887D01*
X133338200Y17906246D01*
X133338200Y17653754D01*
X133387459Y17406113D01*
X133484084Y17172840D01*
X133624361Y16962900D01*
X133802900Y16784361D01*
X134012840Y16644084D01*
X134246113Y16547459D01*
X134434432Y16510000D01*
X134246113Y16472541D01*
X134012840Y16375916D01*
X133802900Y16235639D01*
X133624361Y16057100D01*
X133484084Y15847160D01*
X133387459Y15613887D01*
X133338200Y15366246D01*
X133338200Y15113754D01*
X133387459Y14866113D01*
X133484084Y14632840D01*
X133624361Y14422900D01*
X133802900Y14244361D01*
X134012840Y14104084D01*
X134246113Y14007459D01*
X134493754Y13958200D01*
X134746246Y13958200D01*
X134993887Y14007459D01*
X135227160Y14104084D01*
X135437100Y14244361D01*
X135615639Y14422900D01*
X135755916Y14632840D01*
X135852541Y14866113D01*
X135901800Y15113754D01*
X135901800Y15366246D01*
X135852541Y15613887D01*
X135755916Y15847160D01*
X135615639Y16057100D01*
X135437100Y16235639D01*
X135227160Y16375916D01*
X134993887Y16472541D01*
X134805568Y16510000D01*
X134993887Y16547459D01*
X135227160Y16644084D01*
X135437100Y16784361D01*
X135615639Y16962900D01*
X135755916Y17172840D01*
X135852541Y17406113D01*
X135901800Y17653754D01*
X135901800Y17906246D01*
X135852541Y18153887D01*
X135755916Y18387160D01*
X135615639Y18597100D01*
X135437100Y18775639D01*
X135227160Y18915916D01*
X134993887Y19012541D01*
X134805568Y19050000D01*
X134993887Y19087459D01*
X135227160Y19184084D01*
X135437100Y19324361D01*
X135615639Y19502900D01*
X135755916Y19712840D01*
X135852541Y19946113D01*
X135901800Y20193754D01*
X135901800Y20446246D01*
X135852541Y20693887D01*
X135755916Y20927160D01*
X135615639Y21137100D01*
X135437100Y21315639D01*
X135227160Y21455916D01*
X134993887Y21552541D01*
X134875393Y21576111D01*
X135470000Y21576111D01*
X135554648Y21584448D01*
X135636042Y21609139D01*
X135711056Y21649234D01*
X135776806Y21703194D01*
X135830766Y21768944D01*
X135870861Y21843958D01*
X135895552Y21925352D01*
X135903889Y22010000D01*
X135903889Y23710000D01*
X135895552Y23794648D01*
X135870861Y23876042D01*
X135830766Y23951056D01*
X135776806Y24016806D01*
X135711056Y24070766D01*
X135636042Y24110861D01*
X135554648Y24135552D01*
X135470000Y24143889D01*
X133770000Y24143889D01*
X133685352Y24135552D01*
X133603958Y24110861D01*
X133528944Y24070766D01*
X133463194Y24016806D01*
X133409234Y23951056D01*
X133369139Y23876042D01*
X133344448Y23794648D01*
X133336111Y23710000D01*
X133336111Y23418800D01*
X100738444Y23418800D01*
X100711000Y23421503D01*
X100601455Y23410714D01*
X100496122Y23378761D01*
X100399045Y23326873D01*
X100348995Y23285798D01*
X100313957Y23257043D01*
X100296462Y23235725D01*
X88687538Y11626800D01*
X88564075Y11626800D01*
X88403373Y11594835D01*
X88251995Y11532132D01*
X88115758Y11441101D01*
X87999899Y11325242D01*
X87908868Y11189005D01*
X87846165Y11037627D01*
X87814200Y10876925D01*
X52628800Y10876925D01*
X52628800Y14373538D01*
X53269696Y15014434D01*
X64778203Y15014434D01*
X64787931Y14965527D01*
X64865536Y14726534D01*
X64988275Y14507273D01*
X65151431Y14316171D01*
X65348735Y14160571D01*
X65572604Y14046453D01*
X65814434Y13978202D01*
X66014600Y14066401D01*
X66014600Y15214600D01*
X66065400Y15214600D01*
X66065400Y14066401D01*
X66265566Y13978202D01*
X66507396Y14046453D01*
X66731265Y14160571D01*
X66928569Y14316171D01*
X67091725Y14507273D01*
X67214464Y14726534D01*
X67292069Y14965527D01*
X67301797Y15014434D01*
X67213575Y15214600D01*
X66065400Y15214600D01*
X66014600Y15214600D01*
X64866425Y15214600D01*
X64778203Y15014434D01*
X53269696Y15014434D01*
X61965262Y23710000D01*
X64756111Y23710000D01*
X64756111Y22010000D01*
X64764448Y21925352D01*
X64789139Y21843958D01*
X64829234Y21768944D01*
X64883194Y21703194D01*
X64948944Y21649234D01*
X65023958Y21609139D01*
X65105352Y21584448D01*
X65190000Y21576111D01*
X65784607Y21576111D01*
X65666113Y21552541D01*
X65432840Y21455916D01*
X65222900Y21315639D01*
X65044361Y21137100D01*
X64904084Y20927160D01*
X64807459Y20693887D01*
X64758200Y20446246D01*
X64758200Y20193754D01*
X64807459Y19946113D01*
X64904084Y19712840D01*
X65044361Y19502900D01*
X65222900Y19324361D01*
X65432840Y19184084D01*
X65666113Y19087459D01*
X65854432Y19050000D01*
X65666113Y19012541D01*
X65432840Y18915916D01*
X65222900Y18775639D01*
X65044361Y18597100D01*
X64904084Y18387160D01*
X64807459Y18153887D01*
X64758200Y17906246D01*
X64758200Y17653754D01*
X64807459Y17406113D01*
X64904084Y17172840D01*
X65044361Y16962900D01*
X65222900Y16784361D01*
X65432840Y16644084D01*
X65666113Y16547459D01*
X65913754Y16498200D01*
X66014598Y16498200D01*
X66014598Y16413600D01*
X65814434Y16501798D01*
X65572604Y16433547D01*
X65348735Y16319429D01*
X65151431Y16163829D01*
X64988275Y15972727D01*
X64865536Y15753466D01*
X64787931Y15514473D01*
X64778203Y15465566D01*
X64866425Y15265400D01*
X66014600Y15265400D01*
X66014600Y15285400D01*
X66065400Y15285400D01*
X66065400Y15265400D01*
X67213575Y15265400D01*
X67301797Y15465566D01*
X67292069Y15514473D01*
X67214464Y15753466D01*
X67091725Y15972727D01*
X66928569Y16163829D01*
X66731265Y16319429D01*
X66507396Y16433547D01*
X66265566Y16501798D01*
X66065402Y16413600D01*
X66065402Y16498200D01*
X66166246Y16498200D01*
X66413887Y16547459D01*
X66647160Y16644084D01*
X66857100Y16784361D01*
X67035639Y16962900D01*
X67175916Y17172840D01*
X67272541Y17406113D01*
X67321800Y17653754D01*
X67321800Y17906246D01*
X67272541Y18153887D01*
X67175916Y18387160D01*
X67035639Y18597100D01*
X66857100Y18775639D01*
X66647160Y18915916D01*
X66413887Y19012541D01*
X66225568Y19050000D01*
X66413887Y19087459D01*
X66647160Y19184084D01*
X66857100Y19324361D01*
X67035639Y19502900D01*
X67175916Y19712840D01*
X67272541Y19946113D01*
X67321800Y20193754D01*
X67321800Y20446246D01*
X67272541Y20693887D01*
X67175916Y20927160D01*
X67035639Y21137100D01*
X66857100Y21315639D01*
X66647160Y21455916D01*
X66413887Y21552541D01*
X66295393Y21576111D01*
X66890000Y21576111D01*
X66974648Y21584448D01*
X67056042Y21609139D01*
X67131056Y21649234D01*
X67196806Y21703194D01*
X67250766Y21768944D01*
X67290861Y21843958D01*
X67315552Y21925352D01*
X67323889Y22010000D01*
X67323889Y23710000D01*
X67315552Y23794648D01*
X67290861Y23876042D01*
X67250766Y23951056D01*
X67196806Y24016806D01*
X67131056Y24070766D01*
X67056042Y24110861D01*
X66974648Y24135552D01*
X66890000Y24143889D01*
X65190000Y24143889D01*
X65105352Y24135552D01*
X65023958Y24110861D01*
X64948944Y24070766D01*
X64883194Y24016806D01*
X64829234Y23951056D01*
X64789139Y23876042D01*
X64764448Y23794648D01*
X64756111Y23710000D01*
X61965262Y23710000D01*
X68404828Y30149566D01*
X136147680Y30149566D01*
X136147680Y29769034D01*
X136221918Y29395815D01*
X136367541Y29044250D01*
X136578953Y28727849D01*
X136848029Y28458773D01*
X137164430Y28247361D01*
X137515995Y28101738D01*
X137889214Y28027500D01*
X138269746Y28027500D01*
X138642965Y28101738D01*
X138994530Y28247361D01*
X139310931Y28458773D01*
X139580007Y28727849D01*
X139791419Y29044250D01*
X139937042Y29395815D01*
X140011280Y29769034D01*
X140011280Y30149566D01*
X139937042Y30522785D01*
X139791419Y30874350D01*
X139580007Y31190751D01*
X139310931Y31459827D01*
X138994530Y31671239D01*
X138642965Y31816862D01*
X138269746Y31891100D01*
X137889214Y31891100D01*
X137515995Y31816862D01*
X137164430Y31671239D01*
X136848029Y31459827D01*
X136578953Y31190751D01*
X136367541Y30874350D01*
X136221918Y30522785D01*
X136147680Y30149566D01*
X68404828Y30149566D01*
X71622719Y33367457D01*
X71644043Y33384957D01*
X71713873Y33470046D01*
X71765761Y33567122D01*
X71797714Y33672456D01*
X71805800Y33754556D01*
X71805800Y33754557D01*
X71808503Y33781999D01*
X71805800Y33809441D01*
X71805800Y40789538D01*
X79460463Y48444200D01*
X79583925Y48444200D01*
X79744627Y48476165D01*
X79896005Y48538868D01*
X80032242Y48629899D01*
X80148101Y48745758D01*
X80239132Y48881995D01*
X80301835Y49033373D01*
X80333800Y49194075D01*
X80333800Y49357925D01*
X80301835Y49518627D01*
X80239132Y49670005D01*
X80148101Y49806242D01*
X80032242Y49922101D01*
X79896005Y50013132D01*
X79744627Y50075835D01*
X79583925Y50107800D01*
X79420075Y50107800D01*
X79259373Y50075835D01*
X79107995Y50013132D01*
X78971758Y49922101D01*
X78855899Y49806242D01*
X78764868Y49670005D01*
X78702165Y49518627D01*
X78670200Y49357925D01*
X78670200Y49234463D01*
X70871281Y41435543D01*
X70849957Y41418043D01*
X70780127Y41332954D01*
X70728239Y41235877D01*
X70696286Y41130543D01*
X70689350Y41060122D01*
X70685497Y41021000D01*
X70688200Y40993558D01*
X70688201Y34013463D01*
X59440200Y22765462D01*
X59440200Y30149566D01*
X61149100Y30149566D01*
X61149100Y29769034D01*
X61223338Y29395815D01*
X61368961Y29044250D01*
X61580373Y28727849D01*
X61849449Y28458773D01*
X62165850Y28247361D01*
X62517415Y28101738D01*
X62890634Y28027500D01*
X63271166Y28027500D01*
X63644385Y28101738D01*
X63995950Y28247361D01*
X64312351Y28458773D01*
X64581427Y28727849D01*
X64792839Y29044250D01*
X64938462Y29395815D01*
X65012700Y29769034D01*
X65012700Y30149566D01*
X64938462Y30522785D01*
X64792839Y30874350D01*
X64581427Y31190751D01*
X64312351Y31459827D01*
X63995950Y31671239D01*
X63644385Y31816862D01*
X63271166Y31891100D01*
X62890634Y31891100D01*
X62517415Y31816862D01*
X62165850Y31671239D01*
X61849449Y31459827D01*
X61580373Y31190751D01*
X61368961Y30874350D01*
X61223338Y30522785D01*
X61149100Y30149566D01*
X59440200Y30149566D01*
X59440200Y30818338D01*
X79331219Y50709357D01*
X79352543Y50726857D01*
X79422373Y50811946D01*
X79474261Y50909022D01*
X79506214Y51014356D01*
X79514300Y51096456D01*
X79514300Y51096457D01*
X79517003Y51123899D01*
X79514300Y51151341D01*
X79514300Y52386357D01*
X79601601Y52473658D01*
X79692632Y52609895D01*
X79755335Y52761273D01*
X79787300Y52921975D01*
X79787300Y53085825D01*
X79755335Y53246527D01*
X79692632Y53397905D01*
X79601601Y53534142D01*
X79485742Y53650001D01*
X79349505Y53741032D01*
X79198127Y53803735D01*
X79037425Y53835700D01*
X78873575Y53835700D01*
X78712873Y53803735D01*
X78561495Y53741032D01*
X78425258Y53650001D01*
X78309399Y53534142D01*
X78218368Y53397905D01*
X78155665Y53246527D01*
X78123700Y53085825D01*
X78123700Y52921975D01*
X78155665Y52761273D01*
X78218368Y52609895D01*
X78309399Y52473658D01*
X78396701Y52386356D01*
X78396700Y51355362D01*
X75371400Y48330062D01*
X75371400Y48330225D01*
X75339435Y48490927D01*
X75276732Y48642305D01*
X75185701Y48778542D01*
X75069842Y48894401D01*
X74933605Y48985432D01*
X74782227Y49048135D01*
X74621525Y49080100D01*
X74457675Y49080100D01*
X74296973Y49048135D01*
X74145595Y48985432D01*
X74009358Y48894401D01*
X73893499Y48778542D01*
X73802468Y48642305D01*
X73739765Y48490927D01*
X73707800Y48330225D01*
X73707800Y48166375D01*
X73739765Y48005673D01*
X73802468Y47854295D01*
X73842268Y47794730D01*
X67580238Y41532700D01*
X61479963Y41532700D01*
X55011943Y48000719D01*
X54994443Y48022043D01*
X54909354Y48091873D01*
X54812278Y48143761D01*
X54706944Y48175714D01*
X54624844Y48183800D01*
X54624842Y48183800D01*
X54597400Y48186503D01*
X54569958Y48183800D01*
X49758038Y48183800D01*
X49689160Y48312663D01*
X49535228Y48500228D01*
X49347663Y48654160D01*
X49133670Y48768541D01*
X48901475Y48838977D01*
X48720513Y48856800D01*
X47799487Y48856800D01*
X47618525Y48838977D01*
X47386330Y48768541D01*
X47172337Y48654160D01*
X46984772Y48500228D01*
X46830840Y48312663D01*
X46716459Y48098670D01*
X46646023Y47866475D01*
X46622240Y47625000D01*
X46646023Y47383525D01*
X46711898Y47166365D01*
X43713263Y50165000D01*
X46622240Y50165000D01*
X46646023Y49923525D01*
X46716459Y49691330D01*
X46830840Y49477337D01*
X46984772Y49289772D01*
X47172337Y49135840D01*
X47386330Y49021459D01*
X47618525Y48951023D01*
X47799487Y48933200D01*
X48720513Y48933200D01*
X48901475Y48951023D01*
X49133670Y49021459D01*
X49347663Y49135840D01*
X49535228Y49289772D01*
X49689160Y49477337D01*
X49803541Y49691330D01*
X49873977Y49923525D01*
X49897760Y50165000D01*
X49873977Y50406475D01*
X49803541Y50638670D01*
X49689160Y50852663D01*
X49535228Y51040228D01*
X49347663Y51194160D01*
X49133670Y51308541D01*
X48901475Y51378977D01*
X48720513Y51396800D01*
X47799487Y51396800D01*
X47618525Y51378977D01*
X47386330Y51308541D01*
X47172337Y51194160D01*
X46984772Y51040228D01*
X46830840Y50852663D01*
X46716459Y50638670D01*
X46646023Y50406475D01*
X46622240Y50165000D01*
X43713263Y50165000D01*
X42205486Y51672776D01*
X42240861Y51738958D01*
X42265552Y51820352D01*
X42273889Y51905000D01*
X42273889Y52705000D01*
X46622240Y52705000D01*
X46646023Y52463525D01*
X46716459Y52231330D01*
X46830840Y52017337D01*
X46984772Y51829772D01*
X47172337Y51675840D01*
X47386330Y51561459D01*
X47618525Y51491023D01*
X47799487Y51473200D01*
X48720513Y51473200D01*
X48901475Y51491023D01*
X49133670Y51561459D01*
X49347663Y51675840D01*
X49535228Y51829772D01*
X49689160Y52017337D01*
X49803541Y52231330D01*
X49873977Y52463525D01*
X49897760Y52705000D01*
X49873977Y52946475D01*
X49803541Y53178670D01*
X49689160Y53392663D01*
X49535228Y53580228D01*
X49347663Y53734160D01*
X49133670Y53848541D01*
X48901475Y53918977D01*
X48720513Y53936800D01*
X47799487Y53936800D01*
X47618525Y53918977D01*
X47386330Y53848541D01*
X47172337Y53734160D01*
X46984772Y53580228D01*
X46830840Y53392663D01*
X46716459Y53178670D01*
X46646023Y52946475D01*
X46622240Y52705000D01*
X42273889Y52705000D01*
X42273889Y53505000D01*
X42265552Y53589648D01*
X42240861Y53671042D01*
X42200766Y53746056D01*
X42146806Y53811806D01*
X42081056Y53865766D01*
X42006042Y53905861D01*
X41924648Y53930552D01*
X41840000Y53938889D01*
X39440000Y53938889D01*
X39355352Y53930552D01*
X39273958Y53905861D01*
X39198944Y53865766D01*
X39133194Y53811806D01*
X39079234Y53746056D01*
X39039139Y53671042D01*
X39014448Y53589648D01*
X39006111Y53505000D01*
X39006111Y51993800D01*
X30619844Y51993800D01*
X30639160Y52017337D01*
X30753541Y52231330D01*
X30823977Y52463525D01*
X30847760Y52705000D01*
X30823977Y52946475D01*
X30753541Y53178670D01*
X30639160Y53392663D01*
X30485228Y53580228D01*
X30297663Y53734160D01*
X30083670Y53848541D01*
X29851475Y53918977D01*
X29670513Y53936800D01*
X28749487Y53936800D01*
X28568525Y53918977D01*
X28336330Y53848541D01*
X28122337Y53734160D01*
X27934772Y53580228D01*
X27780840Y53392663D01*
X27666459Y53178670D01*
X27596023Y52946475D01*
X27572240Y52705000D01*
X27596023Y52463525D01*
X27666459Y52231330D01*
X27780840Y52017337D01*
X27800156Y51993800D01*
X24918462Y51993800D01*
X23831543Y53080719D01*
X23814043Y53102043D01*
X23728954Y53171873D01*
X23631878Y53223761D01*
X23526544Y53255714D01*
X23444444Y53263800D01*
X23444442Y53263800D01*
X23417000Y53266503D01*
X23389558Y53263800D01*
X23223889Y53263800D01*
X23223889Y53505000D01*
X23215552Y53589648D01*
X23190861Y53671042D01*
X23150766Y53746056D01*
X23096806Y53811806D01*
X23031056Y53865766D01*
X22956042Y53905861D01*
X22874648Y53930552D01*
X22790000Y53938889D01*
X20390000Y53938889D01*
X20305352Y53930552D01*
X20223958Y53905861D01*
X20148944Y53865766D01*
X20083194Y53811806D01*
X20029234Y53746056D01*
X19989139Y53671042D01*
X19964448Y53589648D01*
X19956111Y53505000D01*
X19956111Y51905000D01*
X19964448Y51820352D01*
X19989139Y51738958D01*
X20029234Y51663944D01*
X20083194Y51598194D01*
X20148944Y51544234D01*
X20223958Y51504139D01*
X20305352Y51479448D01*
X20390000Y51471111D01*
X22790000Y51471111D01*
X22874648Y51479448D01*
X22956042Y51504139D01*
X23031056Y51544234D01*
X23096806Y51598194D01*
X23150766Y51663944D01*
X23190861Y51738958D01*
X23215552Y51820352D01*
X23223889Y51905000D01*
X23223889Y52107849D01*
X24272457Y51059281D01*
X24289957Y51037957D01*
X24375046Y50968127D01*
X24472122Y50916239D01*
X24577456Y50884286D01*
X24659556Y50876200D01*
X24659557Y50876200D01*
X24686999Y50873497D01*
X24714441Y50876200D01*
X27800156Y50876200D01*
X27780840Y50852663D01*
X27666459Y50638670D01*
X27596023Y50406475D01*
X27572240Y50165000D01*
X27596023Y49923525D01*
X27666459Y49691330D01*
X27780840Y49477337D01*
X27934772Y49289772D01*
X28122337Y49135840D01*
X28336330Y49021459D01*
X28568525Y48951023D01*
X28749487Y48933200D01*
X29670513Y48933200D01*
X29851475Y48951023D01*
X30083670Y49021459D01*
X30297663Y49135840D01*
X30485228Y49289772D01*
X30639160Y49477337D01*
X30708038Y49606200D01*
X30805538Y49606200D01*
X31892457Y48519281D01*
X31909957Y48497957D01*
X31995046Y48428127D01*
X32092122Y48376239D01*
X32197456Y48344286D01*
X32279556Y48336200D01*
X32279557Y48336200D01*
X32306999Y48333497D01*
X32334441Y48336200D01*
X39230156Y48336200D01*
X39210840Y48312663D01*
X39141962Y48183800D01*
X30708038Y48183800D01*
X30639160Y48312663D01*
X30485228Y48500228D01*
X30297663Y48654160D01*
X30083670Y48768541D01*
X29851475Y48838977D01*
X29670513Y48856800D01*
X28749487Y48856800D01*
X28568525Y48838977D01*
X28336330Y48768541D01*
X28122337Y48654160D01*
X27934772Y48500228D01*
X27780840Y48312663D01*
X27666459Y48098670D01*
X27596023Y47866475D01*
X27572240Y47625000D01*
X27596023Y47383525D01*
X27666459Y47151330D01*
X27780840Y46937337D01*
X27800156Y46913800D01*
X27458463Y46913800D01*
X23831543Y50540719D01*
X23814043Y50562043D01*
X23728954Y50631873D01*
X23631878Y50683761D01*
X23526544Y50715714D01*
X23444444Y50723800D01*
X23444442Y50723800D01*
X23417000Y50726503D01*
X23389558Y50723800D01*
X23088038Y50723800D01*
X23019160Y50852663D01*
X22865228Y51040228D01*
X22677663Y51194160D01*
X22463670Y51308541D01*
X22231475Y51378977D01*
X22050513Y51396800D01*
X21129487Y51396800D01*
X20948525Y51378977D01*
X20716330Y51308541D01*
X20502337Y51194160D01*
X20314772Y51040228D01*
X20160840Y50852663D01*
X20046459Y50638670D01*
X19976023Y50406475D01*
X19952240Y50165000D01*
X481800Y50165000D01*
X481800Y64400000D01*
X32956111Y64400000D01*
X32956111Y62600000D01*
X32964448Y62515352D01*
X32989139Y62433958D01*
X33029234Y62358944D01*
X33083194Y62293194D01*
X33148944Y62239234D01*
X33223958Y62199139D01*
X33305352Y62174448D01*
X33390000Y62166111D01*
X35190000Y62166111D01*
X35274648Y62174448D01*
X35356042Y62199139D01*
X35431056Y62239234D01*
X35496806Y62293194D01*
X35550766Y62358944D01*
X35590861Y62433958D01*
X35615552Y62515352D01*
X35623889Y62600000D01*
X35623889Y62931648D01*
X35649774Y62869156D01*
X35795523Y62651027D01*
X35981027Y62465523D01*
X36199156Y62319774D01*
X36441528Y62219380D01*
X36698829Y62168200D01*
X36961171Y62168200D01*
X36962804Y62168525D01*
X52368200Y62168525D01*
X52368200Y62004675D01*
X52400165Y61843973D01*
X52462868Y61692595D01*
X52553899Y61556358D01*
X52669758Y61440499D01*
X52805995Y61349468D01*
X52957373Y61286765D01*
X53118075Y61254800D01*
X53241538Y61254800D01*
X55944062Y58552275D01*
X55961557Y58530957D01*
X56046646Y58461127D01*
X56143722Y58409239D01*
X56249056Y58377286D01*
X56331156Y58369200D01*
X56331158Y58369200D01*
X56358600Y58366497D01*
X56386042Y58369200D01*
X76253738Y58369200D01*
X93088657Y41534281D01*
X93106157Y41512957D01*
X93191246Y41443127D01*
X93288322Y41391239D01*
X93393656Y41359286D01*
X93475756Y41351200D01*
X93475757Y41351200D01*
X93503199Y41348497D01*
X93530641Y41351200D01*
X120601693Y41351200D01*
X120651155Y41231788D01*
X120807848Y40997281D01*
X121007281Y40797848D01*
X121241788Y40641155D01*
X121502359Y40533223D01*
X121778980Y40478200D01*
X122061020Y40478200D01*
X122337641Y40533223D01*
X122598212Y40641155D01*
X122832719Y40797848D01*
X122986079Y40951208D01*
X123537129Y40951208D01*
X123635018Y40731296D01*
X123880824Y40592999D01*
X124148886Y40505313D01*
X124428905Y40471608D01*
X124710119Y40493181D01*
X124981720Y40569200D01*
X125233273Y40696745D01*
X125284982Y40731296D01*
X125382871Y40951208D01*
X124460000Y41874079D01*
X123537129Y40951208D01*
X122986079Y40951208D01*
X123032152Y40997281D01*
X123188845Y41231788D01*
X123193207Y41242319D01*
X123246745Y41136727D01*
X123281296Y41085018D01*
X123501208Y40987129D01*
X124424079Y41910000D01*
X124495921Y41910000D01*
X125418792Y40987129D01*
X125638704Y41085018D01*
X125726968Y41241896D01*
X125731155Y41231788D01*
X125887848Y40997281D01*
X126087281Y40797848D01*
X126321788Y40641155D01*
X126582359Y40533223D01*
X126858980Y40478200D01*
X127141020Y40478200D01*
X127417641Y40533223D01*
X127678212Y40641155D01*
X127912719Y40797848D01*
X128112152Y40997281D01*
X128268845Y41231788D01*
X128270000Y41234576D01*
X128271155Y41231788D01*
X128427848Y40997281D01*
X128627281Y40797848D01*
X128861788Y40641155D01*
X129122359Y40533223D01*
X129398980Y40478200D01*
X129681020Y40478200D01*
X129957641Y40533223D01*
X130218212Y40641155D01*
X130452719Y40797848D01*
X130652152Y40997281D01*
X130808845Y41231788D01*
X130916777Y41492359D01*
X130971800Y41768980D01*
X130971800Y42051020D01*
X130916777Y42327641D01*
X130808845Y42588212D01*
X130652152Y42822719D01*
X130452719Y43022152D01*
X130218212Y43178845D01*
X129957641Y43286777D01*
X129681020Y43341800D01*
X129398980Y43341800D01*
X129122359Y43286777D01*
X128861788Y43178845D01*
X128627281Y43022152D01*
X128427848Y42822719D01*
X128271155Y42588212D01*
X128270000Y42585424D01*
X128268845Y42588212D01*
X128112152Y42822719D01*
X127912719Y43022152D01*
X127678212Y43178845D01*
X127417641Y43286777D01*
X127141020Y43341800D01*
X126858980Y43341800D01*
X126582359Y43286777D01*
X126321788Y43178845D01*
X126087281Y43022152D01*
X125887848Y42822719D01*
X125731155Y42588212D01*
X125726793Y42577681D01*
X125673255Y42683273D01*
X125638704Y42734982D01*
X125418792Y42832871D01*
X124495921Y41910000D01*
X124424079Y41910000D01*
X123501208Y42832871D01*
X123281296Y42734982D01*
X123193032Y42578104D01*
X123188845Y42588212D01*
X123032152Y42822719D01*
X122986079Y42868792D01*
X123537129Y42868792D01*
X124460000Y41945921D01*
X125382871Y42868792D01*
X125284982Y43088704D01*
X125039176Y43227001D01*
X124771114Y43314687D01*
X124491095Y43348392D01*
X124209881Y43326819D01*
X123938280Y43250800D01*
X123686727Y43123255D01*
X123635018Y43088704D01*
X123537129Y42868792D01*
X122986079Y42868792D01*
X122832719Y43022152D01*
X122598212Y43178845D01*
X122337641Y43286777D01*
X122061020Y43341800D01*
X121778980Y43341800D01*
X121502359Y43286777D01*
X121241788Y43178845D01*
X121007281Y43022152D01*
X120807848Y42822719D01*
X120651155Y42588212D01*
X120601693Y42468800D01*
X93734662Y42468800D01*
X83653462Y52550000D01*
X129896111Y52550000D01*
X129896111Y49050000D01*
X129904448Y48965352D01*
X129929139Y48883958D01*
X129969234Y48808944D01*
X130023194Y48743194D01*
X130088944Y48689234D01*
X130163958Y48649139D01*
X130245352Y48624448D01*
X130330000Y48616111D01*
X133830000Y48616111D01*
X133914648Y48624448D01*
X133996042Y48649139D01*
X134071056Y48689234D01*
X134136806Y48743194D01*
X134190766Y48808944D01*
X134230861Y48883958D01*
X134255552Y48965352D01*
X134263889Y49050000D01*
X136146111Y49050000D01*
X136154448Y48965352D01*
X136179139Y48883958D01*
X136219234Y48808944D01*
X136273194Y48743194D01*
X136338944Y48689234D01*
X136413958Y48649139D01*
X136495352Y48624448D01*
X136580000Y48616111D01*
X137946650Y48618200D01*
X138054600Y48726150D01*
X138054600Y50774600D01*
X138105400Y50774600D01*
X138105400Y48726150D01*
X138213350Y48618200D01*
X139580000Y48616111D01*
X139664648Y48624448D01*
X139746042Y48649139D01*
X139821056Y48689234D01*
X139886806Y48743194D01*
X139940766Y48808944D01*
X139980861Y48883958D01*
X140005552Y48965352D01*
X140013889Y49050000D01*
X140011800Y50666650D01*
X139903850Y50774600D01*
X138105400Y50774600D01*
X138054600Y50774600D01*
X136256150Y50774600D01*
X136148200Y50666650D01*
X136146111Y49050000D01*
X134263889Y49050000D01*
X134263889Y52550000D01*
X136146111Y52550000D01*
X136148200Y50933350D01*
X136256150Y50825400D01*
X138054600Y50825400D01*
X138054600Y52873850D01*
X138105400Y52873850D01*
X138105400Y50825400D01*
X139903850Y50825400D01*
X140011800Y50933350D01*
X140013889Y52550000D01*
X140005552Y52634648D01*
X139980861Y52716042D01*
X139940766Y52791056D01*
X139886806Y52856806D01*
X139821056Y52910766D01*
X139746042Y52950861D01*
X139664648Y52975552D01*
X139580000Y52983889D01*
X138213350Y52981800D01*
X138105400Y52873850D01*
X138054600Y52873850D01*
X137946650Y52981800D01*
X136580000Y52983889D01*
X136495352Y52975552D01*
X136413958Y52950861D01*
X136338944Y52910766D01*
X136273194Y52856806D01*
X136219234Y52791056D01*
X136179139Y52716042D01*
X136154448Y52634648D01*
X136146111Y52550000D01*
X134263889Y52550000D01*
X134255552Y52634648D01*
X134230861Y52716042D01*
X134190766Y52791056D01*
X134136806Y52856806D01*
X134071056Y52910766D01*
X133996042Y52950861D01*
X133914648Y52975552D01*
X133830000Y52983889D01*
X130330000Y52983889D01*
X130245352Y52975552D01*
X130163958Y52950861D01*
X130088944Y52910766D01*
X130023194Y52856806D01*
X129969234Y52791056D01*
X129929139Y52716042D01*
X129904448Y52634648D01*
X129896111Y52550000D01*
X83653462Y52550000D01*
X82453462Y53750000D01*
X132896111Y53750000D01*
X132904448Y53665352D01*
X132929139Y53583958D01*
X132969234Y53508944D01*
X133023194Y53443194D01*
X133088944Y53389234D01*
X133163958Y53349139D01*
X133245352Y53324448D01*
X133330000Y53316111D01*
X134946650Y53318200D01*
X135054600Y53426150D01*
X135054600Y55474600D01*
X135105400Y55474600D01*
X135105400Y53426150D01*
X135213350Y53318200D01*
X136830000Y53316111D01*
X136914648Y53324448D01*
X136996042Y53349139D01*
X137071056Y53389234D01*
X137136806Y53443194D01*
X137190766Y53508944D01*
X137230861Y53583958D01*
X137255552Y53665352D01*
X137263889Y53750000D01*
X137261800Y55366650D01*
X137153850Y55474600D01*
X135105400Y55474600D01*
X135054600Y55474600D01*
X133006150Y55474600D01*
X132898200Y55366650D01*
X132896111Y53750000D01*
X82453462Y53750000D01*
X78953462Y57250000D01*
X132896111Y57250000D01*
X132898200Y55633350D01*
X133006150Y55525400D01*
X135054600Y55525400D01*
X135054600Y57573850D01*
X135105400Y57573850D01*
X135105400Y55525400D01*
X137153850Y55525400D01*
X137261800Y55633350D01*
X137263889Y57250000D01*
X137255552Y57334648D01*
X137230861Y57416042D01*
X137190766Y57491056D01*
X137136806Y57556806D01*
X137071056Y57610766D01*
X136996042Y57650861D01*
X136914648Y57675552D01*
X136830000Y57683889D01*
X135213350Y57681800D01*
X135105400Y57573850D01*
X135054600Y57573850D01*
X134946650Y57681800D01*
X133330000Y57683889D01*
X133245352Y57675552D01*
X133163958Y57650861D01*
X133088944Y57610766D01*
X133023194Y57556806D01*
X132969234Y57491056D01*
X132929139Y57416042D01*
X132904448Y57334648D01*
X132896111Y57250000D01*
X78953462Y57250000D01*
X76899743Y59303719D01*
X76882243Y59325043D01*
X76816192Y59379249D01*
X76943489Y59447291D01*
X77146281Y59613719D01*
X77312709Y59816511D01*
X77436376Y60047876D01*
X77473161Y60169141D01*
X77519297Y60026876D01*
X77646760Y59798972D01*
X77816235Y59600314D01*
X78021210Y59438536D01*
X78253808Y59319856D01*
X78505090Y59248834D01*
X78506611Y59248809D01*
X78714600Y59336414D01*
X78714600Y60934600D01*
X78694600Y60934600D01*
X78694600Y60985400D01*
X78714600Y60985400D01*
X78714600Y62583586D01*
X78765400Y62583586D01*
X78765400Y60985400D01*
X78785400Y60985400D01*
X78785400Y60934600D01*
X78765400Y60934600D01*
X78765400Y59336414D01*
X78973389Y59248809D01*
X78974910Y59248834D01*
X79226192Y59319856D01*
X79458790Y59438536D01*
X79663765Y59600314D01*
X79833240Y59798972D01*
X79960703Y60026876D01*
X80006839Y60169141D01*
X80043624Y60047876D01*
X80167291Y59816511D01*
X80333720Y59613719D01*
X80536512Y59447291D01*
X80767877Y59323624D01*
X81018923Y59247470D01*
X81280000Y59221756D01*
X81541078Y59247470D01*
X81792124Y59323624D01*
X82023489Y59447291D01*
X82226281Y59613719D01*
X82392709Y59816511D01*
X82516376Y60047876D01*
X82553161Y60169141D01*
X82599297Y60026876D01*
X82726760Y59798972D01*
X82896235Y59600314D01*
X83101210Y59438536D01*
X83333808Y59319856D01*
X83585090Y59248834D01*
X83586611Y59248809D01*
X83794600Y59336414D01*
X83794600Y60934600D01*
X83845400Y60934600D01*
X83845400Y59336414D01*
X84053389Y59248809D01*
X84054910Y59248834D01*
X84306192Y59319856D01*
X84538790Y59438536D01*
X84743765Y59600314D01*
X84913240Y59798972D01*
X85040703Y60026876D01*
X85090000Y60178889D01*
X85139297Y60026876D01*
X85266760Y59798972D01*
X85436235Y59600314D01*
X85641210Y59438536D01*
X85873808Y59319856D01*
X86125090Y59248834D01*
X86126611Y59248809D01*
X86334600Y59336414D01*
X86334600Y60934600D01*
X86385400Y60934600D01*
X86385400Y59336414D01*
X86593389Y59248809D01*
X86594910Y59248834D01*
X86846192Y59319856D01*
X87078790Y59438536D01*
X87283765Y59600314D01*
X87453240Y59798972D01*
X87580703Y60026876D01*
X87630000Y60178889D01*
X87679297Y60026876D01*
X87806760Y59798972D01*
X87976235Y59600314D01*
X88181210Y59438536D01*
X88413808Y59319856D01*
X88665090Y59248834D01*
X88666611Y59248809D01*
X88874600Y59336414D01*
X88874600Y60934600D01*
X88925400Y60934600D01*
X88925400Y59336414D01*
X89133389Y59248809D01*
X89134910Y59248834D01*
X89386192Y59319856D01*
X89618790Y59438536D01*
X89823765Y59600314D01*
X89993240Y59798972D01*
X90120703Y60026876D01*
X90170000Y60178889D01*
X90219297Y60026876D01*
X90346760Y59798972D01*
X90516235Y59600314D01*
X90721210Y59438536D01*
X90953808Y59319856D01*
X91205090Y59248834D01*
X91206611Y59248809D01*
X91414600Y59336414D01*
X91414600Y60934600D01*
X88925400Y60934600D01*
X88874600Y60934600D01*
X86385400Y60934600D01*
X86334600Y60934600D01*
X83845400Y60934600D01*
X83794600Y60934600D01*
X83774600Y60934600D01*
X83774600Y60985400D01*
X83794600Y60985400D01*
X83794600Y62583586D01*
X83845400Y62583586D01*
X83845400Y60985400D01*
X86334600Y60985400D01*
X86334600Y62583586D01*
X86385400Y62583586D01*
X86385400Y60985400D01*
X88874600Y60985400D01*
X88874600Y62583586D01*
X88925400Y62583586D01*
X88925400Y60985400D01*
X91414600Y60985400D01*
X91414600Y62583586D01*
X91465400Y62583586D01*
X91465400Y60985400D01*
X91485400Y60985400D01*
X91485400Y60934600D01*
X91465400Y60934600D01*
X91465400Y59336414D01*
X91673389Y59248809D01*
X91674910Y59248834D01*
X91926192Y59319856D01*
X92158790Y59438536D01*
X92363765Y59600314D01*
X92533240Y59798972D01*
X92660703Y60026876D01*
X92706839Y60169141D01*
X92743624Y60047876D01*
X92867291Y59816511D01*
X93033720Y59613719D01*
X93236512Y59447291D01*
X93467877Y59323624D01*
X93718923Y59247470D01*
X93980000Y59221756D01*
X94241078Y59247470D01*
X94492124Y59323624D01*
X94723489Y59447291D01*
X94926281Y59613719D01*
X95092709Y59816511D01*
X95216376Y60047876D01*
X95250000Y60158719D01*
X95283624Y60047876D01*
X95407291Y59816511D01*
X95573720Y59613719D01*
X95776512Y59447291D01*
X96007877Y59323624D01*
X96258923Y59247470D01*
X96520000Y59221756D01*
X96781078Y59247470D01*
X97032124Y59323624D01*
X97263489Y59447291D01*
X97466281Y59613719D01*
X97632709Y59816511D01*
X97756376Y60047876D01*
X97790000Y60158719D01*
X97823624Y60047876D01*
X97947291Y59816511D01*
X98113720Y59613719D01*
X98316512Y59447291D01*
X98547877Y59323624D01*
X98798923Y59247470D01*
X99060000Y59221756D01*
X99321078Y59247470D01*
X99572124Y59323624D01*
X99803489Y59447291D01*
X100006281Y59613719D01*
X100172709Y59816511D01*
X100296376Y60047876D01*
X100330000Y60158719D01*
X100363624Y60047876D01*
X100487291Y59816511D01*
X100653720Y59613719D01*
X100856512Y59447291D01*
X101087877Y59323624D01*
X101338923Y59247470D01*
X101600000Y59221756D01*
X101861078Y59247470D01*
X102112124Y59323624D01*
X102343489Y59447291D01*
X102546281Y59613719D01*
X102712709Y59816511D01*
X102836376Y60047876D01*
X102870000Y60158719D01*
X102903624Y60047876D01*
X103027291Y59816511D01*
X103193720Y59613719D01*
X103396512Y59447291D01*
X103627877Y59323624D01*
X103878923Y59247470D01*
X104140000Y59221756D01*
X104401078Y59247470D01*
X104652124Y59323624D01*
X104883489Y59447291D01*
X105086281Y59613719D01*
X105252709Y59816511D01*
X105376376Y60047876D01*
X105413161Y60169141D01*
X105459297Y60026876D01*
X105586760Y59798972D01*
X105756235Y59600314D01*
X105961210Y59438536D01*
X106193808Y59319856D01*
X106445090Y59248834D01*
X106446611Y59248809D01*
X106654600Y59336414D01*
X106654600Y60934600D01*
X106705400Y60934600D01*
X106705400Y59336414D01*
X106913389Y59248809D01*
X106914910Y59248834D01*
X107166192Y59319856D01*
X107398790Y59438536D01*
X107603765Y59600314D01*
X107773240Y59798972D01*
X107900703Y60026876D01*
X107981255Y60275267D01*
X108011800Y60534600D01*
X108011800Y60934600D01*
X106705400Y60934600D01*
X106654600Y60934600D01*
X106634600Y60934600D01*
X106634600Y60985400D01*
X106654600Y60985400D01*
X106654600Y62583586D01*
X106705400Y62583586D01*
X106705400Y60985400D01*
X108011800Y60985400D01*
X108011800Y61150266D01*
X136148200Y61150266D01*
X136148200Y60769734D01*
X136222438Y60396515D01*
X136368061Y60044950D01*
X136579473Y59728549D01*
X136848549Y59459473D01*
X137164950Y59248061D01*
X137516515Y59102438D01*
X137889734Y59028200D01*
X138270266Y59028200D01*
X138643485Y59102438D01*
X138995050Y59248061D01*
X139311451Y59459473D01*
X139580527Y59728549D01*
X139791939Y60044950D01*
X139937562Y60396515D01*
X140011800Y60769734D01*
X140011800Y61150266D01*
X139937562Y61523485D01*
X139791939Y61875050D01*
X139580527Y62191451D01*
X139311451Y62460527D01*
X138995050Y62671939D01*
X138643485Y62817562D01*
X138270266Y62891800D01*
X137889734Y62891800D01*
X137516515Y62817562D01*
X137164950Y62671939D01*
X136848549Y62460527D01*
X136579473Y62191451D01*
X136368061Y61875050D01*
X136222438Y61523485D01*
X136148200Y61150266D01*
X108011800Y61150266D01*
X108011800Y61385400D01*
X107981255Y61644733D01*
X107900703Y61893124D01*
X107773240Y62121028D01*
X107603765Y62319686D01*
X107398790Y62481464D01*
X107166192Y62600144D01*
X106914910Y62671166D01*
X106913389Y62671191D01*
X106705400Y62583586D01*
X106654600Y62583586D01*
X106446611Y62671191D01*
X106445090Y62671166D01*
X106193808Y62600144D01*
X105961210Y62481464D01*
X105756235Y62319686D01*
X105586760Y62121028D01*
X105459297Y61893124D01*
X105413161Y61750859D01*
X105376376Y61872124D01*
X105252709Y62103489D01*
X105086281Y62306281D01*
X104883488Y62472709D01*
X104652123Y62596376D01*
X104401077Y62672530D01*
X104140000Y62698244D01*
X103878922Y62672530D01*
X103627876Y62596376D01*
X103396511Y62472709D01*
X103193719Y62306281D01*
X103027291Y62103488D01*
X102903624Y61872123D01*
X102870000Y61761280D01*
X102836376Y61872124D01*
X102712709Y62103489D01*
X102546281Y62306281D01*
X102343488Y62472709D01*
X102112123Y62596376D01*
X101861077Y62672530D01*
X101600000Y62698244D01*
X101338922Y62672530D01*
X101087876Y62596376D01*
X100856511Y62472709D01*
X100653719Y62306281D01*
X100487291Y62103488D01*
X100363624Y61872123D01*
X100330000Y61761280D01*
X100296376Y61872124D01*
X100172709Y62103489D01*
X100006281Y62306281D01*
X99803488Y62472709D01*
X99572123Y62596376D01*
X99321077Y62672530D01*
X99060000Y62698244D01*
X98798922Y62672530D01*
X98547876Y62596376D01*
X98316511Y62472709D01*
X98113719Y62306281D01*
X97947291Y62103488D01*
X97823624Y61872123D01*
X97790000Y61761280D01*
X97756376Y61872124D01*
X97632709Y62103489D01*
X97466281Y62306281D01*
X97263488Y62472709D01*
X97032123Y62596376D01*
X96781077Y62672530D01*
X96520000Y62698244D01*
X96258922Y62672530D01*
X96007876Y62596376D01*
X95776511Y62472709D01*
X95573719Y62306281D01*
X95407291Y62103488D01*
X95283624Y61872123D01*
X95250000Y61761280D01*
X95216376Y61872124D01*
X95092709Y62103489D01*
X94926281Y62306281D01*
X94723488Y62472709D01*
X94492123Y62596376D01*
X94241077Y62672530D01*
X93980000Y62698244D01*
X93718922Y62672530D01*
X93467876Y62596376D01*
X93236511Y62472709D01*
X93033719Y62306281D01*
X92867291Y62103488D01*
X92743624Y61872123D01*
X92706839Y61750859D01*
X92660703Y61893124D01*
X92533240Y62121028D01*
X92363765Y62319686D01*
X92158790Y62481464D01*
X91926192Y62600144D01*
X91674910Y62671166D01*
X91673389Y62671191D01*
X91465400Y62583586D01*
X91414600Y62583586D01*
X91206611Y62671191D01*
X91205090Y62671166D01*
X90953808Y62600144D01*
X90721210Y62481464D01*
X90516235Y62319686D01*
X90346760Y62121028D01*
X90219297Y61893124D01*
X90170000Y61741111D01*
X90120703Y61893124D01*
X89993240Y62121028D01*
X89823765Y62319686D01*
X89618790Y62481464D01*
X89386192Y62600144D01*
X89134910Y62671166D01*
X89133389Y62671191D01*
X88925400Y62583586D01*
X88874600Y62583586D01*
X88666611Y62671191D01*
X88665090Y62671166D01*
X88413808Y62600144D01*
X88181210Y62481464D01*
X87976235Y62319686D01*
X87806760Y62121028D01*
X87679297Y61893124D01*
X87630000Y61741111D01*
X87580703Y61893124D01*
X87453240Y62121028D01*
X87283765Y62319686D01*
X87078790Y62481464D01*
X86846192Y62600144D01*
X86594910Y62671166D01*
X86593389Y62671191D01*
X86385400Y62583586D01*
X86334600Y62583586D01*
X86126611Y62671191D01*
X86125090Y62671166D01*
X85873808Y62600144D01*
X85641210Y62481464D01*
X85436235Y62319686D01*
X85266760Y62121028D01*
X85139297Y61893124D01*
X85090000Y61741111D01*
X85040703Y61893124D01*
X84913240Y62121028D01*
X84743765Y62319686D01*
X84538790Y62481464D01*
X84306192Y62600144D01*
X84054910Y62671166D01*
X84053389Y62671191D01*
X83845400Y62583586D01*
X83794600Y62583586D01*
X83586611Y62671191D01*
X83585090Y62671166D01*
X83333808Y62600144D01*
X83101210Y62481464D01*
X82896235Y62319686D01*
X82726760Y62121028D01*
X82599297Y61893124D01*
X82553161Y61750859D01*
X82516376Y61872124D01*
X82392709Y62103489D01*
X82226281Y62306281D01*
X82023488Y62472709D01*
X81792123Y62596376D01*
X81541077Y62672530D01*
X81280000Y62698244D01*
X81018922Y62672530D01*
X80767876Y62596376D01*
X80536511Y62472709D01*
X80333719Y62306281D01*
X80167291Y62103488D01*
X80043624Y61872123D01*
X80006839Y61750859D01*
X79960703Y61893124D01*
X79833240Y62121028D01*
X79663765Y62319686D01*
X79458790Y62481464D01*
X79226192Y62600144D01*
X78974910Y62671166D01*
X78973389Y62671191D01*
X78765400Y62583586D01*
X78714600Y62583586D01*
X78506611Y62671191D01*
X78505090Y62671166D01*
X78253808Y62600144D01*
X78021210Y62481464D01*
X77816235Y62319686D01*
X77646760Y62121028D01*
X77519297Y61893124D01*
X77473161Y61750859D01*
X77436376Y61872124D01*
X77312709Y62103489D01*
X77146281Y62306281D01*
X76943488Y62472709D01*
X76712123Y62596376D01*
X76461077Y62672530D01*
X76200000Y62698244D01*
X75938922Y62672530D01*
X75687876Y62596376D01*
X75456511Y62472709D01*
X75253719Y62306281D01*
X75087291Y62103488D01*
X74963624Y61872123D01*
X74930000Y61761280D01*
X74896376Y61872124D01*
X74772709Y62103489D01*
X74606281Y62306281D01*
X74403488Y62472709D01*
X74172123Y62596376D01*
X73921077Y62672530D01*
X73660000Y62698244D01*
X73398922Y62672530D01*
X73147876Y62596376D01*
X72916511Y62472709D01*
X72713719Y62306281D01*
X72547291Y62103488D01*
X72423624Y61872123D01*
X72390000Y61761280D01*
X72356376Y61872124D01*
X72232709Y62103489D01*
X72066281Y62306281D01*
X71863488Y62472709D01*
X71632123Y62596376D01*
X71381077Y62672530D01*
X71120000Y62698244D01*
X70858922Y62672530D01*
X70607876Y62596376D01*
X70376511Y62472709D01*
X70173719Y62306281D01*
X70007291Y62103488D01*
X69913294Y61927631D01*
X69913889Y62260000D01*
X69905552Y62344648D01*
X69880861Y62426042D01*
X69840766Y62501056D01*
X69786806Y62566806D01*
X69721056Y62620766D01*
X69646042Y62660861D01*
X69564648Y62685552D01*
X69480000Y62693889D01*
X68713350Y62691800D01*
X68605400Y62583850D01*
X68605400Y60985400D01*
X68625400Y60985400D01*
X68625400Y60934600D01*
X68605400Y60934600D01*
X68605400Y60914600D01*
X68554600Y60914600D01*
X68554600Y60934600D01*
X67356150Y60934600D01*
X67248200Y60826650D01*
X67246111Y59660000D01*
X67254448Y59575352D01*
X67279139Y59493958D01*
X67282965Y59486800D01*
X64339678Y59486800D01*
X64581427Y59728549D01*
X64792839Y60044950D01*
X64938462Y60396515D01*
X65012700Y60769734D01*
X65012700Y61150266D01*
X64938462Y61523485D01*
X64792839Y61875050D01*
X64581427Y62191451D01*
X64512878Y62260000D01*
X67246111Y62260000D01*
X67248200Y61093350D01*
X67356150Y60985400D01*
X68554600Y60985400D01*
X68554600Y62583850D01*
X68446650Y62691800D01*
X67680000Y62693889D01*
X67595352Y62685552D01*
X67513958Y62660861D01*
X67438944Y62620766D01*
X67373194Y62566806D01*
X67319234Y62501056D01*
X67279139Y62426042D01*
X67254448Y62344648D01*
X67246111Y62260000D01*
X64512878Y62260000D01*
X64312351Y62460527D01*
X63995950Y62671939D01*
X63644385Y62817562D01*
X63271166Y62891800D01*
X62890634Y62891800D01*
X62517415Y62817562D01*
X62165850Y62671939D01*
X61849449Y62460527D01*
X61580373Y62191451D01*
X61368961Y61875050D01*
X61223338Y61523485D01*
X61149100Y61150266D01*
X61149100Y60769734D01*
X61223338Y60396515D01*
X61368961Y60044950D01*
X61580373Y59728549D01*
X61822122Y59486800D01*
X56590063Y59486800D01*
X54031800Y62045062D01*
X54031800Y62168525D01*
X53999835Y62329227D01*
X53937132Y62480605D01*
X53846101Y62616842D01*
X53730242Y62732701D01*
X53594005Y62823732D01*
X53442627Y62886435D01*
X53281925Y62918400D01*
X53118075Y62918400D01*
X52957373Y62886435D01*
X52805995Y62823732D01*
X52669758Y62732701D01*
X52553899Y62616842D01*
X52462868Y62480605D01*
X52400165Y62329227D01*
X52368200Y62168525D01*
X36962804Y62168525D01*
X37218472Y62219380D01*
X37460844Y62319774D01*
X37678973Y62465523D01*
X37864477Y62651027D01*
X38010226Y62869156D01*
X38110620Y63111528D01*
X38161800Y63368829D01*
X38161800Y63631171D01*
X38110620Y63888472D01*
X38010226Y64130844D01*
X37864477Y64348973D01*
X37678973Y64534477D01*
X37460844Y64680226D01*
X37218472Y64780620D01*
X36961171Y64831800D01*
X36698829Y64831800D01*
X36441528Y64780620D01*
X36199156Y64680226D01*
X35981027Y64534477D01*
X35795523Y64348973D01*
X35649774Y64130844D01*
X35623889Y64068352D01*
X35623889Y64400000D01*
X35615552Y64484648D01*
X35590861Y64566042D01*
X35550766Y64641056D01*
X35496806Y64706806D01*
X35431056Y64760766D01*
X35356042Y64800861D01*
X35274648Y64825552D01*
X35190000Y64833889D01*
X33390000Y64833889D01*
X33305352Y64825552D01*
X33223958Y64800861D01*
X33148944Y64760766D01*
X33083194Y64706806D01*
X33029234Y64641056D01*
X32989139Y64566042D01*
X32964448Y64484648D01*
X32956111Y64400000D01*
X481800Y64400000D01*
X481800Y66265643D01*
X4318200Y66265643D01*
X4318200Y65934357D01*
X4382830Y65609437D01*
X4509608Y65303369D01*
X4693660Y65027915D01*
X4927915Y64793660D01*
X5203369Y64609608D01*
X5509437Y64482830D01*
X5834357Y64418200D01*
X6165643Y64418200D01*
X6490563Y64482830D01*
X6796631Y64609608D01*
X7072085Y64793660D01*
X7306340Y65027915D01*
X7490392Y65303369D01*
X7617170Y65609437D01*
X7681800Y65934357D01*
X7681800Y66265643D01*
X135318200Y66265643D01*
X135318200Y65934357D01*
X135382830Y65609437D01*
X135509608Y65303369D01*
X135693660Y65027915D01*
X135927915Y64793660D01*
X136203369Y64609608D01*
X136509437Y64482830D01*
X136834357Y64418200D01*
X137165643Y64418200D01*
X137490563Y64482830D01*
X137796631Y64609608D01*
X138072085Y64793660D01*
X138306340Y65027915D01*
X138490392Y65303369D01*
X138617170Y65609437D01*
X138681800Y65934357D01*
X138681800Y66265643D01*
X138617170Y66590563D01*
X138490392Y66896631D01*
X138306340Y67172085D01*
X138072085Y67406340D01*
X137796631Y67590392D01*
X137490563Y67717170D01*
X137165643Y67781800D01*
X136834357Y67781800D01*
X136509437Y67717170D01*
X136203369Y67590392D01*
X135927915Y67406340D01*
X135693660Y67172085D01*
X135509608Y66896631D01*
X135382830Y66590563D01*
X135318200Y66265643D01*
X7681800Y66265643D01*
X7617170Y66590563D01*
X7490392Y66896631D01*
X7306340Y67172085D01*
X7072085Y67406340D01*
X6796631Y67590392D01*
X6490563Y67717170D01*
X6479181Y67719434D01*
X85733202Y67719434D01*
X85801453Y67477604D01*
X85915571Y67253735D01*
X86071171Y67056431D01*
X86262273Y66893275D01*
X86481534Y66770536D01*
X86720527Y66692931D01*
X86769434Y66683203D01*
X86969600Y66771425D01*
X86969600Y67919600D01*
X85821401Y67919600D01*
X85733202Y67719434D01*
X6479181Y67719434D01*
X6165643Y67781800D01*
X5834357Y67781800D01*
X5509437Y67717170D01*
X5203369Y67590392D01*
X4927915Y67406340D01*
X4693660Y67172085D01*
X4509608Y66896631D01*
X4382830Y66590563D01*
X4318200Y66265643D01*
X481800Y66265643D01*
X481800Y70611246D01*
X85713200Y70611246D01*
X85713200Y70358754D01*
X85762459Y70111113D01*
X85859084Y69877840D01*
X85999361Y69667900D01*
X86177900Y69489361D01*
X86387840Y69349084D01*
X86621113Y69252459D01*
X86868754Y69203200D01*
X86969598Y69203200D01*
X86969598Y69118576D01*
X86769434Y69206797D01*
X86720527Y69197069D01*
X86481534Y69119464D01*
X86262273Y68996725D01*
X86071171Y68833569D01*
X85915571Y68636265D01*
X85801453Y68412396D01*
X85733202Y68170566D01*
X85821401Y67970400D01*
X86969600Y67970400D01*
X86969600Y67990400D01*
X87020400Y67990400D01*
X87020400Y67970400D01*
X87040400Y67970400D01*
X87040400Y67919600D01*
X87020400Y67919600D01*
X87020400Y66771425D01*
X87220566Y66683203D01*
X87269473Y66692931D01*
X87508466Y66770536D01*
X87727727Y66893275D01*
X87918829Y67056431D01*
X88074429Y67253735D01*
X88188547Y67477604D01*
X88256798Y67719434D01*
X88168600Y67919598D01*
X88253200Y67919598D01*
X88253200Y67818754D01*
X88302459Y67571113D01*
X88399084Y67337840D01*
X88539361Y67127900D01*
X88717900Y66949361D01*
X88927840Y66809084D01*
X89161113Y66712459D01*
X89408754Y66663200D01*
X89661246Y66663200D01*
X89908887Y66712459D01*
X90142160Y66809084D01*
X90352100Y66949361D01*
X90530639Y67127900D01*
X90670916Y67337840D01*
X90767541Y67571113D01*
X90805000Y67759432D01*
X90842459Y67571113D01*
X90939084Y67337840D01*
X91079361Y67127900D01*
X91257900Y66949361D01*
X91467840Y66809084D01*
X91701113Y66712459D01*
X91948754Y66663200D01*
X92201246Y66663200D01*
X92448887Y66712459D01*
X92682160Y66809084D01*
X92892100Y66949361D01*
X93070639Y67127900D01*
X93210916Y67337840D01*
X93307541Y67571113D01*
X93356800Y67818754D01*
X93356800Y68071246D01*
X93307541Y68318887D01*
X93210916Y68552160D01*
X93070639Y68762100D01*
X92892100Y68940639D01*
X92682160Y69080916D01*
X92448887Y69177541D01*
X92330393Y69201111D01*
X92925000Y69201111D01*
X93009648Y69209448D01*
X93091042Y69234139D01*
X93166056Y69274234D01*
X93231806Y69328194D01*
X93285766Y69393944D01*
X93325861Y69468958D01*
X93350552Y69550352D01*
X93358889Y69635000D01*
X93358889Y71335000D01*
X93350552Y71419648D01*
X93325861Y71501042D01*
X93285766Y71576056D01*
X93231806Y71641806D01*
X93166056Y71695766D01*
X93091042Y71735861D01*
X93009648Y71760552D01*
X92925000Y71768889D01*
X91225000Y71768889D01*
X91140352Y71760552D01*
X91058958Y71735861D01*
X90983944Y71695766D01*
X90918194Y71641806D01*
X90864234Y71576056D01*
X90824139Y71501042D01*
X90799448Y71419648D01*
X90791111Y71335000D01*
X90791111Y70740393D01*
X90767541Y70858887D01*
X90670916Y71092160D01*
X90530639Y71302100D01*
X90352100Y71480639D01*
X90142160Y71620916D01*
X89908887Y71717541D01*
X89661246Y71766800D01*
X89408754Y71766800D01*
X89161113Y71717541D01*
X88927840Y71620916D01*
X88717900Y71480639D01*
X88539361Y71302100D01*
X88399084Y71092160D01*
X88302459Y70858887D01*
X88265000Y70670568D01*
X88227541Y70858887D01*
X88130916Y71092160D01*
X87990639Y71302100D01*
X87812100Y71480639D01*
X87602160Y71620916D01*
X87368887Y71717541D01*
X87121246Y71766800D01*
X86868754Y71766800D01*
X86621113Y71717541D01*
X86387840Y71620916D01*
X86177900Y71480639D01*
X85999361Y71302100D01*
X85859084Y71092160D01*
X85762459Y70858887D01*
X85713200Y70611246D01*
X481800Y70611246D01*
X481800Y72518200D01*
X142113000Y72518200D01*
X142113000Y481800D01*
%TA.AperFunction,Conductor*%
D24*
G36*
X142113000Y481800D02*
G01*
X481800Y481800D01*
X481800Y7065643D01*
X4318200Y7065643D01*
X4318200Y6734357D01*
X4382830Y6409437D01*
X4509608Y6103369D01*
X4693660Y5827915D01*
X4927915Y5593660D01*
X5203369Y5409608D01*
X5509437Y5282830D01*
X5834357Y5218200D01*
X6165643Y5218200D01*
X6490563Y5282830D01*
X6796631Y5409608D01*
X7072085Y5593660D01*
X7306340Y5827915D01*
X7490392Y6103369D01*
X7617170Y6409437D01*
X7681800Y6734357D01*
X7681800Y7065643D01*
X7617170Y7390563D01*
X7490392Y7696631D01*
X7306340Y7972085D01*
X7072085Y8206340D01*
X6796631Y8390392D01*
X6490563Y8517170D01*
X6165643Y8581800D01*
X5834357Y8581800D01*
X5509437Y8517170D01*
X5203369Y8390392D01*
X4927915Y8206340D01*
X4693660Y7972085D01*
X4509608Y7696631D01*
X4382830Y7390563D01*
X4318200Y7065643D01*
X481800Y7065643D01*
X481800Y13981000D01*
X28130111Y13981000D01*
X28130111Y12181000D01*
X28138448Y12096352D01*
X28163139Y12014958D01*
X28203234Y11939944D01*
X28257194Y11874194D01*
X28322944Y11820234D01*
X28397958Y11780139D01*
X28479352Y11755448D01*
X28564000Y11747111D01*
X30364000Y11747111D01*
X30448648Y11755448D01*
X30530042Y11780139D01*
X30605056Y11820234D01*
X30670806Y11874194D01*
X30724766Y11939944D01*
X30764861Y12014958D01*
X30789552Y12096352D01*
X30797889Y12181000D01*
X30797889Y13981000D01*
X32575111Y13981000D01*
X32575111Y12181000D01*
X32583448Y12096352D01*
X32608139Y12014958D01*
X32648234Y11939944D01*
X32702194Y11874194D01*
X32767944Y11820234D01*
X32842958Y11780139D01*
X32924352Y11755448D01*
X33009000Y11747111D01*
X34809000Y11747111D01*
X34893648Y11755448D01*
X34975042Y11780139D01*
X35050056Y11820234D01*
X35115806Y11874194D01*
X35169766Y11939944D01*
X35209861Y12014958D01*
X35234552Y12096352D01*
X35242889Y12181000D01*
X35242889Y13981000D01*
X35234552Y14065648D01*
X35209861Y14147042D01*
X35169766Y14222056D01*
X35115806Y14287806D01*
X35050056Y14341766D01*
X34975042Y14381861D01*
X34893648Y14406552D01*
X34809000Y14414889D01*
X34477352Y14414889D01*
X34539844Y14440774D01*
X34757973Y14586523D01*
X34943477Y14772027D01*
X35089226Y14990156D01*
X35189620Y15232528D01*
X35240800Y15489829D01*
X35240800Y15752171D01*
X35189620Y16009472D01*
X35089226Y16251844D01*
X34943477Y16469973D01*
X34757973Y16655477D01*
X34539844Y16801226D01*
X34297472Y16901620D01*
X34040171Y16952800D01*
X33777829Y16952800D01*
X33520528Y16901620D01*
X33278156Y16801226D01*
X33060027Y16655477D01*
X32874523Y16469973D01*
X32728774Y16251844D01*
X32628380Y16009472D01*
X32577200Y15752171D01*
X32577200Y15489829D01*
X32628380Y15232528D01*
X32728774Y14990156D01*
X32874523Y14772027D01*
X33060027Y14586523D01*
X33278156Y14440774D01*
X33340648Y14414889D01*
X33009000Y14414889D01*
X32924352Y14406552D01*
X32842958Y14381861D01*
X32767944Y14341766D01*
X32702194Y14287806D01*
X32648234Y14222056D01*
X32608139Y14147042D01*
X32583448Y14065648D01*
X32575111Y13981000D01*
X30797889Y13981000D01*
X30789552Y14065648D01*
X30764861Y14147042D01*
X30724766Y14222056D01*
X30670806Y14287806D01*
X30605056Y14341766D01*
X30530042Y14381861D01*
X30448648Y14406552D01*
X30364000Y14414889D01*
X30032352Y14414889D01*
X30094844Y14440774D01*
X30312973Y14586523D01*
X30498477Y14772027D01*
X30644226Y14990156D01*
X30744620Y15232528D01*
X30795800Y15489829D01*
X30795800Y15752171D01*
X30744620Y16009472D01*
X30644226Y16251844D01*
X30498477Y16469973D01*
X30312973Y16655477D01*
X30094844Y16801226D01*
X29852472Y16901620D01*
X29595171Y16952800D01*
X29332829Y16952800D01*
X29075528Y16901620D01*
X28833156Y16801226D01*
X28615027Y16655477D01*
X28429523Y16469973D01*
X28283774Y16251844D01*
X28183380Y16009472D01*
X28132200Y15752171D01*
X28132200Y15489829D01*
X28183380Y15232528D01*
X28283774Y14990156D01*
X28429523Y14772027D01*
X28615027Y14586523D01*
X28833156Y14440774D01*
X28895648Y14414889D01*
X28564000Y14414889D01*
X28479352Y14406552D01*
X28397958Y14381861D01*
X28322944Y14341766D01*
X28257194Y14287806D01*
X28203234Y14222056D01*
X28163139Y14147042D01*
X28138448Y14065648D01*
X28130111Y13981000D01*
X481800Y13981000D01*
X481800Y16936850D01*
X3813200Y16936850D01*
X3813200Y16763150D01*
X3847087Y16592788D01*
X3913559Y16432311D01*
X4010061Y16287885D01*
X4132885Y16165061D01*
X4277311Y16068559D01*
X4437788Y16002087D01*
X4608150Y15968200D01*
X4781850Y15968200D01*
X4952212Y16002087D01*
X5112689Y16068559D01*
X5257115Y16165061D01*
X5379939Y16287885D01*
X5476441Y16432311D01*
X5542913Y16592788D01*
X5576800Y16763150D01*
X5576800Y16936850D01*
X5542913Y17107212D01*
X5476441Y17267689D01*
X5379939Y17412115D01*
X5257115Y17534939D01*
X5112689Y17631441D01*
X4952212Y17697913D01*
X4781850Y17731800D01*
X4608150Y17731800D01*
X4437788Y17697913D01*
X4277311Y17631441D01*
X4132885Y17534939D01*
X4010061Y17412115D01*
X3913559Y17267689D01*
X3847087Y17107212D01*
X3813200Y16936850D01*
X481800Y16936850D01*
X481800Y21336850D01*
X3813200Y21336850D01*
X3813200Y21163150D01*
X3847087Y20992788D01*
X3913559Y20832311D01*
X4010061Y20687885D01*
X4132885Y20565061D01*
X4277311Y20468559D01*
X4437788Y20402087D01*
X4608150Y20368200D01*
X4781850Y20368200D01*
X4952212Y20402087D01*
X5112689Y20468559D01*
X5257115Y20565061D01*
X5379939Y20687885D01*
X5476441Y20832311D01*
X5542913Y20992788D01*
X5576800Y21163150D01*
X5576800Y21336850D01*
X5542913Y21507212D01*
X5476441Y21667689D01*
X5379939Y21812115D01*
X5257115Y21934939D01*
X5112689Y22031441D01*
X4952212Y22097913D01*
X4781850Y22131800D01*
X4608150Y22131800D01*
X4437788Y22097913D01*
X4277311Y22031441D01*
X4132885Y21934939D01*
X4010061Y21812115D01*
X3913559Y21667689D01*
X3847087Y21507212D01*
X3813200Y21336850D01*
X481800Y21336850D01*
X481800Y34707258D01*
X19977598Y34707258D01*
X20042245Y34477077D01*
X20151684Y34261768D01*
X20301025Y34071946D01*
X20484529Y33914907D01*
X20695144Y33796685D01*
X20924776Y33721824D01*
X21164600Y33693200D01*
X21564600Y33693200D01*
X21564600Y34899600D01*
X21615400Y34899600D01*
X21615400Y33693200D01*
X22015400Y33693200D01*
X22255224Y33721824D01*
X22484856Y33796685D01*
X22695471Y33914907D01*
X22878975Y34071946D01*
X23028316Y34261768D01*
X23137755Y34477077D01*
X23202402Y34707258D01*
X23113563Y34899600D01*
X21615400Y34899600D01*
X21564600Y34899600D01*
X20066437Y34899600D01*
X19977598Y34707258D01*
X481800Y34707258D01*
X481800Y35142742D01*
X19977598Y35142742D01*
X20066437Y34950400D01*
X21564600Y34950400D01*
X21564600Y36156800D01*
X21615400Y36156800D01*
X21615400Y34950400D01*
X23113563Y34950400D01*
X23202402Y35142742D01*
X23137755Y35372923D01*
X23028316Y35588232D01*
X22878975Y35778054D01*
X22695471Y35935093D01*
X22484856Y36053315D01*
X22255224Y36128176D01*
X22015400Y36156800D01*
X21615400Y36156800D01*
X21564600Y36156800D01*
X21164600Y36156800D01*
X20924776Y36128176D01*
X20695144Y36053315D01*
X20484529Y35935093D01*
X20301025Y35778054D01*
X20151684Y35588232D01*
X20042245Y35372923D01*
X19977598Y35142742D01*
X481800Y35142742D01*
X481800Y40005000D01*
X19952240Y40005000D01*
X19976023Y39763525D01*
X20046459Y39531330D01*
X20160840Y39317337D01*
X20314772Y39129772D01*
X20502337Y38975840D01*
X20716330Y38861459D01*
X20948525Y38791023D01*
X21129487Y38773200D01*
X22050513Y38773200D01*
X22231475Y38791023D01*
X22463670Y38861459D01*
X22677663Y38975840D01*
X22865228Y39129772D01*
X23019160Y39317337D01*
X23133541Y39531330D01*
X23203977Y39763525D01*
X23227760Y40005000D01*
X23203977Y40246475D01*
X23133541Y40478670D01*
X23019160Y40692663D01*
X22865228Y40880228D01*
X22677663Y41034160D01*
X22463670Y41148541D01*
X22231475Y41218977D01*
X22050513Y41236800D01*
X21129487Y41236800D01*
X20948525Y41218977D01*
X20716330Y41148541D01*
X20502337Y41034160D01*
X20314772Y40880228D01*
X20160840Y40692663D01*
X20046459Y40478670D01*
X19976023Y40246475D01*
X19952240Y40005000D01*
X481800Y40005000D01*
X481800Y50165000D01*
X19952240Y50165000D01*
X19976023Y49923525D01*
X20046459Y49691330D01*
X20160840Y49477337D01*
X20314772Y49289772D01*
X20502337Y49135840D01*
X20716330Y49021459D01*
X20948525Y48951023D01*
X21129487Y48933200D01*
X22050513Y48933200D01*
X22231475Y48951023D01*
X22463670Y49021459D01*
X22677663Y49135840D01*
X22865228Y49289772D01*
X23019160Y49477337D01*
X23088038Y49606200D01*
X23185538Y49606200D01*
X26812462Y45979275D01*
X26829957Y45957957D01*
X26851274Y45940463D01*
X26915045Y45888127D01*
X27012122Y45836239D01*
X27117455Y45804286D01*
X27227000Y45793497D01*
X27254444Y45796200D01*
X27800156Y45796200D01*
X27780840Y45772663D01*
X27666459Y45558670D01*
X27596023Y45326475D01*
X27572240Y45085000D01*
X27596023Y44843525D01*
X27666459Y44611330D01*
X27780840Y44397337D01*
X27800156Y44373800D01*
X27458463Y44373800D01*
X23831543Y48000719D01*
X23814043Y48022043D01*
X23728954Y48091873D01*
X23631878Y48143761D01*
X23526544Y48175714D01*
X23444444Y48183800D01*
X23444442Y48183800D01*
X23417000Y48186503D01*
X23389558Y48183800D01*
X23088038Y48183800D01*
X23019160Y48312663D01*
X22865228Y48500228D01*
X22677663Y48654160D01*
X22463670Y48768541D01*
X22231475Y48838977D01*
X22050513Y48856800D01*
X21129487Y48856800D01*
X20948525Y48838977D01*
X20716330Y48768541D01*
X20502337Y48654160D01*
X20314772Y48500228D01*
X20160840Y48312663D01*
X20046459Y48098670D01*
X19976023Y47866475D01*
X19952240Y47625000D01*
X19976023Y47383525D01*
X20046459Y47151330D01*
X20160840Y46937337D01*
X20314772Y46749772D01*
X20502337Y46595840D01*
X20716330Y46481459D01*
X20948525Y46411023D01*
X21129487Y46393200D01*
X22050513Y46393200D01*
X22231475Y46411023D01*
X22463670Y46481459D01*
X22677663Y46595840D01*
X22865228Y46749772D01*
X23019160Y46937337D01*
X23088038Y47066200D01*
X23185538Y47066200D01*
X26812462Y43439275D01*
X26829957Y43417957D01*
X26851274Y43400463D01*
X26915045Y43348127D01*
X27012122Y43296239D01*
X27117455Y43264286D01*
X27227000Y43253497D01*
X27254444Y43256200D01*
X27800156Y43256200D01*
X27780840Y43232663D01*
X27666459Y43018670D01*
X27596023Y42786475D01*
X27572240Y42545000D01*
X27596023Y42303525D01*
X27666459Y42071330D01*
X27780840Y41857337D01*
X27800156Y41833800D01*
X27458463Y41833800D01*
X23831543Y45460719D01*
X23814043Y45482043D01*
X23728954Y45551873D01*
X23631878Y45603761D01*
X23526544Y45635714D01*
X23444444Y45643800D01*
X23444442Y45643800D01*
X23417000Y45646503D01*
X23389558Y45643800D01*
X23088038Y45643800D01*
X23019160Y45772663D01*
X22865228Y45960228D01*
X22677663Y46114160D01*
X22463670Y46228541D01*
X22231475Y46298977D01*
X22050513Y46316800D01*
X21129487Y46316800D01*
X20948525Y46298977D01*
X20716330Y46228541D01*
X20502337Y46114160D01*
X20314772Y45960228D01*
X20160840Y45772663D01*
X20046459Y45558670D01*
X19976023Y45326475D01*
X19952240Y45085000D01*
X19976023Y44843525D01*
X20046459Y44611330D01*
X20160840Y44397337D01*
X20314772Y44209772D01*
X20502337Y44055840D01*
X20716330Y43941459D01*
X20948525Y43871023D01*
X21129487Y43853200D01*
X22050513Y43853200D01*
X22231475Y43871023D01*
X22463670Y43941459D01*
X22677663Y44055840D01*
X22865228Y44209772D01*
X23019160Y44397337D01*
X23088038Y44526200D01*
X23185538Y44526200D01*
X26812462Y40899275D01*
X26829957Y40877957D01*
X26851274Y40860463D01*
X26915045Y40808127D01*
X27012122Y40756239D01*
X27117455Y40724286D01*
X27227000Y40713497D01*
X27254444Y40716200D01*
X27800156Y40716200D01*
X27780840Y40692663D01*
X27666459Y40478670D01*
X27596023Y40246475D01*
X27572240Y40005000D01*
X27596023Y39763525D01*
X27666459Y39531330D01*
X27780840Y39317337D01*
X27800156Y39293800D01*
X27458463Y39293800D01*
X23831543Y42920719D01*
X23814043Y42942043D01*
X23728954Y43011873D01*
X23631878Y43063761D01*
X23526544Y43095714D01*
X23444444Y43103800D01*
X23444442Y43103800D01*
X23417000Y43106503D01*
X23389558Y43103800D01*
X23088038Y43103800D01*
X23019160Y43232663D01*
X22865228Y43420228D01*
X22677663Y43574160D01*
X22463670Y43688541D01*
X22231475Y43758977D01*
X22050513Y43776800D01*
X21129487Y43776800D01*
X20948525Y43758977D01*
X20716330Y43688541D01*
X20502337Y43574160D01*
X20314772Y43420228D01*
X20160840Y43232663D01*
X20046459Y43018670D01*
X19976023Y42786475D01*
X19952240Y42545000D01*
X19976023Y42303525D01*
X20046459Y42071330D01*
X20160840Y41857337D01*
X20314772Y41669772D01*
X20502337Y41515840D01*
X20716330Y41401459D01*
X20948525Y41331023D01*
X21129487Y41313200D01*
X22050513Y41313200D01*
X22231475Y41331023D01*
X22463670Y41401459D01*
X22677663Y41515840D01*
X22865228Y41669772D01*
X23019160Y41857337D01*
X23088038Y41986200D01*
X23185538Y41986200D01*
X26812462Y38359275D01*
X26829957Y38337957D01*
X26851274Y38320463D01*
X26915045Y38268127D01*
X27012122Y38216239D01*
X27117455Y38184286D01*
X27227000Y38173497D01*
X27254444Y38176200D01*
X27800156Y38176200D01*
X27780840Y38152663D01*
X27666459Y37938670D01*
X27596023Y37706475D01*
X27572240Y37465000D01*
X27596023Y37223525D01*
X27666459Y36991330D01*
X27780840Y36777337D01*
X27934772Y36589772D01*
X28122337Y36435840D01*
X28336330Y36321459D01*
X28568525Y36251023D01*
X28749487Y36233200D01*
X29670513Y36233200D01*
X29851475Y36251023D01*
X30083670Y36321459D01*
X30297663Y36435840D01*
X30485228Y36589772D01*
X30639160Y36777337D01*
X30753541Y36991330D01*
X30800129Y37144909D01*
X37869862Y30075175D01*
X37887357Y30053857D01*
X37908674Y30036363D01*
X37972446Y29984027D01*
X38069522Y29932139D01*
X38174856Y29900186D01*
X38284400Y29889397D01*
X38311844Y29892100D01*
X43791557Y29892100D01*
X43878858Y29804799D01*
X44015095Y29713768D01*
X44166473Y29651065D01*
X44327175Y29619100D01*
X44491025Y29619100D01*
X44651727Y29651065D01*
X44803105Y29713768D01*
X44939342Y29804799D01*
X45055201Y29920658D01*
X45146232Y30056895D01*
X45208935Y30208273D01*
X45240900Y30368975D01*
X45240900Y30532825D01*
X45208935Y30693527D01*
X45146232Y30844905D01*
X45055201Y30981142D01*
X44939342Y31097001D01*
X44803105Y31188032D01*
X44651727Y31250735D01*
X44491025Y31282700D01*
X44327175Y31282700D01*
X44166473Y31250735D01*
X44015095Y31188032D01*
X43878858Y31097001D01*
X43791557Y31009700D01*
X38515863Y31009700D01*
X34818305Y34707258D01*
X39027598Y34707258D01*
X39092245Y34477077D01*
X39201684Y34261768D01*
X39351025Y34071946D01*
X39534529Y33914907D01*
X39745144Y33796685D01*
X39974776Y33721824D01*
X40214600Y33693200D01*
X40614600Y33693200D01*
X40614600Y34899600D01*
X40665400Y34899600D01*
X40665400Y33693200D01*
X41065400Y33693200D01*
X41305224Y33721824D01*
X41534856Y33796685D01*
X41745471Y33914907D01*
X41928975Y34071946D01*
X42078316Y34261768D01*
X42187755Y34477077D01*
X42252402Y34707258D01*
X42163563Y34899600D01*
X40665400Y34899600D01*
X40614600Y34899600D01*
X39116437Y34899600D01*
X39027598Y34707258D01*
X34818305Y34707258D01*
X30436105Y39089457D01*
X30485228Y39129772D01*
X30639160Y39317337D01*
X30753541Y39531330D01*
X30823977Y39763525D01*
X30847760Y40005000D01*
X30823977Y40246475D01*
X30756534Y40468804D01*
X35406062Y35819275D01*
X35423557Y35797957D01*
X35508646Y35728127D01*
X35605722Y35676239D01*
X35711056Y35644286D01*
X35793156Y35636200D01*
X35793158Y35636200D01*
X35820600Y35633497D01*
X35848042Y35636200D01*
X39239422Y35636200D01*
X39201684Y35588232D01*
X39092245Y35372923D01*
X39027598Y35142742D01*
X39116437Y34950400D01*
X40614600Y34950400D01*
X40614600Y34970400D01*
X40665400Y34970400D01*
X40665400Y34950400D01*
X42163563Y34950400D01*
X42252402Y35142742D01*
X42187755Y35372923D01*
X42078316Y35588232D01*
X42040578Y35636200D01*
X46758538Y35636200D01*
X46813854Y35580884D01*
X46716459Y35398670D01*
X46646023Y35166475D01*
X46622240Y34925000D01*
X46646023Y34683525D01*
X46716459Y34451330D01*
X46830840Y34237337D01*
X46984772Y34049772D01*
X47172337Y33895840D01*
X47386330Y33781459D01*
X47618525Y33711023D01*
X47798235Y33693323D01*
X47862958Y33614457D01*
X47884276Y33596962D01*
X50999962Y30481275D01*
X51017457Y30459957D01*
X51038774Y30442463D01*
X51102545Y30390127D01*
X51199622Y30338239D01*
X51304955Y30306286D01*
X51414500Y30295497D01*
X51441944Y30298200D01*
X51485257Y30298200D01*
X51572558Y30210899D01*
X51708795Y30119868D01*
X51860173Y30057165D01*
X52020875Y30025200D01*
X52184725Y30025200D01*
X52280801Y30044310D01*
X52280801Y29951764D01*
X45276738Y22947700D01*
X45153275Y22947700D01*
X44992573Y22915735D01*
X44841195Y22853032D01*
X44704958Y22762001D01*
X44589099Y22646142D01*
X44535915Y22566547D01*
X35403200Y31699262D01*
X35403200Y31822725D01*
X35371235Y31983427D01*
X35308532Y32134805D01*
X35217501Y32271042D01*
X35101642Y32386901D01*
X34965405Y32477932D01*
X34814027Y32540635D01*
X34653325Y32572600D01*
X34489475Y32572600D01*
X34328773Y32540635D01*
X34177395Y32477932D01*
X34041158Y32386901D01*
X33953857Y32299600D01*
X29372662Y32299600D01*
X26747262Y34925000D01*
X27572240Y34925000D01*
X27596023Y34683525D01*
X27666459Y34451330D01*
X27780840Y34237337D01*
X27934772Y34049772D01*
X28122337Y33895840D01*
X28336330Y33781459D01*
X28568525Y33711023D01*
X28749487Y33693200D01*
X29670513Y33693200D01*
X29851475Y33711023D01*
X30083670Y33781459D01*
X30297663Y33895840D01*
X30485228Y34049772D01*
X30639160Y34237337D01*
X30753541Y34451330D01*
X30823977Y34683525D01*
X30847760Y34925000D01*
X30823977Y35166475D01*
X30753541Y35398670D01*
X30639160Y35612663D01*
X30485228Y35800228D01*
X30297663Y35954160D01*
X30083670Y36068541D01*
X29851475Y36138977D01*
X29670513Y36156800D01*
X28749487Y36156800D01*
X28568525Y36138977D01*
X28336330Y36068541D01*
X28122337Y35954160D01*
X27934772Y35800228D01*
X27780840Y35612663D01*
X27666459Y35398670D01*
X27596023Y35166475D01*
X27572240Y34925000D01*
X26747262Y34925000D01*
X23831543Y37840719D01*
X23814043Y37862043D01*
X23728954Y37931873D01*
X23631878Y37983761D01*
X23526544Y38015714D01*
X23444444Y38023800D01*
X23444442Y38023800D01*
X23417000Y38026503D01*
X23389558Y38023800D01*
X23088038Y38023800D01*
X23019160Y38152663D01*
X22865228Y38340228D01*
X22677663Y38494160D01*
X22463670Y38608541D01*
X22231475Y38678977D01*
X22050513Y38696800D01*
X21129487Y38696800D01*
X20948525Y38678977D01*
X20716330Y38608541D01*
X20502337Y38494160D01*
X20314772Y38340228D01*
X20160840Y38152663D01*
X20046459Y37938670D01*
X19976023Y37706475D01*
X19952240Y37465000D01*
X19976023Y37223525D01*
X20046459Y36991330D01*
X20160840Y36777337D01*
X20314772Y36589772D01*
X20502337Y36435840D01*
X20716330Y36321459D01*
X20948525Y36251023D01*
X21129487Y36233200D01*
X22050513Y36233200D01*
X22231475Y36251023D01*
X22463670Y36321459D01*
X22677663Y36435840D01*
X22865228Y36589772D01*
X23019160Y36777337D01*
X23088038Y36906200D01*
X23185538Y36906200D01*
X28726657Y31365081D01*
X28744157Y31343757D01*
X28829246Y31273927D01*
X28926322Y31222039D01*
X29031656Y31190086D01*
X29113756Y31182000D01*
X29113757Y31182000D01*
X29141199Y31179297D01*
X29168641Y31182000D01*
X33953857Y31182000D01*
X34041158Y31094699D01*
X34177395Y31003668D01*
X34328773Y30940965D01*
X34489475Y30909000D01*
X34612938Y30909000D01*
X44546562Y20975375D01*
X44564057Y20954057D01*
X44585374Y20936563D01*
X44649145Y20884227D01*
X44746222Y20832339D01*
X44851555Y20800386D01*
X44961100Y20789597D01*
X44988544Y20792300D01*
X45967858Y20792300D01*
X45995300Y20789597D01*
X46022742Y20792300D01*
X46022744Y20792300D01*
X46104844Y20800386D01*
X46210178Y20832339D01*
X46307254Y20884227D01*
X46392343Y20954057D01*
X46409843Y20975381D01*
X57276362Y31841900D01*
X57399825Y31841900D01*
X57508700Y31863556D01*
X57508701Y25199064D01*
X48559481Y16249843D01*
X48538157Y16232343D01*
X48468327Y16147254D01*
X48416439Y16050177D01*
X48384486Y15944843D01*
X48376400Y15862744D01*
X48373697Y15835300D01*
X48376400Y15807858D01*
X48376401Y8935244D01*
X48289099Y8847942D01*
X48198068Y8711705D01*
X48135365Y8560327D01*
X48103400Y8399625D01*
X48103400Y8235775D01*
X48135365Y8075073D01*
X48198068Y7923695D01*
X48289099Y7787458D01*
X48404958Y7671599D01*
X48541195Y7580568D01*
X48692573Y7517865D01*
X48853275Y7485900D01*
X49017125Y7485900D01*
X49177827Y7517865D01*
X49329205Y7580568D01*
X49465442Y7671599D01*
X49581301Y7787458D01*
X49672332Y7923695D01*
X49735035Y8075073D01*
X49767000Y8235775D01*
X49767000Y8399625D01*
X49735035Y8560327D01*
X49672332Y8711705D01*
X49581301Y8847942D01*
X49494000Y8935243D01*
X49494000Y15603838D01*
X58322600Y24432437D01*
X58322600Y22294455D01*
X50426576Y14398430D01*
X50405258Y14380935D01*
X50387763Y14359617D01*
X50335428Y14295846D01*
X50283539Y14198769D01*
X50251587Y14093436D01*
X50240797Y13983892D01*
X50243501Y13956440D01*
X50243500Y9848443D01*
X50156199Y9761142D01*
X50065168Y9624905D01*
X50002465Y9473527D01*
X49970500Y9312825D01*
X49970500Y9148975D01*
X50002465Y8988273D01*
X50065168Y8836895D01*
X50156199Y8700658D01*
X50272058Y8584799D01*
X50408295Y8493768D01*
X50559673Y8431065D01*
X50720375Y8399100D01*
X50884225Y8399100D01*
X51044927Y8431065D01*
X51196305Y8493768D01*
X51332542Y8584799D01*
X51448401Y8700658D01*
X51511201Y8794644D01*
X51511201Y7724464D01*
X51203538Y7416800D01*
X43411463Y7416800D01*
X41090800Y9737462D01*
X41090800Y9860925D01*
X41058835Y10021627D01*
X40996132Y10173005D01*
X40905101Y10309242D01*
X40789242Y10425101D01*
X40653005Y10516132D01*
X40501627Y10578835D01*
X40340925Y10610800D01*
X40177075Y10610800D01*
X40016373Y10578835D01*
X39864995Y10516132D01*
X39728758Y10425101D01*
X39612899Y10309242D01*
X39521868Y10173005D01*
X39459165Y10021627D01*
X39427200Y9860925D01*
X39427200Y9697075D01*
X39459165Y9536373D01*
X39521868Y9384995D01*
X39612899Y9248758D01*
X39728758Y9132899D01*
X39864995Y9041868D01*
X40016373Y8979165D01*
X40177075Y8947200D01*
X40300538Y8947200D01*
X42765462Y6482275D01*
X42782957Y6460957D01*
X42804274Y6443463D01*
X42868045Y6391127D01*
X42965122Y6339239D01*
X43070456Y6307286D01*
X43152556Y6299200D01*
X43152558Y6299200D01*
X43180000Y6296497D01*
X43207442Y6299200D01*
X51407558Y6299200D01*
X51435000Y6296497D01*
X51462442Y6299200D01*
X51462444Y6299200D01*
X51544544Y6307286D01*
X51649878Y6339239D01*
X51746954Y6391127D01*
X51832043Y6460957D01*
X51849543Y6482281D01*
X52432905Y7065643D01*
X135318200Y7065643D01*
X135318200Y6734357D01*
X135382830Y6409437D01*
X135509608Y6103369D01*
X135693660Y5827915D01*
X135927915Y5593660D01*
X136203369Y5409608D01*
X136509437Y5282830D01*
X136834357Y5218200D01*
X137165643Y5218200D01*
X137490563Y5282830D01*
X137796631Y5409608D01*
X138072085Y5593660D01*
X138306340Y5827915D01*
X138490392Y6103369D01*
X138617170Y6409437D01*
X138681800Y6734357D01*
X138681800Y7065643D01*
X138617170Y7390563D01*
X138490392Y7696631D01*
X138306340Y7972085D01*
X138072085Y8206340D01*
X137796631Y8390392D01*
X137490563Y8517170D01*
X137165643Y8581800D01*
X136834357Y8581800D01*
X136509437Y8517170D01*
X136203369Y8390392D01*
X135927915Y8206340D01*
X135693660Y7972085D01*
X135509608Y7696631D01*
X135382830Y7390563D01*
X135318200Y7065643D01*
X52432905Y7065643D01*
X52445724Y7078461D01*
X52467043Y7095957D01*
X52495798Y7130995D01*
X52536873Y7181045D01*
X52588761Y7278122D01*
X52620714Y7383455D01*
X52631503Y7493000D01*
X52628800Y7520444D01*
X52628800Y10876925D01*
X87814200Y10876925D01*
X87814200Y10713075D01*
X87846165Y10552373D01*
X87908868Y10400995D01*
X87999899Y10264758D01*
X88115758Y10148899D01*
X88251995Y10057868D01*
X88403373Y9995165D01*
X88564075Y9963200D01*
X88727925Y9963200D01*
X88888627Y9995165D01*
X89040005Y10057868D01*
X89176242Y10148899D01*
X89292101Y10264758D01*
X89383132Y10400995D01*
X89445835Y10552373D01*
X89477800Y10713075D01*
X89477800Y10836538D01*
X100942463Y22301200D01*
X133336111Y22301200D01*
X133336111Y22010000D01*
X133344448Y21925352D01*
X133369139Y21843958D01*
X133409234Y21768944D01*
X133463194Y21703194D01*
X133528944Y21649234D01*
X133603958Y21609139D01*
X133685352Y21584448D01*
X133770000Y21576111D01*
X134364607Y21576111D01*
X134246113Y21552541D01*
X134012840Y21455916D01*
X133802900Y21315639D01*
X133624361Y21137100D01*
X133484084Y20927160D01*
X133387459Y20693887D01*
X133338200Y20446246D01*
X133338200Y20193754D01*
X133387459Y19946113D01*
X133484084Y19712840D01*
X133624361Y19502900D01*
X133802900Y19324361D01*
X134012840Y19184084D01*
X134246113Y19087459D01*
X134434432Y19050000D01*
X134246113Y19012541D01*
X134012840Y18915916D01*
X133802900Y18775639D01*
X133624361Y18597100D01*
X133484084Y18387160D01*
X133387459Y18153887D01*
X133338200Y17906246D01*
X133338200Y17653754D01*
X133387459Y17406113D01*
X133484084Y17172840D01*
X133624361Y16962900D01*
X133802900Y16784361D01*
X134012840Y16644084D01*
X134246113Y16547459D01*
X134434432Y16510000D01*
X134246113Y16472541D01*
X134012840Y16375916D01*
X133802900Y16235639D01*
X133624361Y16057100D01*
X133484084Y15847160D01*
X133387459Y15613887D01*
X133338200Y15366246D01*
X133338200Y15113754D01*
X133387459Y14866113D01*
X133484084Y14632840D01*
X133624361Y14422900D01*
X133802900Y14244361D01*
X134012840Y14104084D01*
X134246113Y14007459D01*
X134493754Y13958200D01*
X134746246Y13958200D01*
X134993887Y14007459D01*
X135227160Y14104084D01*
X135437100Y14244361D01*
X135615639Y14422900D01*
X135755916Y14632840D01*
X135852541Y14866113D01*
X135901800Y15113754D01*
X135901800Y15366246D01*
X135852541Y15613887D01*
X135755916Y15847160D01*
X135615639Y16057100D01*
X135437100Y16235639D01*
X135227160Y16375916D01*
X134993887Y16472541D01*
X134805568Y16510000D01*
X134993887Y16547459D01*
X135227160Y16644084D01*
X135437100Y16784361D01*
X135615639Y16962900D01*
X135755916Y17172840D01*
X135852541Y17406113D01*
X135901800Y17653754D01*
X135901800Y17906246D01*
X135852541Y18153887D01*
X135755916Y18387160D01*
X135615639Y18597100D01*
X135437100Y18775639D01*
X135227160Y18915916D01*
X134993887Y19012541D01*
X134805568Y19050000D01*
X134993887Y19087459D01*
X135227160Y19184084D01*
X135437100Y19324361D01*
X135615639Y19502900D01*
X135755916Y19712840D01*
X135852541Y19946113D01*
X135901800Y20193754D01*
X135901800Y20446246D01*
X135852541Y20693887D01*
X135755916Y20927160D01*
X135615639Y21137100D01*
X135437100Y21315639D01*
X135227160Y21455916D01*
X134993887Y21552541D01*
X134875393Y21576111D01*
X135470000Y21576111D01*
X135554648Y21584448D01*
X135636042Y21609139D01*
X135711056Y21649234D01*
X135776806Y21703194D01*
X135830766Y21768944D01*
X135870861Y21843958D01*
X135895552Y21925352D01*
X135903889Y22010000D01*
X135903889Y23710000D01*
X135895552Y23794648D01*
X135870861Y23876042D01*
X135830766Y23951056D01*
X135776806Y24016806D01*
X135711056Y24070766D01*
X135636042Y24110861D01*
X135554648Y24135552D01*
X135470000Y24143889D01*
X133770000Y24143889D01*
X133685352Y24135552D01*
X133603958Y24110861D01*
X133528944Y24070766D01*
X133463194Y24016806D01*
X133409234Y23951056D01*
X133369139Y23876042D01*
X133344448Y23794648D01*
X133336111Y23710000D01*
X133336111Y23418800D01*
X100738444Y23418800D01*
X100711000Y23421503D01*
X100601455Y23410714D01*
X100496122Y23378761D01*
X100399045Y23326873D01*
X100348995Y23285798D01*
X100313957Y23257043D01*
X100296462Y23235725D01*
X88687538Y11626800D01*
X88564075Y11626800D01*
X88403373Y11594835D01*
X88251995Y11532132D01*
X88115758Y11441101D01*
X87999899Y11325242D01*
X87908868Y11189005D01*
X87846165Y11037627D01*
X87814200Y10876925D01*
X52628800Y10876925D01*
X52628800Y14373538D01*
X53269696Y15014434D01*
X64778203Y15014434D01*
X64787931Y14965527D01*
X64865536Y14726534D01*
X64988275Y14507273D01*
X65151431Y14316171D01*
X65348735Y14160571D01*
X65572604Y14046453D01*
X65814434Y13978202D01*
X66014600Y14066401D01*
X66014600Y15214600D01*
X66065400Y15214600D01*
X66065400Y14066401D01*
X66265566Y13978202D01*
X66507396Y14046453D01*
X66731265Y14160571D01*
X66928569Y14316171D01*
X67091725Y14507273D01*
X67214464Y14726534D01*
X67292069Y14965527D01*
X67301797Y15014434D01*
X67213575Y15214600D01*
X66065400Y15214600D01*
X66014600Y15214600D01*
X64866425Y15214600D01*
X64778203Y15014434D01*
X53269696Y15014434D01*
X61965262Y23710000D01*
X64756111Y23710000D01*
X64756111Y22010000D01*
X64764448Y21925352D01*
X64789139Y21843958D01*
X64829234Y21768944D01*
X64883194Y21703194D01*
X64948944Y21649234D01*
X65023958Y21609139D01*
X65105352Y21584448D01*
X65190000Y21576111D01*
X65784607Y21576111D01*
X65666113Y21552541D01*
X65432840Y21455916D01*
X65222900Y21315639D01*
X65044361Y21137100D01*
X64904084Y20927160D01*
X64807459Y20693887D01*
X64758200Y20446246D01*
X64758200Y20193754D01*
X64807459Y19946113D01*
X64904084Y19712840D01*
X65044361Y19502900D01*
X65222900Y19324361D01*
X65432840Y19184084D01*
X65666113Y19087459D01*
X65854432Y19050000D01*
X65666113Y19012541D01*
X65432840Y18915916D01*
X65222900Y18775639D01*
X65044361Y18597100D01*
X64904084Y18387160D01*
X64807459Y18153887D01*
X64758200Y17906246D01*
X64758200Y17653754D01*
X64807459Y17406113D01*
X64904084Y17172840D01*
X65044361Y16962900D01*
X65222900Y16784361D01*
X65432840Y16644084D01*
X65666113Y16547459D01*
X65913754Y16498200D01*
X66014598Y16498200D01*
X66014598Y16413600D01*
X65814434Y16501798D01*
X65572604Y16433547D01*
X65348735Y16319429D01*
X65151431Y16163829D01*
X64988275Y15972727D01*
X64865536Y15753466D01*
X64787931Y15514473D01*
X64778203Y15465566D01*
X64866425Y15265400D01*
X66014600Y15265400D01*
X66014600Y15285400D01*
X66065400Y15285400D01*
X66065400Y15265400D01*
X67213575Y15265400D01*
X67301797Y15465566D01*
X67292069Y15514473D01*
X67214464Y15753466D01*
X67091725Y15972727D01*
X66928569Y16163829D01*
X66731265Y16319429D01*
X66507396Y16433547D01*
X66265566Y16501798D01*
X66065402Y16413600D01*
X66065402Y16498200D01*
X66166246Y16498200D01*
X66413887Y16547459D01*
X66647160Y16644084D01*
X66857100Y16784361D01*
X67035639Y16962900D01*
X67175916Y17172840D01*
X67272541Y17406113D01*
X67321800Y17653754D01*
X67321800Y17906246D01*
X67272541Y18153887D01*
X67175916Y18387160D01*
X67035639Y18597100D01*
X66857100Y18775639D01*
X66647160Y18915916D01*
X66413887Y19012541D01*
X66225568Y19050000D01*
X66413887Y19087459D01*
X66647160Y19184084D01*
X66857100Y19324361D01*
X67035639Y19502900D01*
X67175916Y19712840D01*
X67272541Y19946113D01*
X67321800Y20193754D01*
X67321800Y20446246D01*
X67272541Y20693887D01*
X67175916Y20927160D01*
X67035639Y21137100D01*
X66857100Y21315639D01*
X66647160Y21455916D01*
X66413887Y21552541D01*
X66295393Y21576111D01*
X66890000Y21576111D01*
X66974648Y21584448D01*
X67056042Y21609139D01*
X67131056Y21649234D01*
X67196806Y21703194D01*
X67250766Y21768944D01*
X67290861Y21843958D01*
X67315552Y21925352D01*
X67323889Y22010000D01*
X67323889Y23710000D01*
X67315552Y23794648D01*
X67290861Y23876042D01*
X67250766Y23951056D01*
X67196806Y24016806D01*
X67131056Y24070766D01*
X67056042Y24110861D01*
X66974648Y24135552D01*
X66890000Y24143889D01*
X65190000Y24143889D01*
X65105352Y24135552D01*
X65023958Y24110861D01*
X64948944Y24070766D01*
X64883194Y24016806D01*
X64829234Y23951056D01*
X64789139Y23876042D01*
X64764448Y23794648D01*
X64756111Y23710000D01*
X61965262Y23710000D01*
X68404828Y30149566D01*
X136147680Y30149566D01*
X136147680Y29769034D01*
X136221918Y29395815D01*
X136367541Y29044250D01*
X136578953Y28727849D01*
X136848029Y28458773D01*
X137164430Y28247361D01*
X137515995Y28101738D01*
X137889214Y28027500D01*
X138269746Y28027500D01*
X138642965Y28101738D01*
X138994530Y28247361D01*
X139310931Y28458773D01*
X139580007Y28727849D01*
X139791419Y29044250D01*
X139937042Y29395815D01*
X140011280Y29769034D01*
X140011280Y30149566D01*
X139937042Y30522785D01*
X139791419Y30874350D01*
X139580007Y31190751D01*
X139310931Y31459827D01*
X138994530Y31671239D01*
X138642965Y31816862D01*
X138269746Y31891100D01*
X137889214Y31891100D01*
X137515995Y31816862D01*
X137164430Y31671239D01*
X136848029Y31459827D01*
X136578953Y31190751D01*
X136367541Y30874350D01*
X136221918Y30522785D01*
X136147680Y30149566D01*
X68404828Y30149566D01*
X71622719Y33367457D01*
X71644043Y33384957D01*
X71713873Y33470046D01*
X71765761Y33567122D01*
X71797714Y33672456D01*
X71805800Y33754556D01*
X71805800Y33754557D01*
X71808503Y33781999D01*
X71805800Y33809441D01*
X71805800Y40789538D01*
X79460463Y48444200D01*
X79583925Y48444200D01*
X79744627Y48476165D01*
X79896005Y48538868D01*
X80032242Y48629899D01*
X80148101Y48745758D01*
X80239132Y48881995D01*
X80301835Y49033373D01*
X80333800Y49194075D01*
X80333800Y49357925D01*
X80301835Y49518627D01*
X80239132Y49670005D01*
X80148101Y49806242D01*
X80032242Y49922101D01*
X79896005Y50013132D01*
X79744627Y50075835D01*
X79583925Y50107800D01*
X79420075Y50107800D01*
X79259373Y50075835D01*
X79107995Y50013132D01*
X78971758Y49922101D01*
X78855899Y49806242D01*
X78764868Y49670005D01*
X78702165Y49518627D01*
X78670200Y49357925D01*
X78670200Y49234463D01*
X70871281Y41435543D01*
X70849957Y41418043D01*
X70780127Y41332954D01*
X70728239Y41235877D01*
X70696286Y41130543D01*
X70689350Y41060122D01*
X70685497Y41021000D01*
X70688200Y40993558D01*
X70688201Y34013463D01*
X59440200Y22765462D01*
X59440200Y30149566D01*
X61149100Y30149566D01*
X61149100Y29769034D01*
X61223338Y29395815D01*
X61368961Y29044250D01*
X61580373Y28727849D01*
X61849449Y28458773D01*
X62165850Y28247361D01*
X62517415Y28101738D01*
X62890634Y28027500D01*
X63271166Y28027500D01*
X63644385Y28101738D01*
X63995950Y28247361D01*
X64312351Y28458773D01*
X64581427Y28727849D01*
X64792839Y29044250D01*
X64938462Y29395815D01*
X65012700Y29769034D01*
X65012700Y30149566D01*
X64938462Y30522785D01*
X64792839Y30874350D01*
X64581427Y31190751D01*
X64312351Y31459827D01*
X63995950Y31671239D01*
X63644385Y31816862D01*
X63271166Y31891100D01*
X62890634Y31891100D01*
X62517415Y31816862D01*
X62165850Y31671239D01*
X61849449Y31459827D01*
X61580373Y31190751D01*
X61368961Y30874350D01*
X61223338Y30522785D01*
X61149100Y30149566D01*
X59440200Y30149566D01*
X59440200Y30818338D01*
X79331219Y50709357D01*
X79352543Y50726857D01*
X79422373Y50811946D01*
X79474261Y50909022D01*
X79506214Y51014356D01*
X79514300Y51096456D01*
X79514300Y51096457D01*
X79517003Y51123899D01*
X79514300Y51151341D01*
X79514300Y52386357D01*
X79601601Y52473658D01*
X79692632Y52609895D01*
X79755335Y52761273D01*
X79787300Y52921975D01*
X79787300Y53085825D01*
X79755335Y53246527D01*
X79692632Y53397905D01*
X79601601Y53534142D01*
X79485742Y53650001D01*
X79349505Y53741032D01*
X79198127Y53803735D01*
X79037425Y53835700D01*
X78873575Y53835700D01*
X78712873Y53803735D01*
X78561495Y53741032D01*
X78425258Y53650001D01*
X78309399Y53534142D01*
X78218368Y53397905D01*
X78155665Y53246527D01*
X78123700Y53085825D01*
X78123700Y52921975D01*
X78155665Y52761273D01*
X78218368Y52609895D01*
X78309399Y52473658D01*
X78396701Y52386356D01*
X78396700Y51355362D01*
X75371400Y48330062D01*
X75371400Y48330225D01*
X75339435Y48490927D01*
X75276732Y48642305D01*
X75185701Y48778542D01*
X75069842Y48894401D01*
X74933605Y48985432D01*
X74782227Y49048135D01*
X74621525Y49080100D01*
X74457675Y49080100D01*
X74296973Y49048135D01*
X74145595Y48985432D01*
X74009358Y48894401D01*
X73893499Y48778542D01*
X73802468Y48642305D01*
X73739765Y48490927D01*
X73707800Y48330225D01*
X73707800Y48166375D01*
X73739765Y48005673D01*
X73802468Y47854295D01*
X73842268Y47794730D01*
X67580238Y41532700D01*
X61479963Y41532700D01*
X55011943Y48000719D01*
X54994443Y48022043D01*
X54909354Y48091873D01*
X54812278Y48143761D01*
X54706944Y48175714D01*
X54624844Y48183800D01*
X54624842Y48183800D01*
X54597400Y48186503D01*
X54569958Y48183800D01*
X49758038Y48183800D01*
X49689160Y48312663D01*
X49535228Y48500228D01*
X49347663Y48654160D01*
X49133670Y48768541D01*
X48901475Y48838977D01*
X48720513Y48856800D01*
X47799487Y48856800D01*
X47618525Y48838977D01*
X47386330Y48768541D01*
X47172337Y48654160D01*
X46984772Y48500228D01*
X46830840Y48312663D01*
X46716459Y48098670D01*
X46646023Y47866475D01*
X46622240Y47625000D01*
X46646023Y47383525D01*
X46711898Y47166365D01*
X43713263Y50165000D01*
X46622240Y50165000D01*
X46646023Y49923525D01*
X46716459Y49691330D01*
X46830840Y49477337D01*
X46984772Y49289772D01*
X47172337Y49135840D01*
X47386330Y49021459D01*
X47618525Y48951023D01*
X47799487Y48933200D01*
X48720513Y48933200D01*
X48901475Y48951023D01*
X49133670Y49021459D01*
X49347663Y49135840D01*
X49535228Y49289772D01*
X49689160Y49477337D01*
X49803541Y49691330D01*
X49873977Y49923525D01*
X49897760Y50165000D01*
X49873977Y50406475D01*
X49803541Y50638670D01*
X49689160Y50852663D01*
X49535228Y51040228D01*
X49347663Y51194160D01*
X49133670Y51308541D01*
X48901475Y51378977D01*
X48720513Y51396800D01*
X47799487Y51396800D01*
X47618525Y51378977D01*
X47386330Y51308541D01*
X47172337Y51194160D01*
X46984772Y51040228D01*
X46830840Y50852663D01*
X46716459Y50638670D01*
X46646023Y50406475D01*
X46622240Y50165000D01*
X43713263Y50165000D01*
X42205486Y51672776D01*
X42240861Y51738958D01*
X42265552Y51820352D01*
X42273889Y51905000D01*
X42273889Y52705000D01*
X46622240Y52705000D01*
X46646023Y52463525D01*
X46716459Y52231330D01*
X46830840Y52017337D01*
X46984772Y51829772D01*
X47172337Y51675840D01*
X47386330Y51561459D01*
X47618525Y51491023D01*
X47799487Y51473200D01*
X48720513Y51473200D01*
X48901475Y51491023D01*
X49133670Y51561459D01*
X49347663Y51675840D01*
X49535228Y51829772D01*
X49689160Y52017337D01*
X49803541Y52231330D01*
X49873977Y52463525D01*
X49897760Y52705000D01*
X49873977Y52946475D01*
X49803541Y53178670D01*
X49689160Y53392663D01*
X49535228Y53580228D01*
X49347663Y53734160D01*
X49133670Y53848541D01*
X48901475Y53918977D01*
X48720513Y53936800D01*
X47799487Y53936800D01*
X47618525Y53918977D01*
X47386330Y53848541D01*
X47172337Y53734160D01*
X46984772Y53580228D01*
X46830840Y53392663D01*
X46716459Y53178670D01*
X46646023Y52946475D01*
X46622240Y52705000D01*
X42273889Y52705000D01*
X42273889Y53505000D01*
X42265552Y53589648D01*
X42240861Y53671042D01*
X42200766Y53746056D01*
X42146806Y53811806D01*
X42081056Y53865766D01*
X42006042Y53905861D01*
X41924648Y53930552D01*
X41840000Y53938889D01*
X39440000Y53938889D01*
X39355352Y53930552D01*
X39273958Y53905861D01*
X39198944Y53865766D01*
X39133194Y53811806D01*
X39079234Y53746056D01*
X39039139Y53671042D01*
X39014448Y53589648D01*
X39006111Y53505000D01*
X39006111Y51993800D01*
X30619844Y51993800D01*
X30639160Y52017337D01*
X30753541Y52231330D01*
X30823977Y52463525D01*
X30847760Y52705000D01*
X30823977Y52946475D01*
X30753541Y53178670D01*
X30639160Y53392663D01*
X30485228Y53580228D01*
X30297663Y53734160D01*
X30083670Y53848541D01*
X29851475Y53918977D01*
X29670513Y53936800D01*
X28749487Y53936800D01*
X28568525Y53918977D01*
X28336330Y53848541D01*
X28122337Y53734160D01*
X27934772Y53580228D01*
X27780840Y53392663D01*
X27666459Y53178670D01*
X27596023Y52946475D01*
X27572240Y52705000D01*
X27596023Y52463525D01*
X27666459Y52231330D01*
X27780840Y52017337D01*
X27800156Y51993800D01*
X24918462Y51993800D01*
X23831543Y53080719D01*
X23814043Y53102043D01*
X23728954Y53171873D01*
X23631878Y53223761D01*
X23526544Y53255714D01*
X23444444Y53263800D01*
X23444442Y53263800D01*
X23417000Y53266503D01*
X23389558Y53263800D01*
X23223889Y53263800D01*
X23223889Y53505000D01*
X23215552Y53589648D01*
X23190861Y53671042D01*
X23150766Y53746056D01*
X23096806Y53811806D01*
X23031056Y53865766D01*
X22956042Y53905861D01*
X22874648Y53930552D01*
X22790000Y53938889D01*
X20390000Y53938889D01*
X20305352Y53930552D01*
X20223958Y53905861D01*
X20148944Y53865766D01*
X20083194Y53811806D01*
X20029234Y53746056D01*
X19989139Y53671042D01*
X19964448Y53589648D01*
X19956111Y53505000D01*
X19956111Y51905000D01*
X19964448Y51820352D01*
X19989139Y51738958D01*
X20029234Y51663944D01*
X20083194Y51598194D01*
X20148944Y51544234D01*
X20223958Y51504139D01*
X20305352Y51479448D01*
X20390000Y51471111D01*
X22790000Y51471111D01*
X22874648Y51479448D01*
X22956042Y51504139D01*
X23031056Y51544234D01*
X23096806Y51598194D01*
X23150766Y51663944D01*
X23190861Y51738958D01*
X23215552Y51820352D01*
X23223889Y51905000D01*
X23223889Y52107849D01*
X24272457Y51059281D01*
X24289957Y51037957D01*
X24375046Y50968127D01*
X24472122Y50916239D01*
X24577456Y50884286D01*
X24659556Y50876200D01*
X24659557Y50876200D01*
X24686999Y50873497D01*
X24714441Y50876200D01*
X27800156Y50876200D01*
X27780840Y50852663D01*
X27666459Y50638670D01*
X27596023Y50406475D01*
X27572240Y50165000D01*
X27596023Y49923525D01*
X27666459Y49691330D01*
X27780840Y49477337D01*
X27934772Y49289772D01*
X28122337Y49135840D01*
X28336330Y49021459D01*
X28568525Y48951023D01*
X28749487Y48933200D01*
X29670513Y48933200D01*
X29851475Y48951023D01*
X30083670Y49021459D01*
X30297663Y49135840D01*
X30485228Y49289772D01*
X30639160Y49477337D01*
X30708038Y49606200D01*
X30805538Y49606200D01*
X31892457Y48519281D01*
X31909957Y48497957D01*
X31995046Y48428127D01*
X32092122Y48376239D01*
X32197456Y48344286D01*
X32279556Y48336200D01*
X32279557Y48336200D01*
X32306999Y48333497D01*
X32334441Y48336200D01*
X39230156Y48336200D01*
X39210840Y48312663D01*
X39141962Y48183800D01*
X30708038Y48183800D01*
X30639160Y48312663D01*
X30485228Y48500228D01*
X30297663Y48654160D01*
X30083670Y48768541D01*
X29851475Y48838977D01*
X29670513Y48856800D01*
X28749487Y48856800D01*
X28568525Y48838977D01*
X28336330Y48768541D01*
X28122337Y48654160D01*
X27934772Y48500228D01*
X27780840Y48312663D01*
X27666459Y48098670D01*
X27596023Y47866475D01*
X27572240Y47625000D01*
X27596023Y47383525D01*
X27666459Y47151330D01*
X27780840Y46937337D01*
X27800156Y46913800D01*
X27458463Y46913800D01*
X23831543Y50540719D01*
X23814043Y50562043D01*
X23728954Y50631873D01*
X23631878Y50683761D01*
X23526544Y50715714D01*
X23444444Y50723800D01*
X23444442Y50723800D01*
X23417000Y50726503D01*
X23389558Y50723800D01*
X23088038Y50723800D01*
X23019160Y50852663D01*
X22865228Y51040228D01*
X22677663Y51194160D01*
X22463670Y51308541D01*
X22231475Y51378977D01*
X22050513Y51396800D01*
X21129487Y51396800D01*
X20948525Y51378977D01*
X20716330Y51308541D01*
X20502337Y51194160D01*
X20314772Y51040228D01*
X20160840Y50852663D01*
X20046459Y50638670D01*
X19976023Y50406475D01*
X19952240Y50165000D01*
X481800Y50165000D01*
X481800Y64400000D01*
X32956111Y64400000D01*
X32956111Y62600000D01*
X32964448Y62515352D01*
X32989139Y62433958D01*
X33029234Y62358944D01*
X33083194Y62293194D01*
X33148944Y62239234D01*
X33223958Y62199139D01*
X33305352Y62174448D01*
X33390000Y62166111D01*
X35190000Y62166111D01*
X35274648Y62174448D01*
X35356042Y62199139D01*
X35431056Y62239234D01*
X35496806Y62293194D01*
X35550766Y62358944D01*
X35590861Y62433958D01*
X35615552Y62515352D01*
X35623889Y62600000D01*
X35623889Y62931648D01*
X35649774Y62869156D01*
X35795523Y62651027D01*
X35981027Y62465523D01*
X36199156Y62319774D01*
X36441528Y62219380D01*
X36698829Y62168200D01*
X36961171Y62168200D01*
X36962804Y62168525D01*
X52368200Y62168525D01*
X52368200Y62004675D01*
X52400165Y61843973D01*
X52462868Y61692595D01*
X52553899Y61556358D01*
X52669758Y61440499D01*
X52805995Y61349468D01*
X52957373Y61286765D01*
X53118075Y61254800D01*
X53241538Y61254800D01*
X55944062Y58552275D01*
X55961557Y58530957D01*
X56046646Y58461127D01*
X56143722Y58409239D01*
X56249056Y58377286D01*
X56331156Y58369200D01*
X56331158Y58369200D01*
X56358600Y58366497D01*
X56386042Y58369200D01*
X76253738Y58369200D01*
X93088657Y41534281D01*
X93106157Y41512957D01*
X93191246Y41443127D01*
X93288322Y41391239D01*
X93393656Y41359286D01*
X93475756Y41351200D01*
X93475757Y41351200D01*
X93503199Y41348497D01*
X93530641Y41351200D01*
X120601693Y41351200D01*
X120651155Y41231788D01*
X120807848Y40997281D01*
X121007281Y40797848D01*
X121241788Y40641155D01*
X121502359Y40533223D01*
X121778980Y40478200D01*
X122061020Y40478200D01*
X122337641Y40533223D01*
X122598212Y40641155D01*
X122832719Y40797848D01*
X122986079Y40951208D01*
X123537129Y40951208D01*
X123635018Y40731296D01*
X123880824Y40592999D01*
X124148886Y40505313D01*
X124428905Y40471608D01*
X124710119Y40493181D01*
X124981720Y40569200D01*
X125233273Y40696745D01*
X125284982Y40731296D01*
X125382871Y40951208D01*
X124460000Y41874079D01*
X123537129Y40951208D01*
X122986079Y40951208D01*
X123032152Y40997281D01*
X123188845Y41231788D01*
X123193207Y41242319D01*
X123246745Y41136727D01*
X123281296Y41085018D01*
X123501208Y40987129D01*
X124424079Y41910000D01*
X124495921Y41910000D01*
X125418792Y40987129D01*
X125638704Y41085018D01*
X125726968Y41241896D01*
X125731155Y41231788D01*
X125887848Y40997281D01*
X126087281Y40797848D01*
X126321788Y40641155D01*
X126582359Y40533223D01*
X126858980Y40478200D01*
X127141020Y40478200D01*
X127417641Y40533223D01*
X127678212Y40641155D01*
X127912719Y40797848D01*
X128112152Y40997281D01*
X128268845Y41231788D01*
X128270000Y41234576D01*
X128271155Y41231788D01*
X128427848Y40997281D01*
X128627281Y40797848D01*
X128861788Y40641155D01*
X129122359Y40533223D01*
X129398980Y40478200D01*
X129681020Y40478200D01*
X129957641Y40533223D01*
X130218212Y40641155D01*
X130452719Y40797848D01*
X130652152Y40997281D01*
X130808845Y41231788D01*
X130916777Y41492359D01*
X130971800Y41768980D01*
X130971800Y42051020D01*
X130916777Y42327641D01*
X130808845Y42588212D01*
X130652152Y42822719D01*
X130452719Y43022152D01*
X130218212Y43178845D01*
X129957641Y43286777D01*
X129681020Y43341800D01*
X129398980Y43341800D01*
X129122359Y43286777D01*
X128861788Y43178845D01*
X128627281Y43022152D01*
X128427848Y42822719D01*
X128271155Y42588212D01*
X128270000Y42585424D01*
X128268845Y42588212D01*
X128112152Y42822719D01*
X127912719Y43022152D01*
X127678212Y43178845D01*
X127417641Y43286777D01*
X127141020Y43341800D01*
X126858980Y43341800D01*
X126582359Y43286777D01*
X126321788Y43178845D01*
X126087281Y43022152D01*
X125887848Y42822719D01*
X125731155Y42588212D01*
X125726793Y42577681D01*
X125673255Y42683273D01*
X125638704Y42734982D01*
X125418792Y42832871D01*
X124495921Y41910000D01*
X124424079Y41910000D01*
X123501208Y42832871D01*
X123281296Y42734982D01*
X123193032Y42578104D01*
X123188845Y42588212D01*
X123032152Y42822719D01*
X122986079Y42868792D01*
X123537129Y42868792D01*
X124460000Y41945921D01*
X125382871Y42868792D01*
X125284982Y43088704D01*
X125039176Y43227001D01*
X124771114Y43314687D01*
X124491095Y43348392D01*
X124209881Y43326819D01*
X123938280Y43250800D01*
X123686727Y43123255D01*
X123635018Y43088704D01*
X123537129Y42868792D01*
X122986079Y42868792D01*
X122832719Y43022152D01*
X122598212Y43178845D01*
X122337641Y43286777D01*
X122061020Y43341800D01*
X121778980Y43341800D01*
X121502359Y43286777D01*
X121241788Y43178845D01*
X121007281Y43022152D01*
X120807848Y42822719D01*
X120651155Y42588212D01*
X120601693Y42468800D01*
X93734662Y42468800D01*
X83653462Y52550000D01*
X129896111Y52550000D01*
X129896111Y49050000D01*
X129904448Y48965352D01*
X129929139Y48883958D01*
X129969234Y48808944D01*
X130023194Y48743194D01*
X130088944Y48689234D01*
X130163958Y48649139D01*
X130245352Y48624448D01*
X130330000Y48616111D01*
X133830000Y48616111D01*
X133914648Y48624448D01*
X133996042Y48649139D01*
X134071056Y48689234D01*
X134136806Y48743194D01*
X134190766Y48808944D01*
X134230861Y48883958D01*
X134255552Y48965352D01*
X134263889Y49050000D01*
X136146111Y49050000D01*
X136154448Y48965352D01*
X136179139Y48883958D01*
X136219234Y48808944D01*
X136273194Y48743194D01*
X136338944Y48689234D01*
X136413958Y48649139D01*
X136495352Y48624448D01*
X136580000Y48616111D01*
X137946650Y48618200D01*
X138054600Y48726150D01*
X138054600Y50774600D01*
X138105400Y50774600D01*
X138105400Y48726150D01*
X138213350Y48618200D01*
X139580000Y48616111D01*
X139664648Y48624448D01*
X139746042Y48649139D01*
X139821056Y48689234D01*
X139886806Y48743194D01*
X139940766Y48808944D01*
X139980861Y48883958D01*
X140005552Y48965352D01*
X140013889Y49050000D01*
X140011800Y50666650D01*
X139903850Y50774600D01*
X138105400Y50774600D01*
X138054600Y50774600D01*
X136256150Y50774600D01*
X136148200Y50666650D01*
X136146111Y49050000D01*
X134263889Y49050000D01*
X134263889Y52550000D01*
X136146111Y52550000D01*
X136148200Y50933350D01*
X136256150Y50825400D01*
X138054600Y50825400D01*
X138054600Y52873850D01*
X138105400Y52873850D01*
X138105400Y50825400D01*
X139903850Y50825400D01*
X140011800Y50933350D01*
X140013889Y52550000D01*
X140005552Y52634648D01*
X139980861Y52716042D01*
X139940766Y52791056D01*
X139886806Y52856806D01*
X139821056Y52910766D01*
X139746042Y52950861D01*
X139664648Y52975552D01*
X139580000Y52983889D01*
X138213350Y52981800D01*
X138105400Y52873850D01*
X138054600Y52873850D01*
X137946650Y52981800D01*
X136580000Y52983889D01*
X136495352Y52975552D01*
X136413958Y52950861D01*
X136338944Y52910766D01*
X136273194Y52856806D01*
X136219234Y52791056D01*
X136179139Y52716042D01*
X136154448Y52634648D01*
X136146111Y52550000D01*
X134263889Y52550000D01*
X134255552Y52634648D01*
X134230861Y52716042D01*
X134190766Y52791056D01*
X134136806Y52856806D01*
X134071056Y52910766D01*
X133996042Y52950861D01*
X133914648Y52975552D01*
X133830000Y52983889D01*
X130330000Y52983889D01*
X130245352Y52975552D01*
X130163958Y52950861D01*
X130088944Y52910766D01*
X130023194Y52856806D01*
X129969234Y52791056D01*
X129929139Y52716042D01*
X129904448Y52634648D01*
X129896111Y52550000D01*
X83653462Y52550000D01*
X82453462Y53750000D01*
X132896111Y53750000D01*
X132904448Y53665352D01*
X132929139Y53583958D01*
X132969234Y53508944D01*
X133023194Y53443194D01*
X133088944Y53389234D01*
X133163958Y53349139D01*
X133245352Y53324448D01*
X133330000Y53316111D01*
X134946650Y53318200D01*
X135054600Y53426150D01*
X135054600Y55474600D01*
X135105400Y55474600D01*
X135105400Y53426150D01*
X135213350Y53318200D01*
X136830000Y53316111D01*
X136914648Y53324448D01*
X136996042Y53349139D01*
X137071056Y53389234D01*
X137136806Y53443194D01*
X137190766Y53508944D01*
X137230861Y53583958D01*
X137255552Y53665352D01*
X137263889Y53750000D01*
X137261800Y55366650D01*
X137153850Y55474600D01*
X135105400Y55474600D01*
X135054600Y55474600D01*
X133006150Y55474600D01*
X132898200Y55366650D01*
X132896111Y53750000D01*
X82453462Y53750000D01*
X78953462Y57250000D01*
X132896111Y57250000D01*
X132898200Y55633350D01*
X133006150Y55525400D01*
X135054600Y55525400D01*
X135054600Y57573850D01*
X135105400Y57573850D01*
X135105400Y55525400D01*
X137153850Y55525400D01*
X137261800Y55633350D01*
X137263889Y57250000D01*
X137255552Y57334648D01*
X137230861Y57416042D01*
X137190766Y57491056D01*
X137136806Y57556806D01*
X137071056Y57610766D01*
X136996042Y57650861D01*
X136914648Y57675552D01*
X136830000Y57683889D01*
X135213350Y57681800D01*
X135105400Y57573850D01*
X135054600Y57573850D01*
X134946650Y57681800D01*
X133330000Y57683889D01*
X133245352Y57675552D01*
X133163958Y57650861D01*
X133088944Y57610766D01*
X133023194Y57556806D01*
X132969234Y57491056D01*
X132929139Y57416042D01*
X132904448Y57334648D01*
X132896111Y57250000D01*
X78953462Y57250000D01*
X76899743Y59303719D01*
X76882243Y59325043D01*
X76816192Y59379249D01*
X76943489Y59447291D01*
X77146281Y59613719D01*
X77312709Y59816511D01*
X77436376Y60047876D01*
X77473161Y60169141D01*
X77519297Y60026876D01*
X77646760Y59798972D01*
X77816235Y59600314D01*
X78021210Y59438536D01*
X78253808Y59319856D01*
X78505090Y59248834D01*
X78506611Y59248809D01*
X78714600Y59336414D01*
X78714600Y60934600D01*
X78694600Y60934600D01*
X78694600Y60985400D01*
X78714600Y60985400D01*
X78714600Y62583586D01*
X78765400Y62583586D01*
X78765400Y60985400D01*
X78785400Y60985400D01*
X78785400Y60934600D01*
X78765400Y60934600D01*
X78765400Y59336414D01*
X78973389Y59248809D01*
X78974910Y59248834D01*
X79226192Y59319856D01*
X79458790Y59438536D01*
X79663765Y59600314D01*
X79833240Y59798972D01*
X79960703Y60026876D01*
X80006839Y60169141D01*
X80043624Y60047876D01*
X80167291Y59816511D01*
X80333720Y59613719D01*
X80536512Y59447291D01*
X80767877Y59323624D01*
X81018923Y59247470D01*
X81280000Y59221756D01*
X81541078Y59247470D01*
X81792124Y59323624D01*
X82023489Y59447291D01*
X82226281Y59613719D01*
X82392709Y59816511D01*
X82516376Y60047876D01*
X82553161Y60169141D01*
X82599297Y60026876D01*
X82726760Y59798972D01*
X82896235Y59600314D01*
X83101210Y59438536D01*
X83333808Y59319856D01*
X83585090Y59248834D01*
X83586611Y59248809D01*
X83794600Y59336414D01*
X83794600Y60934600D01*
X83845400Y60934600D01*
X83845400Y59336414D01*
X84053389Y59248809D01*
X84054910Y59248834D01*
X84306192Y59319856D01*
X84538790Y59438536D01*
X84743765Y59600314D01*
X84913240Y59798972D01*
X85040703Y60026876D01*
X85090000Y60178889D01*
X85139297Y60026876D01*
X85266760Y59798972D01*
X85436235Y59600314D01*
X85641210Y59438536D01*
X85873808Y59319856D01*
X86125090Y59248834D01*
X86126611Y59248809D01*
X86334600Y59336414D01*
X86334600Y60934600D01*
X86385400Y60934600D01*
X86385400Y59336414D01*
X86593389Y59248809D01*
X86594910Y59248834D01*
X86846192Y59319856D01*
X87078790Y59438536D01*
X87283765Y59600314D01*
X87453240Y59798972D01*
X87580703Y60026876D01*
X87630000Y60178889D01*
X87679297Y60026876D01*
X87806760Y59798972D01*
X87976235Y59600314D01*
X88181210Y59438536D01*
X88413808Y59319856D01*
X88665090Y59248834D01*
X88666611Y59248809D01*
X88874600Y59336414D01*
X88874600Y60934600D01*
X88925400Y60934600D01*
X88925400Y59336414D01*
X89133389Y59248809D01*
X89134910Y59248834D01*
X89386192Y59319856D01*
X89618790Y59438536D01*
X89823765Y59600314D01*
X89993240Y59798972D01*
X90120703Y60026876D01*
X90170000Y60178889D01*
X90219297Y60026876D01*
X90346760Y59798972D01*
X90516235Y59600314D01*
X90721210Y59438536D01*
X90953808Y59319856D01*
X91205090Y59248834D01*
X91206611Y59248809D01*
X91414600Y59336414D01*
X91414600Y60934600D01*
X88925400Y60934600D01*
X88874600Y60934600D01*
X86385400Y60934600D01*
X86334600Y60934600D01*
X83845400Y60934600D01*
X83794600Y60934600D01*
X83774600Y60934600D01*
X83774600Y60985400D01*
X83794600Y60985400D01*
X83794600Y62583586D01*
X83845400Y62583586D01*
X83845400Y60985400D01*
X86334600Y60985400D01*
X86334600Y62583586D01*
X86385400Y62583586D01*
X86385400Y60985400D01*
X88874600Y60985400D01*
X88874600Y62583586D01*
X88925400Y62583586D01*
X88925400Y60985400D01*
X91414600Y60985400D01*
X91414600Y62583586D01*
X91465400Y62583586D01*
X91465400Y60985400D01*
X91485400Y60985400D01*
X91485400Y60934600D01*
X91465400Y60934600D01*
X91465400Y59336414D01*
X91673389Y59248809D01*
X91674910Y59248834D01*
X91926192Y59319856D01*
X92158790Y59438536D01*
X92363765Y59600314D01*
X92533240Y59798972D01*
X92660703Y60026876D01*
X92706839Y60169141D01*
X92743624Y60047876D01*
X92867291Y59816511D01*
X93033720Y59613719D01*
X93236512Y59447291D01*
X93467877Y59323624D01*
X93718923Y59247470D01*
X93980000Y59221756D01*
X94241078Y59247470D01*
X94492124Y59323624D01*
X94723489Y59447291D01*
X94926281Y59613719D01*
X95092709Y59816511D01*
X95216376Y60047876D01*
X95250000Y60158719D01*
X95283624Y60047876D01*
X95407291Y59816511D01*
X95573720Y59613719D01*
X95776512Y59447291D01*
X96007877Y59323624D01*
X96258923Y59247470D01*
X96520000Y59221756D01*
X96781078Y59247470D01*
X97032124Y59323624D01*
X97263489Y59447291D01*
X97466281Y59613719D01*
X97632709Y59816511D01*
X97756376Y60047876D01*
X97790000Y60158719D01*
X97823624Y60047876D01*
X97947291Y59816511D01*
X98113720Y59613719D01*
X98316512Y59447291D01*
X98547877Y59323624D01*
X98798923Y59247470D01*
X99060000Y59221756D01*
X99321078Y59247470D01*
X99572124Y59323624D01*
X99803489Y59447291D01*
X100006281Y59613719D01*
X100172709Y59816511D01*
X100296376Y60047876D01*
X100330000Y60158719D01*
X100363624Y60047876D01*
X100487291Y59816511D01*
X100653720Y59613719D01*
X100856512Y59447291D01*
X101087877Y59323624D01*
X101338923Y59247470D01*
X101600000Y59221756D01*
X101861078Y59247470D01*
X102112124Y59323624D01*
X102343489Y59447291D01*
X102546281Y59613719D01*
X102712709Y59816511D01*
X102836376Y60047876D01*
X102870000Y60158719D01*
X102903624Y60047876D01*
X103027291Y59816511D01*
X103193720Y59613719D01*
X103396512Y59447291D01*
X103627877Y59323624D01*
X103878923Y59247470D01*
X104140000Y59221756D01*
X104401078Y59247470D01*
X104652124Y59323624D01*
X104883489Y59447291D01*
X105086281Y59613719D01*
X105252709Y59816511D01*
X105376376Y60047876D01*
X105413161Y60169141D01*
X105459297Y60026876D01*
X105586760Y59798972D01*
X105756235Y59600314D01*
X105961210Y59438536D01*
X106193808Y59319856D01*
X106445090Y59248834D01*
X106446611Y59248809D01*
X106654600Y59336414D01*
X106654600Y60934600D01*
X106705400Y60934600D01*
X106705400Y59336414D01*
X106913389Y59248809D01*
X106914910Y59248834D01*
X107166192Y59319856D01*
X107398790Y59438536D01*
X107603765Y59600314D01*
X107773240Y59798972D01*
X107900703Y60026876D01*
X107981255Y60275267D01*
X108011800Y60534600D01*
X108011800Y60934600D01*
X106705400Y60934600D01*
X106654600Y60934600D01*
X106634600Y60934600D01*
X106634600Y60985400D01*
X106654600Y60985400D01*
X106654600Y62583586D01*
X106705400Y62583586D01*
X106705400Y60985400D01*
X108011800Y60985400D01*
X108011800Y61150266D01*
X136148200Y61150266D01*
X136148200Y60769734D01*
X136222438Y60396515D01*
X136368061Y60044950D01*
X136579473Y59728549D01*
X136848549Y59459473D01*
X137164950Y59248061D01*
X137516515Y59102438D01*
X137889734Y59028200D01*
X138270266Y59028200D01*
X138643485Y59102438D01*
X138995050Y59248061D01*
X139311451Y59459473D01*
X139580527Y59728549D01*
X139791939Y60044950D01*
X139937562Y60396515D01*
X140011800Y60769734D01*
X140011800Y61150266D01*
X139937562Y61523485D01*
X139791939Y61875050D01*
X139580527Y62191451D01*
X139311451Y62460527D01*
X138995050Y62671939D01*
X138643485Y62817562D01*
X138270266Y62891800D01*
X137889734Y62891800D01*
X137516515Y62817562D01*
X137164950Y62671939D01*
X136848549Y62460527D01*
X136579473Y62191451D01*
X136368061Y61875050D01*
X136222438Y61523485D01*
X136148200Y61150266D01*
X108011800Y61150266D01*
X108011800Y61385400D01*
X107981255Y61644733D01*
X107900703Y61893124D01*
X107773240Y62121028D01*
X107603765Y62319686D01*
X107398790Y62481464D01*
X107166192Y62600144D01*
X106914910Y62671166D01*
X106913389Y62671191D01*
X106705400Y62583586D01*
X106654600Y62583586D01*
X106446611Y62671191D01*
X106445090Y62671166D01*
X106193808Y62600144D01*
X105961210Y62481464D01*
X105756235Y62319686D01*
X105586760Y62121028D01*
X105459297Y61893124D01*
X105413161Y61750859D01*
X105376376Y61872124D01*
X105252709Y62103489D01*
X105086281Y62306281D01*
X104883488Y62472709D01*
X104652123Y62596376D01*
X104401077Y62672530D01*
X104140000Y62698244D01*
X103878922Y62672530D01*
X103627876Y62596376D01*
X103396511Y62472709D01*
X103193719Y62306281D01*
X103027291Y62103488D01*
X102903624Y61872123D01*
X102870000Y61761280D01*
X102836376Y61872124D01*
X102712709Y62103489D01*
X102546281Y62306281D01*
X102343488Y62472709D01*
X102112123Y62596376D01*
X101861077Y62672530D01*
X101600000Y62698244D01*
X101338922Y62672530D01*
X101087876Y62596376D01*
X100856511Y62472709D01*
X100653719Y62306281D01*
X100487291Y62103488D01*
X100363624Y61872123D01*
X100330000Y61761280D01*
X100296376Y61872124D01*
X100172709Y62103489D01*
X100006281Y62306281D01*
X99803488Y62472709D01*
X99572123Y62596376D01*
X99321077Y62672530D01*
X99060000Y62698244D01*
X98798922Y62672530D01*
X98547876Y62596376D01*
X98316511Y62472709D01*
X98113719Y62306281D01*
X97947291Y62103488D01*
X97823624Y61872123D01*
X97790000Y61761280D01*
X97756376Y61872124D01*
X97632709Y62103489D01*
X97466281Y62306281D01*
X97263488Y62472709D01*
X97032123Y62596376D01*
X96781077Y62672530D01*
X96520000Y62698244D01*
X96258922Y62672530D01*
X96007876Y62596376D01*
X95776511Y62472709D01*
X95573719Y62306281D01*
X95407291Y62103488D01*
X95283624Y61872123D01*
X95250000Y61761280D01*
X95216376Y61872124D01*
X95092709Y62103489D01*
X94926281Y62306281D01*
X94723488Y62472709D01*
X94492123Y62596376D01*
X94241077Y62672530D01*
X93980000Y62698244D01*
X93718922Y62672530D01*
X93467876Y62596376D01*
X93236511Y62472709D01*
X93033719Y62306281D01*
X92867291Y62103488D01*
X92743624Y61872123D01*
X92706839Y61750859D01*
X92660703Y61893124D01*
X92533240Y62121028D01*
X92363765Y62319686D01*
X92158790Y62481464D01*
X91926192Y62600144D01*
X91674910Y62671166D01*
X91673389Y62671191D01*
X91465400Y62583586D01*
X91414600Y62583586D01*
X91206611Y62671191D01*
X91205090Y62671166D01*
X90953808Y62600144D01*
X90721210Y62481464D01*
X90516235Y62319686D01*
X90346760Y62121028D01*
X90219297Y61893124D01*
X90170000Y61741111D01*
X90120703Y61893124D01*
X89993240Y62121028D01*
X89823765Y62319686D01*
X89618790Y62481464D01*
X89386192Y62600144D01*
X89134910Y62671166D01*
X89133389Y62671191D01*
X88925400Y62583586D01*
X88874600Y62583586D01*
X88666611Y62671191D01*
X88665090Y62671166D01*
X88413808Y62600144D01*
X88181210Y62481464D01*
X87976235Y62319686D01*
X87806760Y62121028D01*
X87679297Y61893124D01*
X87630000Y61741111D01*
X87580703Y61893124D01*
X87453240Y62121028D01*
X87283765Y62319686D01*
X87078790Y62481464D01*
X86846192Y62600144D01*
X86594910Y62671166D01*
X86593389Y62671191D01*
X86385400Y62583586D01*
X86334600Y62583586D01*
X86126611Y62671191D01*
X86125090Y62671166D01*
X85873808Y62600144D01*
X85641210Y62481464D01*
X85436235Y62319686D01*
X85266760Y62121028D01*
X85139297Y61893124D01*
X85090000Y61741111D01*
X85040703Y61893124D01*
X84913240Y62121028D01*
X84743765Y62319686D01*
X84538790Y62481464D01*
X84306192Y62600144D01*
X84054910Y62671166D01*
X84053389Y62671191D01*
X83845400Y62583586D01*
X83794600Y62583586D01*
X83586611Y62671191D01*
X83585090Y62671166D01*
X83333808Y62600144D01*
X83101210Y62481464D01*
X82896235Y62319686D01*
X82726760Y62121028D01*
X82599297Y61893124D01*
X82553161Y61750859D01*
X82516376Y61872124D01*
X82392709Y62103489D01*
X82226281Y62306281D01*
X82023488Y62472709D01*
X81792123Y62596376D01*
X81541077Y62672530D01*
X81280000Y62698244D01*
X81018922Y62672530D01*
X80767876Y62596376D01*
X80536511Y62472709D01*
X80333719Y62306281D01*
X80167291Y62103488D01*
X80043624Y61872123D01*
X80006839Y61750859D01*
X79960703Y61893124D01*
X79833240Y62121028D01*
X79663765Y62319686D01*
X79458790Y62481464D01*
X79226192Y62600144D01*
X78974910Y62671166D01*
X78973389Y62671191D01*
X78765400Y62583586D01*
X78714600Y62583586D01*
X78506611Y62671191D01*
X78505090Y62671166D01*
X78253808Y62600144D01*
X78021210Y62481464D01*
X77816235Y62319686D01*
X77646760Y62121028D01*
X77519297Y61893124D01*
X77473161Y61750859D01*
X77436376Y61872124D01*
X77312709Y62103489D01*
X77146281Y62306281D01*
X76943488Y62472709D01*
X76712123Y62596376D01*
X76461077Y62672530D01*
X76200000Y62698244D01*
X75938922Y62672530D01*
X75687876Y62596376D01*
X75456511Y62472709D01*
X75253719Y62306281D01*
X75087291Y62103488D01*
X74963624Y61872123D01*
X74930000Y61761280D01*
X74896376Y61872124D01*
X74772709Y62103489D01*
X74606281Y62306281D01*
X74403488Y62472709D01*
X74172123Y62596376D01*
X73921077Y62672530D01*
X73660000Y62698244D01*
X73398922Y62672530D01*
X73147876Y62596376D01*
X72916511Y62472709D01*
X72713719Y62306281D01*
X72547291Y62103488D01*
X72423624Y61872123D01*
X72390000Y61761280D01*
X72356376Y61872124D01*
X72232709Y62103489D01*
X72066281Y62306281D01*
X71863488Y62472709D01*
X71632123Y62596376D01*
X71381077Y62672530D01*
X71120000Y62698244D01*
X70858922Y62672530D01*
X70607876Y62596376D01*
X70376511Y62472709D01*
X70173719Y62306281D01*
X70007291Y62103488D01*
X69913294Y61927631D01*
X69913889Y62260000D01*
X69905552Y62344648D01*
X69880861Y62426042D01*
X69840766Y62501056D01*
X69786806Y62566806D01*
X69721056Y62620766D01*
X69646042Y62660861D01*
X69564648Y62685552D01*
X69480000Y62693889D01*
X68713350Y62691800D01*
X68605400Y62583850D01*
X68605400Y60985400D01*
X68625400Y60985400D01*
X68625400Y60934600D01*
X68605400Y60934600D01*
X68605400Y60914600D01*
X68554600Y60914600D01*
X68554600Y60934600D01*
X67356150Y60934600D01*
X67248200Y60826650D01*
X67246111Y59660000D01*
X67254448Y59575352D01*
X67279139Y59493958D01*
X67282965Y59486800D01*
X64339678Y59486800D01*
X64581427Y59728549D01*
X64792839Y60044950D01*
X64938462Y60396515D01*
X65012700Y60769734D01*
X65012700Y61150266D01*
X64938462Y61523485D01*
X64792839Y61875050D01*
X64581427Y62191451D01*
X64512878Y62260000D01*
X67246111Y62260000D01*
X67248200Y61093350D01*
X67356150Y60985400D01*
X68554600Y60985400D01*
X68554600Y62583850D01*
X68446650Y62691800D01*
X67680000Y62693889D01*
X67595352Y62685552D01*
X67513958Y62660861D01*
X67438944Y62620766D01*
X67373194Y62566806D01*
X67319234Y62501056D01*
X67279139Y62426042D01*
X67254448Y62344648D01*
X67246111Y62260000D01*
X64512878Y62260000D01*
X64312351Y62460527D01*
X63995950Y62671939D01*
X63644385Y62817562D01*
X63271166Y62891800D01*
X62890634Y62891800D01*
X62517415Y62817562D01*
X62165850Y62671939D01*
X61849449Y62460527D01*
X61580373Y62191451D01*
X61368961Y61875050D01*
X61223338Y61523485D01*
X61149100Y61150266D01*
X61149100Y60769734D01*
X61223338Y60396515D01*
X61368961Y60044950D01*
X61580373Y59728549D01*
X61822122Y59486800D01*
X56590063Y59486800D01*
X54031800Y62045062D01*
X54031800Y62168525D01*
X53999835Y62329227D01*
X53937132Y62480605D01*
X53846101Y62616842D01*
X53730242Y62732701D01*
X53594005Y62823732D01*
X53442627Y62886435D01*
X53281925Y62918400D01*
X53118075Y62918400D01*
X52957373Y62886435D01*
X52805995Y62823732D01*
X52669758Y62732701D01*
X52553899Y62616842D01*
X52462868Y62480605D01*
X52400165Y62329227D01*
X52368200Y62168525D01*
X36962804Y62168525D01*
X37218472Y62219380D01*
X37460844Y62319774D01*
X37678973Y62465523D01*
X37864477Y62651027D01*
X38010226Y62869156D01*
X38110620Y63111528D01*
X38161800Y63368829D01*
X38161800Y63631171D01*
X38110620Y63888472D01*
X38010226Y64130844D01*
X37864477Y64348973D01*
X37678973Y64534477D01*
X37460844Y64680226D01*
X37218472Y64780620D01*
X36961171Y64831800D01*
X36698829Y64831800D01*
X36441528Y64780620D01*
X36199156Y64680226D01*
X35981027Y64534477D01*
X35795523Y64348973D01*
X35649774Y64130844D01*
X35623889Y64068352D01*
X35623889Y64400000D01*
X35615552Y64484648D01*
X35590861Y64566042D01*
X35550766Y64641056D01*
X35496806Y64706806D01*
X35431056Y64760766D01*
X35356042Y64800861D01*
X35274648Y64825552D01*
X35190000Y64833889D01*
X33390000Y64833889D01*
X33305352Y64825552D01*
X33223958Y64800861D01*
X33148944Y64760766D01*
X33083194Y64706806D01*
X33029234Y64641056D01*
X32989139Y64566042D01*
X32964448Y64484648D01*
X32956111Y64400000D01*
X481800Y64400000D01*
X481800Y66265643D01*
X4318200Y66265643D01*
X4318200Y65934357D01*
X4382830Y65609437D01*
X4509608Y65303369D01*
X4693660Y65027915D01*
X4927915Y64793660D01*
X5203369Y64609608D01*
X5509437Y64482830D01*
X5834357Y64418200D01*
X6165643Y64418200D01*
X6490563Y64482830D01*
X6796631Y64609608D01*
X7072085Y64793660D01*
X7306340Y65027915D01*
X7490392Y65303369D01*
X7617170Y65609437D01*
X7681800Y65934357D01*
X7681800Y66265643D01*
X135318200Y66265643D01*
X135318200Y65934357D01*
X135382830Y65609437D01*
X135509608Y65303369D01*
X135693660Y65027915D01*
X135927915Y64793660D01*
X136203369Y64609608D01*
X136509437Y64482830D01*
X136834357Y64418200D01*
X137165643Y64418200D01*
X137490563Y64482830D01*
X137796631Y64609608D01*
X138072085Y64793660D01*
X138306340Y65027915D01*
X138490392Y65303369D01*
X138617170Y65609437D01*
X138681800Y65934357D01*
X138681800Y66265643D01*
X138617170Y66590563D01*
X138490392Y66896631D01*
X138306340Y67172085D01*
X138072085Y67406340D01*
X137796631Y67590392D01*
X137490563Y67717170D01*
X137165643Y67781800D01*
X136834357Y67781800D01*
X136509437Y67717170D01*
X136203369Y67590392D01*
X135927915Y67406340D01*
X135693660Y67172085D01*
X135509608Y66896631D01*
X135382830Y66590563D01*
X135318200Y66265643D01*
X7681800Y66265643D01*
X7617170Y66590563D01*
X7490392Y66896631D01*
X7306340Y67172085D01*
X7072085Y67406340D01*
X6796631Y67590392D01*
X6490563Y67717170D01*
X6479181Y67719434D01*
X85733202Y67719434D01*
X85801453Y67477604D01*
X85915571Y67253735D01*
X86071171Y67056431D01*
X86262273Y66893275D01*
X86481534Y66770536D01*
X86720527Y66692931D01*
X86769434Y66683203D01*
X86969600Y66771425D01*
X86969600Y67919600D01*
X85821401Y67919600D01*
X85733202Y67719434D01*
X6479181Y67719434D01*
X6165643Y67781800D01*
X5834357Y67781800D01*
X5509437Y67717170D01*
X5203369Y67590392D01*
X4927915Y67406340D01*
X4693660Y67172085D01*
X4509608Y66896631D01*
X4382830Y66590563D01*
X4318200Y66265643D01*
X481800Y66265643D01*
X481800Y70611246D01*
X85713200Y70611246D01*
X85713200Y70358754D01*
X85762459Y70111113D01*
X85859084Y69877840D01*
X85999361Y69667900D01*
X86177900Y69489361D01*
X86387840Y69349084D01*
X86621113Y69252459D01*
X86868754Y69203200D01*
X86969598Y69203200D01*
X86969598Y69118576D01*
X86769434Y69206797D01*
X86720527Y69197069D01*
X86481534Y69119464D01*
X86262273Y68996725D01*
X86071171Y68833569D01*
X85915571Y68636265D01*
X85801453Y68412396D01*
X85733202Y68170566D01*
X85821401Y67970400D01*
X86969600Y67970400D01*
X86969600Y67990400D01*
X87020400Y67990400D01*
X87020400Y67970400D01*
X87040400Y67970400D01*
X87040400Y67919600D01*
X87020400Y67919600D01*
X87020400Y66771425D01*
X87220566Y66683203D01*
X87269473Y66692931D01*
X87508466Y66770536D01*
X87727727Y66893275D01*
X87918829Y67056431D01*
X88074429Y67253735D01*
X88188547Y67477604D01*
X88256798Y67719434D01*
X88168600Y67919598D01*
X88253200Y67919598D01*
X88253200Y67818754D01*
X88302459Y67571113D01*
X88399084Y67337840D01*
X88539361Y67127900D01*
X88717900Y66949361D01*
X88927840Y66809084D01*
X89161113Y66712459D01*
X89408754Y66663200D01*
X89661246Y66663200D01*
X89908887Y66712459D01*
X90142160Y66809084D01*
X90352100Y66949361D01*
X90530639Y67127900D01*
X90670916Y67337840D01*
X90767541Y67571113D01*
X90805000Y67759432D01*
X90842459Y67571113D01*
X90939084Y67337840D01*
X91079361Y67127900D01*
X91257900Y66949361D01*
X91467840Y66809084D01*
X91701113Y66712459D01*
X91948754Y66663200D01*
X92201246Y66663200D01*
X92448887Y66712459D01*
X92682160Y66809084D01*
X92892100Y66949361D01*
X93070639Y67127900D01*
X93210916Y67337840D01*
X93307541Y67571113D01*
X93356800Y67818754D01*
X93356800Y68071246D01*
X93307541Y68318887D01*
X93210916Y68552160D01*
X93070639Y68762100D01*
X92892100Y68940639D01*
X92682160Y69080916D01*
X92448887Y69177541D01*
X92330393Y69201111D01*
X92925000Y69201111D01*
X93009648Y69209448D01*
X93091042Y69234139D01*
X93166056Y69274234D01*
X93231806Y69328194D01*
X93285766Y69393944D01*
X93325861Y69468958D01*
X93350552Y69550352D01*
X93358889Y69635000D01*
X93358889Y71335000D01*
X93350552Y71419648D01*
X93325861Y71501042D01*
X93285766Y71576056D01*
X93231806Y71641806D01*
X93166056Y71695766D01*
X93091042Y71735861D01*
X93009648Y71760552D01*
X92925000Y71768889D01*
X91225000Y71768889D01*
X91140352Y71760552D01*
X91058958Y71735861D01*
X90983944Y71695766D01*
X90918194Y71641806D01*
X90864234Y71576056D01*
X90824139Y71501042D01*
X90799448Y71419648D01*
X90791111Y71335000D01*
X90791111Y70740393D01*
X90767541Y70858887D01*
X90670916Y71092160D01*
X90530639Y71302100D01*
X90352100Y71480639D01*
X90142160Y71620916D01*
X89908887Y71717541D01*
X89661246Y71766800D01*
X89408754Y71766800D01*
X89161113Y71717541D01*
X88927840Y71620916D01*
X88717900Y71480639D01*
X88539361Y71302100D01*
X88399084Y71092160D01*
X88302459Y70858887D01*
X88265000Y70670568D01*
X88227541Y70858887D01*
X88130916Y71092160D01*
X87990639Y71302100D01*
X87812100Y71480639D01*
X87602160Y71620916D01*
X87368887Y71717541D01*
X87121246Y71766800D01*
X86868754Y71766800D01*
X86621113Y71717541D01*
X86387840Y71620916D01*
X86177900Y71480639D01*
X85999361Y71302100D01*
X85859084Y71092160D01*
X85762459Y70858887D01*
X85713200Y70611246D01*
X481800Y70611246D01*
X481800Y72518200D01*
X142113000Y72518200D01*
X142113000Y481800D01*
G37*
%TD.AperFunction*%
%TD*%
M02*
